<svg fill="none" height="100" viewBox="0 0 100 100" width="100" xmlns="http://www.w3.org/2000/svg"><path d="m96.48 32.9796-46.41-24.67003-46.41003 24.67003 14.52003 7.73v26.82l31.89 16.87 31.89-16.87v-26.82z" fill="#fff"/><g fill="#f1eee0"><path d="m50.07 51.26-34.36-18.28 34.36-18.27 34.36 18.27z"/><path d="m50.07 78.3604-27.15-14.52v-21.65l27.15 14.52z"/><path d="m50.07 78.3604 27.15-14.52v-21.65l-27.15 14.52z"/></g><g fill="#060606"><path d="m50.07 59.5-49.869988-26.52 49.869988-26.52004 49.87 26.52004zm-42.94999-26.52 42.94999 22.84 42.95-22.84-42.95-22.83z"/><path d="m50.07 86.23-33.51-17.72v-27.8h3.25v25.85l30.26 16 30.26-16v-25.36h3.25v27.31z"/><path d="m51.69 57.7598h-3.25v25.56h3.25z"/></g><path d="m52.06 28.9403 24.12 13.77-.13 43.18-3.28-4.35-5.06 8.49v-42.28l-19.73-11.46c-2.72-1.58-2.81-5.48-.16-7.18 1.28-.82 2.9-.89 4.25-.17z" fill="#89c32e"/><path d="m66.08 95.9299v-47.24l-18.92-10.99c-1.77-1.03-2.86-2.87-2.9-4.92s.96-3.93 2.68-5.04c1.77-1.14 4.03-1.23 5.89-.24l.04.02 24.94 14.24-.15 48.96-4.74-6.28-6.84 11.48zm-15.99-65.86c-.49 0-.97.14-1.39.41-.78.5-1.21 1.31-1.19 2.23s.49 1.71 1.29 2.18l20.54 11.93v37.31l3.28-5.5 1.83 2.43.12-37.4099-23.27-13.2901c-.38-.2-.79-.29-1.2-.29z" fill="#060606"/></svg>