<svg fill="none" height="100" viewBox="0 0 100 100" width="100" xmlns="http://www.w3.org/2000/svg"><path d="m90.35 16.4102h-66.93v12.54h66.93z" fill="#89c32e"/><path d="m90.24 29.3594h-66.71v52.93h66.71z" fill="#fff"/><path d="m92.12 30.7306h-70.48v-16.09h70.48zm-66.93-3.55h63.38v-8.99h-63.38z" fill="#060606"/><path d="m85.29 34.1406h-56.81v43.35h56.81z" fill="#f1eee0"/><path d="m92.12 84.0594h-70.48v-54.7h3.55v51.15h63.38v-51.15h3.55z" fill="#060606"/><path d="m57.5601 43.53h-50.75004v-37.28h3.55004v33.73h47.2z" fill="#060606"/><path d="m62.91 47.1291c2.9713 0 5.38-2.4087 5.38-5.38s-2.4087-5.38-5.38-5.38-5.38 2.4087-5.38 5.38 2.4087 5.38 5.38 5.38z" fill="#fff"/><path d="m62.91 48.9094c-3.94 0-7.15-3.21-7.15-7.15s3.21-7.15 7.15-7.15 7.15 3.21 7.15 7.15-3.21 7.15-7.15 7.15zm0-10.76c-1.99 0-3.6 1.62-3.6 3.6s1.62 3.6 3.6 3.6 3.6-1.62 3.6-3.6-1.62-3.6-3.6-3.6z" fill="#060606"/><path d="m50.41 60.3401c2.9713 0 5.38-2.4087 5.38-5.38s-2.4087-5.38-5.38-5.38-5.38 2.4087-5.38 5.38 2.4087 5.38 5.38 5.38z" fill="#fff"/><path d="m50.41 62.1203c-3.94 0-7.15-3.21-7.15-7.15s3.21-7.15 7.15-7.15 7.15 3.21 7.15 7.15-3.21 7.15-7.15 7.15zm0-10.76c-1.99 0-3.6 1.62-3.6 3.6s1.62 3.6 3.6 3.6 3.6-1.62 3.6-3.6-1.62-3.6-3.6-3.6z" fill="#060606"/><path d="m62.91 73.5491c2.9713 0 5.38-2.4087 5.38-5.38s-2.4087-5.38-5.38-5.38-5.38 2.4087-5.38 5.38 2.4087 5.38 5.38 5.38z" fill="#fff"/><g fill="#060606"><path d="m62.91 75.3195c-3.94 0-7.15-3.21-7.15-7.15s3.21-7.15 7.15-7.15 7.15 3.21 7.15 7.15-3.21 7.15-7.15 7.15zm0-10.76c-1.99 0-3.6 1.62-3.6 3.6s1.62 3.6 3.6 3.6 3.6-1.62 3.6-3.6-1.62-3.6-3.6-3.6z"/><path d="m45.1 53.1895h-38.86001v3.55h38.86001z"/><path d="m10.3601 93.7504h-3.55004v-27.35h50.72004v3.54h-47.17z"/></g></svg>