<svg fill="none" height="155" viewBox="0 0 156 155" width="156" xmlns="http://www.w3.org/2000/svg"><g fill="#060606"><path d="m13.4299 54.51c-7.56739-31.1329 67.2077-13.9863 78.8321 38.4635.5223 2.193.8224 4.4257.9069 6.6847.1599 1.7748-.0908 3.5618-.7216 5.2158-1.3511 2.8-4.9515 3.44-7.6648 2.251-.9818-.394-1.8587-1.012-2.5431-1.829-.6811-.806-1.1564-1.77-1.3858-2.804-.1538-1.553.1199-3.1341.7972-4.546.6299-1.3515 1.5288-2.5676 2.6492-3.5541 1.1204-.9866 2.432-1.7336 3.8538-2.1807 7.5824-2.8736 16.6242-.3773 23.8362 2.5549 8.763 3.7209 16.969 8.6119 24.412 14.5509 1.939 1.49 3.884 2.933 5.903 4.329 1.068.757 2.755-1.672 1.953-2.54-3.753-3.828-7.894-7.236-12.373-10.174-4.193-2.9203-8.589-5.5382-13.157-7.8301-7.984-3.9779-17.245-7.3771-26.3012-6.0796-8.1093 1.1419-14.9869 7.2021-15.5158 15.6837-.0802 2.201.6644 4.355 2.0768 6.052 1.4193 1.684 3.4124 2.797 5.5895 3.109 1.9213.319 3.8915.004 5.6276-.883 1.7328-.897 3.1339-2.324 3.9804-4.072 1.8175-3.492 1.7792-7.8182 1.2918-11.637-.7407-4.7553-2.027-9.3977-3.8458-13.8531-20.6384-49.1931-87.58041-59.0497-78.2014-26.9119z"/><path d="m135.401 97.0474c.167.6064.222 1.2495.328 1.9096.176.6368.407 1.267.664 1.877.519 1.331 1.06 2.632 1.669 3.933 1.178 2.481 2.397 4.949 3.655 7.403l1.41-3.403c-3.954-.23-7.926-.376-11.902-.464-2.069-.191-4.157-.197-6.237-.048-1.071.152-3.86.501-3.406 2.077.194.418.472.786.825 1.073s.759.501 1.21.61c.868.386 1.762.685 2.677.909 2.106.37 4.237.574 6.371.621 3.975.324 7.943.561 11.948.808 1.902.089 2.07-2.119 1.41-3.403-1.269-2.451-2.588-4.885-3.935-7.299-.717-1.288-1.484-2.526-2.292-3.75-.818-1.221-1.728-2.1425-2.59-3.2592-.684-.8503-2.222-.9926-1.829.4695l.027-.0875z"/></g></svg>