<svg fill="none" height="100" viewBox="0 0 100 100" width="100" xmlns="http://www.w3.org/2000/svg"><path d="m65.88 70.9798c-3.82-2.67-9.13-.99-10.72 3.39-.25.7-.82 1.1-1.44 1.2 1.64 5.65 4.92 14.75 10.04 19.56 1.07-3.26 2.55-6.2 3.81-7.87 3.48 1.88 6.63 3.33 11.88 3.63-6.61-7.97-10.08-15.09-11.84-19.7-.54.21-1.17.18-1.72-.2z" fill="#f1eee0"/><path d="m40.6101 73.4505c-1.09 1.14-3.01.5-3.21-1.06v-.03c-.25-1.93-1.23-3.53-2.6-4.63l-.15.12c-1.14 3.88-4.46 12.77-12.97 23.04 5.25-.3 8.4-1.75 11.88-3.63 1.26 1.67 2.74 4.61 3.81 7.87 5-4.25 9.29-13.39 10.54-17.73 0 0 1.73-4.94 1.52-5.08-2.72-1.67-6.41-1.38-8.83 1.12z" fill="#f1eee0"/><path d="m49.79 63.8796c13.3432 0 24.16-10.8168 24.16-24.16s-10.8168-24.16-24.16-24.16-24.16 10.8168-24.16 24.16 10.8168 24.16 24.16 24.16z" fill="#fff"/><path d="m49.79 58.5004c10.3719 0 18.78-8.4081 18.78-18.78s-8.4081-18.78-18.78-18.78-18.78 8.4081-18.78 18.78 8.4081 18.78 18.78 18.78z" fill="#f1eee0"/><path d="m84.68 45.5503c-3.66-2.87-3.61-8.43.1-11.23 1.26-.95.85-2.93-.67-3.31h-.04c-4.51-1.15-6.72-6.24-4.47-10.31.76-1.38-.41-3.02-1.96-2.76h-.05c-4.58.8-8.67-2.95-8.27-7.58.13-1.57997-1.6-2.59997-2.91-1.72997l-.04.03c-3.86 2.57997-9.11.83-10.64-3.56v-.02c-.52-1.48-2.53-1.71-3.36-.38l-.02.03c-2.47 3.93-7.99 4.47-11.16 1.09l-.02-.02c-1.08-1.14-3-.53-3.22 1.02v.03c-.66 4.58997-5.48 7.32997-9.76 5.53997l-.04-.02c-1.45-.61-2.95.73-2.52 2.24v.02c1.28 4.46-2 8.93-6.64 9.04h-.05c-1.57.04-2.4 1.87-1.39 3.08 2.99 3.57 1.8 8.99-2.39 10.98l-.04.02c-1.42.67-1.43 2.69-.02 3.38 4.18 2.03 5.31 7.47 2.28 11l-.03.03c-1.03 1.19-.21 3.04 1.36 3.09 4.65.15 7.89 4.67 6.55 9.13v.03c-.46 1.51 1.03 2.87 2.49 2.27 4.31-1.75 9.12 1.06 9.7 5.68v.03c.2 1.56 2.12 2.2 3.21 1.06 3.23-3.36 8.76-2.74 11.17 1.25v.02c.82 1.35 2.84 1.15 3.37-.33 1.59-4.39 6.9-6.07 10.72-3.4 1.29.91 3.05-.09 2.94-1.66v-.02c-.33-4.65 3.84-8.34 8.42-7.45 1.54.3 2.75-1.33 2.01-2.72v-.02c-2.19-4.11.11-9.18 4.65-10.23 1.53-.35 1.97-2.33.73-3.3l-.03-.02zm-34.89 17.61c-12.95 0-23.45-10.5-23.45-23.45s10.5-23.45 23.45-23.45 23.45 10.5 23.45 23.45-10.5 23.45-23.45 23.45z" fill="#89c32e"/><g fill="#060606"><path d="m53.45 77.2396c-1.22 0-2.34-.63-2.98-1.69-.89-1.48-2.38-2.43-4.08-2.62-1.7-.2-3.36.41-4.54 1.64-.95.98-2.33 1.33-3.62.9s-2.2-1.53-2.37-2.88c-.22-1.72-1.19-3.19-2.67-4.06-1.48-.86-3.23-.99-4.82-.35-1.25.51-2.67.26-3.67-.65-1.01-.92-1.39-2.29-1-3.59.5-1.67.21-3.41-.78-4.8s-2.55-2.22-4.26-2.27c-1.36-.04-2.54-.85-3.09-2.09s-.33-2.66.55-3.68c1.14-1.33 1.58-3.03 1.23-4.7s-1.43-3.06-2.96-3.81c-1.23-.6-1.98-1.81-1.97-3.17s.77-2.56 2-3.14c1.58-.75 2.68-2.12 3.04-3.79s-.06-3.37-1.15-4.68c-.88-1.05-1.08-2.46-.52-3.7s1.75-2.03 3.11-2.06c1.75-.04 3.31-.85 4.32-2.22s1.32-3.1.85-4.74c-.38-1.33.02-2.7 1.03-3.6s2.42-1.14 3.67-.61c1.61.67 3.36.57 4.85-.27 1.48-.83996 2.47-2.28996 2.71-3.97996.2-1.38 1.12-2.47 2.41-2.88s2.67-.05 3.6.94c1.19 1.27 2.83 1.88 4.53 1.72 1.7-.17 3.19-1.09 4.1-2.53.74-1.18 2.04-1.81 3.38-1.65 1.35.15 2.46 1.04 2.91 2.33.57 1.63 1.82 2.87 3.44 3.41s3.36.31 4.77-.64c1.17-.78 2.59-.82 3.76-.13s1.82 1.96 1.71 3.30996c-.15 1.71.49 3.35 1.75 4.5s2.94 1.65 4.62 1.36c1.38-.24 2.7.3 3.49 1.41s.87 2.53.21 3.72c-.83 1.5-.91 3.26-.23 4.82s2.02 2.71 3.68 3.12c1.36.34 2.34 1.38 2.61 2.71s-.24 2.67-1.32 3.49c-1.37 1.03-2.16 2.6-2.17 4.31-.02 1.71.75 3.29 2.09 4.35 1.1.86 1.58 2.21 1.28 3.53-.29 1.33-1.3 2.34-2.62 2.65-1.67.39-3.03 1.5-3.74 3.06s-.66 3.32.14 4.83c.65 1.23.54 2.65-.26 3.74-.81 1.09-2.13 1.61-3.48 1.35-1.68-.33-3.38.14-4.66 1.27s-1.95 2.76-1.83 4.47c.1 1.38-.58 2.63-1.76 3.3s-2.61.6-3.73-.17c-1.46-.99-3.17-1.24-4.79-.73-1.63.52-2.9 1.74-3.49 3.34-.47 1.29-1.6 2.16-2.95 2.3-.12.01-.24.02-.35.02zm-7.69-7.59c.33 0 .66.02.99.06 2.71.3 5.08 1.82 6.49 4.15.03.05.11.15.25.13.16-.01.19-.12.21-.16.93-2.57 2.96-4.52 5.56-5.34s5.38-.4 7.62 1.16l-.92 1.34.93-1.33s.13.09.26.01c.14-.08.13-.19.12-.23-.19-2.74.87-5.34 2.92-7.15 2.04-1.81 4.75-2.55 7.43-2.03.04 0 .15.03.25-.1.09-.12.04-.23.02-.26-1.29-2.43-1.38-5.24-.24-7.72 1.13-2.48 3.31-4.26 5.96-4.87.04 0 .15-.04.19-.19.03-.15-.05-.22-.09-.25-2.17-1.71-3.39-4.23-3.36-6.96s1.29-5.23 3.46-6.88c.04-.03.13-.09.09-.25-.03-.15-.14-.18-.18-.19-2.68-.68-4.82-2.49-5.91-4.99-1.08-2.5-.95-5.3.37-7.68.02-.04.08-.14-.01-.27s-.2-.11-.24-.1c-2.73.47-5.42-.32-7.42-2.16-2.01-1.84-3.02-4.45-2.79-7.16 0-.06.01-.17-.12-.24996-.14-.08-.23-.02-.26 0-2.3 1.53996-5.07 1.90996-7.65 1.04996s-4.57-2.82996-5.47-5.39996c-.02-.06-.06-.17-.21-.19-.15 0-.22.08-.24.12-1.47 2.34-3.85 3.81-6.56 4.07-2.7.26-5.33-.72-7.19-2.7-.05-.06-.13-.14-.28-.09s-.17.16-.17.2c-.39 2.72-1.96 5.03996-4.33 6.37996-2.36 1.34-5.16 1.51-7.67.46-.08-.03-.18-.08-.3.03-.12.1-.08.21-.07.25.75 2.64.26 5.39-1.35 7.58s-4.1 3.48-6.82 3.55c-.09 0-.2 0-.26.15s0 .23.04.26c1.76 2.09 2.43 4.81 1.85 7.47s-2.32 4.85-4.78 6.02c-.08.04-.18.09-.18.24s.1.21.14.22c2.46 1.19 4.18 3.41 4.73 6.07s-.15 5.38-1.92 7.45c-.06.07-.13.15-.07.29s.18.15.22.15c2.73.09 5.2 1.41 6.79 3.63 1.59 2.21 2.05 4.98 1.27 7.59-.02.08-.06.18.06.29.12.1.22.06.26.05 2.53-1.03 5.33-.83 7.68.55 2.36 1.38 3.9 3.72 4.25 6.43 0 .07.02.18.17.23s.23-.03.26-.06c1.66-1.73 3.9-2.67 6.26-2.67z"/><path d="m49.79 64.7894c-13.82 0-25.07-11.25-25.07-25.07s11.25-25.07 25.07-25.07 25.07 11.25 25.07 25.07-11.25 25.07-25.07 25.07zm0-46.89c-12.03 0-21.82 9.79-21.82 21.82s9.79 21.82 21.82 21.82 21.82-9.79 21.82-21.82-9.79-21.82-21.82-21.82z"/><path d="m48.27 48.8696-8-8 2.3-2.3 5.39 5.4 10.6-13.62 2.56 1.99z"/><path d="m36.65 97.9397-.75-2.3001c-.77-2.33-1.79-4.6-2.8-6.26-3.08 1.58-6.29 2.8501-11.26 3.1301l-3.73.21 2.38-2.8701c8.48-10.23 11.68-19.11 12.67-22.46l3.12.92c-1.16 3.94-4.04 11.51-10.78 20.46 2.87-.61 5.02-1.6699 7.36-2.9399l1.23-.6601.84 1.11c1.08 1.43 2.22 3.58 3.18 5.93 4.05-4.51 7.34-11.84 8.32-15.26.67-1.94 1.42-4.2199 1.49-4.6899-.06.37.11 1.0899.81 1.4799l1.59-2.8399c1.4.79 1.02 1.86-.78 7.04-1.38 4.79-5.86 14.04-11.02 18.43l-1.84 1.57z"/><path d="m64.57 98.0603-1.86-1.75c-5.65-5.3-9.12-15.41-10.68-20.96l3.13-.88c1.3 4.61 3.97 12.53 8.06 17.61.94-2.3 2.06-4.4 3.12-5.8l.84-1.11 1.23.66c2.34 1.26 4.5 2.33 7.36 2.94-5.36-7.13-8.29-13.4-9.84-17.62l3.05-1.12c1.69 4.59 5.1 11.76 11.79 19.82l2.38 2.87-3.73-.21c-4.97-.29-8.18-1.55-11.26-3.13-1.01 1.66-2.03 3.93-2.8 6.26l-.8 2.42z"/></g></svg>