<svg fill="none" height="100" viewBox="0 0 100 100" width="100" xmlns="http://www.w3.org/2000/svg"><path d="m82.24 24.9697h-74.56996v50.35h74.56996z" fill="#fff"/><path d="m82.24 11.3203h-74.56996v13.65h74.56996z" fill="#89c32e"/><path d="m83.86 76.9502h-77.81996v-67.25h77.81996zm-74.56996-3.25h71.31996v-60.75h-71.31996z" fill="#060606"/><path d="m82.24 23.3496h-74.56996v3.25h74.56996z" fill="#060606"/><path d="m75.56 30.3701h-62.21v39.21h62.21z" fill="#f1eee0"/><g fill="#060606"><path d="m71.26 36.75h-53.49v3.25h53.49z"/><path d="m60.69 48.21h-42.92v3.25h42.92z"/><path d="m48.57 59.6104h-30.8v3.25h30.8z"/></g><path d="m96.9997 40.3574-9.3692-9.3691-7.2196 7.2195 9.3692 9.3692z" fill="#fff"/><path d="m49.44 87.9208-14.78 5.41 5.41-14.78z" fill="#fff"/><path d="m80.4154 38.2035-40.3404 40.3404 9.3691 9.3692 40.3405-40.3404z" fill="#89c32e"/><g fill="#060606"><path d="m31.9301 96.0602 6.74-18.41.25-.25 41.49-41.49 11.67 11.67-41.74 41.74zm9.54-16.62-4.08 11.16 11.16-4.08 38.94-38.94-7.07-7.07-38.94 38.94z"/><path d="m41.2172 77.406-2.2981 2.2981 9.3691 9.3692 2.2981-2.2981z"/><path d="m90.93 48.7304-2.3-2.3 6.08-6.07-7.08-7.07-6.07 6.07-2.3-2.3 8.37-8.37 11.67 11.67z"/></g></svg>