<svg fill="none" height="100" viewBox="0 0 100 100" width="100" xmlns="http://www.w3.org/2000/svg"><path d="m49.9999 91.4766c22.9072 0 41.4771-18.5699 41.4771-41.4771 0-22.9071-18.5699-41.47704-41.4771-41.47704s-41.47707 18.56994-41.47707 41.47704c0 22.9072 18.56987 41.4771 41.47707 41.4771z" fill="#f1eee0"/><path clip-rule="evenodd" d="m50 10.0459c-22.0661 0-39.9541 17.888-39.9541 39.9541s17.888 39.9541 39.9541 39.9541 39.9541-17.888 39.9541-39.9541-17.888-39.9541-39.9541-39.9541zm-43 39.9541c0-23.7482 19.2518-43 43-43s43 19.2518 43 43-19.2518 43-43 43-43-19.2518-43-43z" fill="#060606" fill-rule="evenodd"/><path d="m49.9998 67.3319c9.5716 0 17.331-7.7594 17.331-17.331s-7.7594-17.331-17.331-17.331-17.331 7.7594-17.331 17.331 7.7594 17.331 17.331 17.331z" fill="#fff"/><g clip-rule="evenodd" fill="#060606" fill-rule="evenodd"><path d="m49.9999 34.1923c-8.7305 0-15.808 7.0775-15.808 15.8081 0 8.7305 7.0775 15.808 15.808 15.808s15.808-7.0775 15.808-15.808c0-8.7306-7.0775-15.8081-15.808-15.8081zm-18.8539 15.8081c0-10.4127 8.4412-18.8539 18.8539-18.8539s18.8539 8.4412 18.8539 18.8539-8.4412 18.8539-18.8539 18.8539-18.8539-8.4412-18.8539-18.8539z"/><path d="m18.0488 25.6582 18.5873 32.7811-2.6495 1.5024-18.5874-32.7811z"/><path d="m87.685 34.1836h-37.685v-3.0459h37.685z"/><path d="m45.1749 90.5834 19.7905-35.4691 2.6598 1.4841-19.7905 35.4691z"/></g></svg>