<svg fill="none" height="100" viewBox="0 0 100 100" width="100" xmlns="http://www.w3.org/2000/svg"><path d="m59.995 69.1455h-18.1669v15.5716h18.1669z" fill="#fff"/><path d="m90.9331 12.3115h-81.32407c-.72428 0-1.31142.5872-1.31142 1.3115v54.0423c0 .7244.58714 1.3116 1.31142 1.3116h81.32407c.7243 0 1.3115-.5872 1.3115-1.3116v-54.0423c0-.7243-.5872-1.3115-1.3115-1.3115z" fill="#fff"/><path d="m90 15v51.5h-79.5v-51.5zm.932-4h-81.30913c-.69562 0-1.36275.2763-1.85463.7682-.49189.4919-.76824 1.159-.76824 1.8547v54.0386c0 .6957.27635 1.3629.76824 1.8547.49188.4919 1.15901.7682 1.85463.7682h81.30913c.6956 0 1.3627-.2763 1.8547-.7682.4918-.4918.7681-1.159.7681-1.8547v-54.0386c0-.6957-.2763-1.3628-.7681-1.8547-.492-.4919-1.1591-.7682-1.8547-.7682z" fill="#1d1d1b"/><path d="m31.7158 36.8544 2.2483-5.6205c5.6204 0 4.1215 0 5.9951-2.2481 1.4987-1.7987.6245-4.1217 0-5.0584l5.6204-1.6862c.5621.9368 2.3231 2.8102 4.871 2.8102s3.9343-1.8734 4.3091-2.8102l4.871 2.8102c-.1873 1.1241-.1498 3.747 1.4988 5.2458 1.6486 1.4987 3.9343.6245 4.8711 0l2.6229 5.9952c-1.249.6244-3.7844 2.2856-3.9343 3.9343-.1499 1.6486 2.5603 3.9343 3.9343 4.871l-2.6229 5.0584c-1.1866-.1873-3.8968-.1125-5.2457 1.6861-1.349 1.7986-.5622 4.3714 0 5.4331l-5.9952 2.0608c-.4996-.9367-2.0609-2.9226-4.3091-3.3723-2.2481-.4496-3.8093 2.0609-4.3089 3.3723l-5.2458-2.8101c.125-1.3115.1874-4.3091-.562-5.8078-.7494-1.4988-4.5588-.6246-6.3698 0l-1.4989-5.0585c.8119-.3122 2.5854-1.6111 3.1849-4.309.5996-2.6978-2.373-4.1217-3.9343-4.4963z" fill="#db3a74"/><path d="m50.4517 48.8441c4.5527 0 8.2433-3.6907 8.2433-8.2433 0-4.5528-3.6906-8.2434-8.2433-8.2434-4.5526 0-8.2432 3.6906-8.2432 8.2434 0 4.5526 3.6906 8.2433 8.2432 8.2433z" fill="#fff"/><g stroke="#1d1d1b" stroke-linecap="round" stroke-linejoin="round"><path d="m13.554 17.752h71.8891" stroke-width="1.44377"/><path d="m13.554 63.7236h71.8891" stroke-width="1.44377"/><path d="m45.9746 21.6982c.1949 1.9672 1.6113 3.5297 3.3312 3.8257 2.1207.3747 4.4063-1.2552 4.7698-3.747l6.1713 2.6641c-.6823.7972-1.0329 1.8259-.9795 2.874.0534 1.0479.5066 2.0356 1.2665 2.7594.7598.7238 1.7683 1.1287 2.8177 1.1311 1.0493.0025 2.0597-.3976 2.823-1.1179l2.5628 6.1751" stroke-width="3"/><path d="m68.8 36.4863c-1.9635.2549-3.4811 1.7161-3.7246 3.4436-.2998 2.1282 1.3865 4.3652 3.8931 4.6574l-2.4843 6.2462c-.818-.6418-1.8495-.9487-2.8854-.8585-1.036.0901-1.999.5707-2.6939 1.3442-.695.7735-1.0699 1.7823-1.049 2.8219.0209 1.0397.4361 2.0325 1.1616 2.7775l-6.0964 2.739" stroke-width="3"/><path d="m54.8606 59.6318c-.2136-1.967-1.6411-3.5146-3.3723-3.7955-2.1244-.3486-4.395 1.2889-4.7398 3.7881l-6.1938-2.6229c.7454-.792 1.1456-1.8477 1.1125-2.9347-.033-1.0871-.4965-2.1166-1.2885-2.8618-.792-.7453-1.8476-1.1455-2.9348-1.1124-1.087.0329-2.1164.4964-2.8618 1.2885l-2.6229-6.1526" stroke-width="3"/><path d="m31.9227 45.0296c1.9559-.2698 3.466-1.7423 3.6945-3.4698.2848-2.1357-1.42-4.3539-3.9268-4.6274.8094-2.0908 1.62-4.1804 2.4318-6.2686.8222.6516 1.8629.9632 2.908.8707 1.045-.0927 2.0147-.5824 2.7096-1.3684.6947-.7861 1.0617-1.8086 1.0254-2.8571-.0365-1.0485-.4735-2.0431-1.2211-2.779l6.0738-2.7878" stroke-width="3"/><path d="m50.1107 49.2003c4.7058 0 8.5205-3.8147 8.5205-8.5206 0-4.7057-3.8147-8.5205-8.5205-8.5205s-8.5206 3.8148-8.5206 8.5205c0 4.7059 3.8148 8.5206 8.5206 8.5206z" stroke-width="1.44377"/></g><path d="m41.0817 70.2021v10.1168h-5.995v7.6813h17.6107" fill="#fff"/><path d="m41.0817 70.2021v10.1168h-5.995v7.6813h17.6107" stroke="#1d1d1b" stroke-linecap="round" stroke-linejoin="round" stroke-width="4"/><path d="m59.2551 70.2021v10.1168h5.9952v7.6813h-17.6107" fill="#fff"/><path d="m59.2551 70.2021v10.1168h5.9952v7.6813h-17.6107" stroke="#1d1d1b" stroke-linecap="round" stroke-linejoin="round" stroke-width="4"/></svg>