<svg fill="none" height="100" viewBox="0 0 100 100" width="100" xmlns="http://www.w3.org/2000/svg"><path d="m27.81 73.9302h35.57l18.73 16.79v-16.79h8.69v-48.44h-62.99z" fill="#f1eee0"/><path d="m83.78 94.4501-21.03-18.85h-36.61v-51.77h66.33v51.76h-8.69v18.85zm-54.31-22.18h34.55l16.43 14.73v-14.73h8.69v-45.11h-59.67v45.1z" fill="#060606"/><path d="m80.22 63.8903h-40.11l-21.12 18.93v-18.93h-9.79v-54.61003h71.02z" fill="#fff"/><path d="m17.33 86.5501v-21h-9.8v-57.92998h74.36v57.93998h-41.14l-23.42 21zm-6.46-24.33h9.8v16.86l18.81-16.86h39.08v-51.27h-67.7v51.27z" fill="#060606"/><path d="m72.72 16.7803h-56.02v39.61h9.79v9.63l10.75-9.63h35.48z" fill="#f1eee0"/><g fill="#89c32e"><path d="m37.07 23.7297c0 2.93-2.37 5.31-5.3 5.31s-5.31-2.37-5.31-5.3 2.37-5.31 5.3-5.31h.01c2.93 0 5.3 2.37 5.3 5.3z"/><path d="m49.96 23.7297c0 2.93-2.37 5.31-5.3 5.31s-5.31-2.37-5.31-5.3 2.37-5.31 5.3-5.31h.01c2.93 0 5.3 2.37 5.3 5.3z"/><path d="m37.07 36.3996c0 2.93-2.37 5.31-5.3 5.31s-5.31-2.37-5.31-5.3 2.37-5.31 5.3-5.31h.01c2.93 0 5.3 2.37 5.3 5.3z"/><path d="m49.96 36.3996c0 2.93-2.37 5.31-5.3 5.31s-5.31-2.37-5.31-5.3 2.37-5.31 5.3-5.31h.01c2.93 0 5.3 2.37 5.3 5.3z"/><path d="m62.96 36.7199c0 2.93-2.37 5.3-5.3 5.3s-5.3-2.37-5.3-5.3 2.37-5.3 5.3-5.3 5.3 2.37 5.3 5.3z"/><path d="m49.96 49.09c0 2.93-2.37 5.31-5.3 5.31s-5.31-2.37-5.31-5.3 2.37-5.31 5.3-5.31h.01c2.93 0 5.3 2.37 5.3 5.3z"/><path d="m62.96 49.09c0 2.93-2.37 5.3-5.3 5.3s-5.3-2.37-5.3-5.3 2.37-5.3 5.3-5.3 5.3 2.37 5.3 5.3z"/></g></svg>