<svg width="100" height="100" viewBox="0 0 100 100" fill="none" xmlns="http://www.w3.org/2000/svg">
<rect width="100" height="100" fill="#6C2770"/>
<path d="M36.1379 26.1667C36.1379 32.1345 31.1724 36.9897 25.069 36.9897C18.9655 36.9897 14 32.1345 14 26.1667C14 20.1989 18.9655 15.3438 25.069 15.3438C31.1724 15.3438 36.1379 20.1989 36.1379 26.1667Z" fill="white"/>
<path d="M60.9655 26.1667C60.9655 32.1345 56 36.9897 49.8966 36.9897C43.7931 36.9897 38.8276 32.1345 38.8276 26.1667C38.8276 20.1989 43.7931 15.3438 49.8966 15.3438C56 15.3438 60.9655 20.1989 60.9655 26.1667Z" fill="white"/>
<path d="M36.1379 50.0163C36.1379 56.0094 31.1724 60.8393 25.069 60.8393C18.9655 60.8393 14 55.9841 14 50.0163C14 44.0485 18.9655 39.1934 25.069 39.1934C31.1724 39.1934 36.1379 44.0485 36.1379 50.0163Z" fill="white"/>
<path d="M60.9655 50.0163C60.9655 56.0094 56 60.8393 49.8966 60.8393C43.7931 60.8393 38.8276 55.9841 38.8276 50.0163C38.8276 44.0485 43.7931 39.1934 49.8966 39.1934C56 39.1934 60.9655 44.0485 60.9655 50.0163Z" fill="white"/>
<path d="M86 50.6433C86 56.6364 81.0345 61.4663 74.931 61.4663C68.8276 61.4663 63.8621 56.6111 63.8621 50.6433C63.8621 44.6755 68.8276 39.8203 74.931 39.8203C81.0345 39.8203 86 44.6755 86 50.6433Z" fill="white"/>
<path d="M60.9655 73.8308C60.9655 79.7986 56 84.6538 49.8966 84.6538C43.7931 84.6538 38.8276 79.7986 38.8276 73.8308C38.8276 67.863 43.7931 63.0078 49.8966 63.0078C56 63.0078 60.9655 67.863 60.9655 73.8308Z" fill="white"/>
<path d="M86 73.8308C86 79.7986 81.0345 84.6538 74.931 84.6538C68.8276 84.6538 63.8621 79.7986 63.8621 73.8308C63.8621 67.863 68.8276 63.0078 74.931 63.0078C81.0345 63.0078 86 67.863 86 73.8308Z" fill="white"/>
</svg>
