<svg width="100" height="100" viewBox="0 0 100 100" fill="none" xmlns="http://www.w3.org/2000/svg">
<rect width="100" height="100" fill="#018477"/>
<path d="M36.1379 26.1667C36.1379 32.1345 31.1724 36.9897 25.069 36.9897C18.9655 36.9897 14 32.1345 14 26.1667C14 20.1989 18.9655 15.3438 25.069 15.3438C31.1724 15.3438 36.1379 20.1989 36.1379 26.1667Z" fill="white"/>
<path d="M60.9654 26.1667C60.9654 32.1345 55.9999 36.9897 49.8965 36.9897C43.793 36.9897 38.8275 32.1345 38.8275 26.1667C38.8275 20.1989 43.793 15.3438 49.8965 15.3438C55.9999 15.3438 60.9654 20.1989 60.9654 26.1667Z" fill="white"/>
<path d="M36.1379 50.0144C36.1379 56.0075 31.1724 60.8374 25.069 60.8374C18.9655 60.8374 14 55.9822 14 50.0144C14 44.0466 18.9655 39.1914 25.069 39.1914C31.1724 39.1914 36.1379 44.0466 36.1379 50.0144Z" fill="white"/>
<path d="M60.9654 50.0144C60.9654 56.0075 55.9999 60.8374 49.8965 60.8374C43.793 60.8374 38.8275 55.9822 38.8275 50.0144C38.8275 44.0466 43.793 39.1914 49.8965 39.1914C55.9999 39.1914 60.9654 44.0466 60.9654 50.0144Z" fill="white"/>
<path d="M86 50.6413C86 56.6344 81.0345 61.4643 74.931 61.4643C68.8276 61.4643 63.8621 56.6091 63.8621 50.6413C63.8621 44.6735 68.8276 39.8184 74.931 39.8184C81.0345 39.8184 86 44.6735 86 50.6413Z" fill="white"/>
<path d="M60.9654 73.8327C60.9654 79.8006 55.9999 84.6557 49.8965 84.6557C43.793 84.6557 38.8275 79.8006 38.8275 73.8327C38.8275 67.8649 43.793 63.0098 49.8965 63.0098C55.9999 63.0098 60.9654 67.8649 60.9654 73.8327Z" fill="white"/>
<path d="M86 73.8327C86 79.8006 81.0345 84.6557 74.931 84.6557C68.8276 84.6557 63.8621 79.8006 63.8621 73.8327C63.8621 67.8649 68.8276 63.0098 74.931 63.0098C81.0345 63.0098 86 67.8649 86 73.8327Z" fill="white"/>
</svg>
