<svg fill="none" height="100" viewBox="0 0 100 100" width="100" xmlns="http://www.w3.org/2000/svg"><path d="m24.2903 58.1169-6.1165 6.1165 16.313 16.313 6.1165-6.1165z" fill="#fff"/><path d="m32.27 80.0999-6.07 11.41-2.35-8.91-9.82 1.3 1.3-8.71-8.13005-2.68 11.14005-6.34z" fill="#89c32e"/><path d="m20.08 53.7199-14.27995-6.12 22.42995-22.43h17.59z" fill="#f1eee0"/><path d="m73.26 52.46v17.59l-22.43 22.43-6.12-14.27z" fill="#f1eee0"/><path d="m71.1801 10.3602 16.9 16.9c.43-1.43.82-2.88 1.15-4.35l4.55-18.25004-18.25 4.55c-1.47.33-2.92.72-4.35 1.15004z" fill="#89c32e"/><path d="m27.75 45.2501 25.45 25.45 17.24-15.29c8.31-7.65 14.39-17.38 17.65-28.14l-16.9-16.9c-10.76 3.25-20.49 9.33-28.14 17.65l-15.29 17.24z" fill="#fff"/><path d="m46.72 31.3903-12.11 13.65 18.79 18.79 13.72-12.17c6.84-6.29 12.09-14.23 15.25-23.04l-12.55-12.55c-8.81 3.16-16.75 8.42-23.1 15.32z" fill="#f1eee0"/><path d="m20.08 53.89 24.47 24.47 8.65-7.67-25.45-25.44z" fill="#89c32e"/><path d="m70.61 40.6697c-3.55 3.55-9.3 3.55-12.85 0s-3.55-9.3 0-12.85 9.3-3.55 12.85 0 3.55 9.3 0 12.85z" fill="#fff"/><g fill="#060606"><path d="m44.48 80.5997-26.64-26.64 23.98-27.03c8.95-9.73 20.48-16.4 33.35-19.31001l20.84-5.19-5.2 20.88001c-2.9 12.83-9.57 24.36-19.28 33.29zm-22.17-26.77 22.31 22.31 24.74-21.95c9.2-8.46 15.53-19.41 18.29-31.63l3.9-15.66001-15.63 3.89001c-12.26 2.77-23.2 9.1-31.69 18.32l-21.93 24.72z"/><path d="m34.35 82.6999-18.61-18.61 8.42-8.42 18.61 18.61zm-14.02-18.61 14.02 14.02 3.82-3.82-14.02-14.02z"/><path d="m19.44 55.21-16.49005-7.06 24.60995-24.61h18.2601v3.25h-16.91l-20.26005 20.26 12.06995 5.18z"/><path d="m50.29 95.4901-7.06-16.49 2.98-1.27 5.18 12.06 20.26-20.26v-16.91h3.25v18.26z"/><path d="m29.3872 44.5886-2.2981 2.2981 24.473 24.473 2.2981-2.2981z"/><path d="m72.613 9.50757-2.2981 2.29813 16.313 16.3129 2.2981-2.2981z"/><path d="m25.69 95.9398-3.04-11.54-10.54 1.4 1.41-9.5-10.30003-3.39 14.32003-8.15 1.61 2.82-7.96 4.53 5.95 1.96-1.18 7.94 9.1-1.21 1.66 6.29 4.12-7.76 2.87 1.53z"/><path d="m64.19 44.9502c-2.74 0-5.48-1.04-7.57-3.13-4.18-4.17-4.18-10.97 0-15.14s10.97-4.17 15.14 0c4.18 4.17 4.18 10.97 0 15.14-2.09 2.09-4.83 3.13-7.57 3.13zm0-18.16c-1.91 0-3.82.73-5.27 2.18-2.91 2.91-2.91 7.64 0 10.55s7.64 2.91 10.55 0 2.91-7.64 0-10.55c-1.45-1.45-3.36-2.18-5.27-2.18z"/></g></svg>