<svg fill="none" height="100" viewBox="0 0 100 100" width="100" xmlns="http://www.w3.org/2000/svg"><path d="m57.9499 58.04-8.04-8.04-8.17 8.17c1.56.22 2.79.67 4.1 1.81 2.6 2.25 3.3 6.15 1.32 8.95-2.44 3.45-7.24 3.75-10.09.9-1.53-1.53-2.08-2.88-2.33-4.67l-8.17 8.17 23.33 23.33 23.33-23.33-7.95-7.95c3.46-.3 6.17-3.2 6.17-6.74 0-3.74-3.03-6.77-6.77-6.77-3.54 0-6.44 2.71-6.74 6.17z" fill="#fff"/><path d="m33.7201 73.1901s-.09-.09-.14-.14l-.2801.28 16.62 16.62 16.6201-16.62-4.59-4.59c-1.3-1.3-1.7301-3.26-1.1101-4.98.63-1.73 2.22-2.95 4.05-3.11 1.03-.09 1.8401-.97 1.8401-2.01 0-1.11-.9101-2.02-2.0201-2.02-1.04 0-1.9199.81-2.0099 1.84-.16 1.83-1.3801 3.42-3.1101 4.05-1.7099.62-3.6999.18-4.9799-1.11l-4.6801-4.68-.29.29c3.96 3.99 4.61 10.16 1.43 14.66-1.95 2.77-4.9899 4.52-8.3299 4.81-3.33.3-6.61-.9-9-3.28z" fill="#f1eee0"/><path d="m41.96 58.0402 8.04-8.04-8.17-8.17c-.22 1.56-.67 2.79-1.81 4.1-2.25 2.6-6.15 3.3-8.95 1.32-3.45-2.44-3.75-7.24-.9-10.09 1.53-1.53 2.88-2.08 4.67-2.33l-8.17-8.17-23.34004 23.34 23.33004 23.33 7.95-7.95c.3 3.46 3.2 6.17 6.74 6.17 3.74 0 6.77-3.03 6.77-6.77 0-3.54-2.71-6.44-6.17-6.74z" fill="#89c32e"/><path d="m58.04 41.9597-8.04 8.04 8.17 8.17c.22-1.56.67-2.79 1.81-4.1 2.25-2.6 6.15-3.3 8.95-1.32 3.45 2.44 3.75 7.24.9 10.09-1.53 1.53-2.88 2.08-4.67 2.33l8.17 8.17 23.33-23.33-23.33-23.33-7.95 7.95c-.3-3.46-3.2-6.17-6.74-6.17-3.74 0-6.77 3.03-6.77 6.77 0 3.54 2.71 6.44 6.17 6.74z" fill="#89c32e"/><path d="m41.96 41.9601 8.04 8.04 8.17-8.17c-1.56-.22-2.79-.67-4.1-1.81-2.6-2.25-3.3-6.15-1.32-8.95 2.44-3.45 7.24-3.75 10.09-.9 1.53 1.53 2.08 2.88 2.33 4.67l8.17-8.17-23.34-23.34002-23.33 23.34002 7.95 7.95c-3.46.3-6.17 3.2-6.17 6.74 0 3.74 3.03 6.77 6.77 6.77 3.54 0 6.44-2.71 6.74-6.17z" fill="#fff"/><path d="m66.1899 26.8098s.09.09.14.14l.28-.28-16.61-16.62-16.62 16.62 4.59 4.59c1.3 1.3 1.73 3.26 1.11 4.98-.63 1.73-2.22 2.95-4.05 3.11-1.03.09-1.84.97-1.84 2.01 0 1.11.91 2.02 2.02 2.02 1.04 0 1.92-.81 2.01-1.84.16-1.83 1.38-3.42 3.11-4.05 1.71-.62 3.7-.18 4.98 1.11l4.68 4.68.29-.29c-3.96-3.99-4.61-10.16-1.43-14.66 1.95-2.77 4.99-4.52 8.33-4.81 3.33-.3 6.61.9 9 3.28z" fill="#f1eee0"/><g fill="#060606"><path d="m25.52 74.4801-24.47996-24.48 25.62996-25.63 8.87 8.87c.51.52.7 1.26.49 1.96-.21.69-.78 1.2-1.48 1.34-1.07.21-2.03.59-3.22 1.79-1.04 1.04-1.56 2.48-1.44 3.94.13 1.49.88 2.79 2.13 3.67 2.08 1.47 5.29.86 7.01-1.32.6-.76.92-1.47 1.12-2.48.14-.7.65-1.27 1.34-1.48s1.44-.03 1.95.48l7.72 7.72-2.3 2.3-6.22-6.22c-.28.59-.63 1.15-1.06 1.7-2.81 3.55-7.93 4.43-11.43 1.96-2.01-1.42-3.29-3.63-3.5-6.05s.66-4.8 2.38-6.52c.88-.88 1.76-1.52 2.72-1.98l-5.07-5.07-21.04996 21.02 22.17996 22.18-2.3 2.3z"/><path d="m50 98.9598-25.63-25.63 8.87-8.87c.51-.51 1.26-.7 1.95-.49s1.2.78 1.34 1.48c.21 1.07.59 2.03 1.79 3.22 1.04 1.04 2.48 1.57 3.94 1.44 1.49-.13 2.79-.88 3.67-2.13 1.47-2.08.86-5.29-1.32-7.01-.76-.6-1.47-.92-2.48-1.12-.71-.14-1.27-.65-1.48-1.34s-.02-1.44.49-1.95l7.72-7.72 2.3 2.3-6.22 6.22c.59.28 1.15.63 1.7 1.06 3.55 2.81 4.43 7.93 1.96 11.43-1.42 2.01-3.62 3.29-6.05 3.49-2.43.21-4.8-.66-6.52-2.38-.88-.88-1.52-1.76-1.98-2.72l-5.07 5.07 21.03 21.04 22.18-22.18 2.3 2.3-24.48 24.48z"/><path d="m73.3301 75.6305-8.87-8.87c-.51-.51-.7-1.26-.49-1.95s.78-1.21 1.48-1.34c1.07-.21 2.03-.6 3.22-1.79 1.04-1.04 1.57-2.48 1.44-3.95-.13-1.49-.88-2.79-2.13-3.67-2.08-1.47-5.29-.86-7.01 1.32-.6.76-.92 1.47-1.12 2.48-.14.71-.65 1.28-1.34 1.49s-1.44.02-1.95-.49l-7.72-7.71 2.3-2.3 6.22 6.22c.28-.59.63-1.15 1.06-1.7 2.81-3.55 7.93-4.43 11.43-1.96 2.01 1.42 3.29 3.62 3.5 6.05.21 2.42-.66 4.8-2.38 6.52-.88.88-1.76 1.52-2.72 1.98l5.07 5.07 21.03-21.03-22.18-22.18 2.3-2.3 24.48 24.48-25.63 25.63z"/><path d="m51.15 51.15-2.3-2.3 6.22-6.22c-.59-.28-1.15-.63-1.7-1.06-3.55-2.81-4.43-7.93-1.96-11.43 1.42-2.01 3.62-3.29 6.05-3.5s4.8.66 6.52 2.38c.88.88 1.53 1.76 1.98 2.72l5.07-5.07-21.03-21.03996-22.18 22.18996-2.3-2.3 24.48-24.47996 25.63 25.62996-8.87 8.87c-.51.51-1.26.69-1.95.49-.69-.21-1.2-.78-1.34-1.48-.21-1.07-.6-2.03-1.79-3.22-1.04-1.04-2.48-1.57-3.95-1.44-1.49.13-2.79.88-3.67 2.13-1.46 2.08-.86 5.28 1.32 7.01.75.59 1.49.92 2.48 1.12.71.14 1.28.65 1.49 1.34s.02 1.44-.49 1.95l-7.72 7.72z"/></g></svg>