<svg fill="none" height="100" viewBox="0 0 100 100" width="100" xmlns="http://www.w3.org/2000/svg"><path d="m17.5901 20.0098 8.17 42.76h56.85l6.39-42.76z" fill="#fff"/><path d="m23.55 24.2402h60.16l-5.33 33.24h-48.87z" fill="#89c32e"/><path d="m32.66 90.5699c4.8048 0 8.7-3.8951 8.7-8.7s-3.8952-8.7-8.7-8.7c-4.8049 0-8.7 3.8951-8.7 8.7s3.8951 8.7 8.7 8.7z" fill="#fff"/><path d="m73.91 90.5699c4.8048 0 8.7-3.8951 8.7-8.7s-3.8952-8.7-8.7-8.7c-4.8049 0-8.7 3.8951-8.7 8.7s3.8951 8.7 8.7 8.7z" fill="#fff"/><path d="m73.91 86.7298c2.6842 0 4.86-2.1759 4.86-4.86s-2.1758-4.86-4.86-4.86c-2.6841 0-4.86 2.1759-4.86 4.86s2.1759 4.86 4.86 4.86z" fill="#f1eee0"/><path d="m32.66 86.7298c2.6842 0 4.8601-2.1759 4.8601-4.86s-2.1759-4.86-4.8601-4.86c-2.6841 0-4.86 2.1759-4.86 4.86s2.1759 4.86 4.86 4.86z" fill="#f1eee0"/><g fill="#060606"><path d="m32.6601 92.1996c-5.69 0-10.32-4.63-10.32-10.32s4.63-10.32 10.32-10.32 10.32 4.63 10.32 10.32-4.63 10.32-10.32 10.32zm0-17.4c-3.9 0-7.07 3.17-7.07 7.07s3.17 7.07 7.07 7.07 7.07-3.17 7.07-7.07-3.17-7.07-7.07-7.07z"/><path d="m73.9101 92.1996c-5.69 0-10.32-4.63-10.32-10.32s4.63-10.32 10.32-10.32 10.32 4.63 10.32 10.32-4.63 10.32-10.32 10.32zm0-17.4c-3.9 0-7.07 3.17-7.07 7.07s3.17 7.07 7.07 7.07 7.07-3.17 7.07-7.07-3.17-7.07-7.07-7.07z"/><path d="m27.98 76.0403c-.76 0-1.45-.54-1.59-1.32l-11.25-58.87c-.64-2.8-3.13-4.79-6.05996-4.79h-3.67c-.9 0-1.62-.73-1.62-1.61999 0-.89.73-1.62 1.62-1.62h3.67c4.44996 0 8.24996 3.02999 9.23996 7.37999l11.26 58.93c.17.88-.41 1.73-1.29 1.9-.1.02-.21.03-.31.03z"/><path d="m65.4799 79.8503h-24.92c-.9 0-1.62-.7299-1.62-1.6199s.73-1.62 1.62-1.62h24.92c.9 0 1.62.73 1.62 1.62s-.73 1.6199-1.62 1.6199z"/><path d="m82.6101 64.3904h-56.34c-.9 0-1.62-.73-1.62-1.62s.73-1.62 1.62-1.62h54.95l5.9-39.51h-68.42c-.9 0-1.62-.73-1.62-1.62s.73-1.62 1.62-1.62h70.3c.47 0 .92.21 1.23.56.31.36.45.83.38 1.3l-6.39 42.76c-.12.8-.8 1.38-1.61 1.38z"/><path d="m35.98 54.9998c-.81 0-1.51-.6-1.61-1.42l-3.17-25.31c-.11-.89.52-1.7 1.41-1.81.88-.12 1.7.52 1.81 1.41l3.17 25.31c.11.89-.52 1.7-1.41 1.81-.07 0-.14.01-.2.01z"/><path d="m58.92 55.0004c-.9 0-1.62-.73-1.62-1.62v-25.32c0-.9.73-1.62 1.62-1.62s1.6201.73 1.6201 1.62v25.31c0 .9-.7301 1.62-1.6201 1.62z"/><path d="m70.75 54.9996s-.09 0-.14 0c-.89-.07-1.56-.86-1.48-1.75l2.12-25.31c.07-.89.87-1.56 1.75-1.48.89.07 1.56.86 1.48 1.75l-2.12 25.31c-.07.85-.78 1.49-1.62 1.49z"/><path d="m47.4499 55.0001c-.87 0-1.59-.68-1.62-1.56l-1.06-25.31c-.04-.9.66-1.65 1.56-1.69.92-.04 1.65.66 1.69 1.56l1.06 25.31c.04.9-.66 1.65-1.56 1.69-.02 0-.05 0-.07 0z"/></g></svg>