<svg fill="none" height="100" viewBox="0 0 100 100" width="100" xmlns="http://www.w3.org/2000/svg"><path d="m76.42 27.7303v-9.41h-7.09v60.38l6.99.08h.76c4.27-.75 6.76-4.49 6.76-8.97v-42.09h-7.43z" fill="#f1eee0"/><path d="m69.1199 18.7191v-8.18h-60.67996v58.54c0 5.95 2.15996 9.45 8.09996 9.45l52.57.57v-60.38z" fill="#fff"/><path d="m18.15 49.2804h21.34v-28.38h-21.34z" fill="#89c32e"/><g fill="#060606"><path d="m58.96 19.5605h-12.81v3.25h12.81z"/><path d="m58.96 29.0215h-12.81v3.25h12.81z"/><path d="m58.96 38.4805h-12.81v3.25h12.81z"/><path d="m58.96 47.9414h-12.81v3.25h12.81z"/><path d="m47.51 57.4004h-30.96v3.25h30.96z"/><path d="m38.16 66.8496h-21.61v3.25h21.61z"/><path d="m77.9 68.4801h-3.25v-47.65h-5.52v-3.25h8.77z"/><path d="m76.28 80.4392h-59.72c-5.37 0-9.73004-4.36-9.73004-9.73v-61.50998h63.92004v62.48998c0 3.04 2.47 5.5 5.5 5.5s5.5-2.47 5.5-5.5v-41.77h-5.52v-3.25h8.77v45.02c0 4.82-3.92 8.75-8.74 8.75zm-66.2-67.99v58.27c0 3.57 2.91 6.48 6.48 6.48h52.9c-1.22-1.5-1.95-3.42-1.95-5.5v-59.25z"/><path d="m41.13 51.1905h-24.6v-31.63h24.59v31.63zm-21.34-3.25h18.09v-25.13h-18.1v25.13z"/></g><path d="m95.6444 37.603-9.6167-9.6167-7.4105 7.4105 9.6167 9.6167z" fill="#fff"/><path d="m46.8399 86.4091-15.17 5.55 5.55-15.17z" fill="#fff"/><path d="m78.6183 35.3892-41.3941 41.394 9.6167 9.6167 41.394-41.3941z" fill="#89c32e"/><path d="m28.9399 94.6894 6.88-18.79.25-.25 42.54-42.54 11.91 11.91-42.79 42.8-18.79 6.88zm9.69-17-4.23 11.54 11.54-4.23 39.99-39.99-7.32-7.32-39.99 39.99z" fill="#060606"/><path d="m38.3738 75.6394-2.2981 2.2981 9.6166 9.6167 2.2981-2.2981z" fill="#060606"/><path d="m89.38 46.1595-2.3-2.3 6.26-6.26-7.31-7.31-6.26 6.26-2.3-2.3 8.56-8.56 11.91 11.91z" fill="#060606"/></svg>