<svg fill="none" height="100" viewBox="0 0 100 100" width="100" xmlns="http://www.w3.org/2000/svg"><path d="m83.2299 25.6699h-77.78996v53.28h77.78996z" fill="#fff"/><path d="m83.49 11.1396h-78.40003v14.54h78.40003z" fill="#89c32e"/><path d="m85.12 80.3398h-81.65003v-70.83003h81.65003zm-78.40003-3.25h75.15003v-64.33h-75.15003z" fill="#060606"/><path d="m82.5999 24.0498h-77.15996v3.25h77.15996z" fill="#060606"/><path d="m22.59 5.36035h-3.25v11.55005h3.25z" fill="#060606"/><path d="m68.3 5.36035h-3.25v11.55005h3.25z" fill="#060606"/><g fill="#f1eee0"><path d="m74.83 34.8896h-8.62v8.28h8.62z"/><path d="m61.72 34.8896h-8.62v8.28h8.62z"/><path d="m48.6 34.8896h-8.62v8.28h8.62z"/><path d="m48.6 47.8799h-8.62v8.28h8.62z"/><path d="m61.72 47.8799h-8.62v8.28h8.62z"/><path d="m74.83 47.8799h-8.62v8.28h8.62z"/><path d="m48.6 60.8604h-8.62v8.28h8.62z"/><path d="m61.72 60.8604h-8.62v8.28h8.62z"/><path d="m74.83 60.8604h-8.62v8.28h8.62z"/></g><path d="m35.49 34.8896h-8.62v8.28h8.62z" fill="#89c32e"/><g fill="#f1eee0"><path d="m35.49 47.8799h-8.62v8.28h8.62z"/><path d="m35.49 60.8604h-8.62v8.28h8.62z"/><path d="m22.37 34.8896h-8.62v8.28h8.62z"/><path d="m22.37 47.8799h-8.62v8.28h8.62z"/><path d="m22.37 60.8594h-8.62v8.28h8.62z"/></g><path d="m67.75 44.3297c.52-1.04 1.59-1.6901 2.77-1.6901s2.25.6601 2.77 1.6901l6.31 12.5799 14.11 2.02c1.97.2801 3.38 2.39 2.25 4.67l-10.74 10.3001 2.41 13.82c.34 1.93-1.26 3.9-3.83 3.54l-13.28-6.8701-13.28 6.8701c-2.56.3499-4.16-1.61-3.83-3.54l2.41-13.82-10.74-10.3001c-1.13-2.29.28-4.3899 2.25-4.67l14.11-2.02z" fill="#fff"/><path d="m80.1 72.2204 2.26 12.96-11.84-6.12-11.84 6.12 2.26-12.96-9.48-9.09 13.11-1.87 5.95-11.86 5.95 11.86 13.11 1.87z" fill="#89c32e"/><path d="m56.67 92.9298c-1.4 0-2.69-.52-3.61-1.47-1.03-1.06-1.49-2.56-1.23-4.01l2.26-12.97-10.32-9.9-.13-.26c-.75-1.51-.76-3.17-.03-4.54.7-1.33 2.01-2.25 3.51-2.46l13.27-1.9 5.93-11.82c.8-1.6 2.42-2.59 4.22-2.59s3.4201.99 4.22 2.59l5.93 11.82 13.27 1.9c1.5.21 2.81 1.13 3.51 2.46.72 1.38.71 3.03-.03 4.54l-.13.26-10.32 9.9 2.26 12.97c.25 1.45-.21 2.95-1.23 4.01-1.1 1.14-2.71 1.65-4.41 1.42l-.28-.04-12.7799-6.61-12.7801 6.61-.28.04c-.27.04-.54.06-.8.06zm-10.22-30.28 11.14 10.68-2.56 14.68c-.08.43.06.88.37 1.2.33.34.79.5 1.38.48l13.75-7.11 13.75 7.11c.58.02 1.06-.14 1.38-.48.3101-.32.45-.77.37-1.2l-2.56-14.68 11.13-10.68c.19-.5.18-.96-.03-1.36-.21-.41-.6199-.69-1.09-.76l-14.95-2.14-6.69-13.34c-.24-.48-.76-.8-1.32-.8s-1.08.31-1.32.8l-6.69 13.34-14.95 2.14c-.47.07-.88.35-1.09.76-.21.39-.22.86-.03 1.36z" fill="#060606"/></svg>