<svg fill="none" height="100" viewBox="0 0 100 100" width="100" xmlns="http://www.w3.org/2000/svg"><path d="m86.19 19.2695h-72.36v61.54h72.36z" fill="#f1eee0"/><path d="m87.86 82.4796h-75.7v-64.88h75.7zm-72.36-3.33h69.02v-58.21h-69.02z" fill="#060606"/><path d="m79.35 25.1104h-72.36001v48.32h72.36001z" fill="#fff"/><path d="m81.02 75.1004h-75.68998v-51.66h75.68998zm-72.35998-3.33h69.02998v-44.99h-69.02998z" fill="#060606"/><path d="m79.35 11.5h-72.36001v13.61h72.36001z" fill="#89c32e"/><g fill="#060606"><path d="m81.02 26.7801h-75.68998v-16.95002h75.68998zm-72.35998-3.34h69.02998v-10.27h-69.02998v10.28z"/><path d="m24.52 33.8604h-9.43v3.3299h9.43z"/><path d="m40.1 33.8604h-9.43v3.3299h9.43z"/><path d="m55.68 33.8604h-9.43v3.3299h9.43z"/><path d="m71.25 33.8604h-9.43v3.3299h9.43z"/><path d="m24.52 43.0195h-9.43v3.33h9.43z"/><path d="m40.1 43.0195h-9.43v3.33h9.43z"/><path d="m55.68 43.0195h-9.43v3.33h9.43z"/><path d="m71.25 43.0195h-9.43v3.33h9.43z"/><path d="m24.52 52.1904h-9.43v3.33h9.43z"/><path d="m40.1 52.1904h-9.43v3.33h9.43z"/><path d="m55.68 52.1904h-9.43v3.33h9.43z"/><path d="m71.25 52.1904h-9.43v3.33h9.43z"/><path d="m24.52 61.3496h-9.43v3.33h9.43z"/><path d="m40.1 61.3496h-9.43v3.33h9.43z"/><path d="m55.68 61.3496h-9.43v3.33h9.43z"/><path d="m71.25 61.3496h-9.43v3.33h9.43z"/><path d="m30.54 17.6001c-.1-.28-.37-.46-.63-.56-.17-.06-.34-.1-.52-.14-.19-.05-.39-.1-.58-.14-.18-.02-.36-.05-.54-.06-.36-.03-.72-.06-1.07-.08-.36-.03-.72-.04-1.07-.07-.47-.03-.94-.02-1.41 0l-2.16.05c-.68.02-1.35.02-2.03.1-.43.04-.86.13-1.28.23-.29-.2-.62-.34-.97-.39-.54-.08-1.05.08-1.57.2-.78.19-1.56.4-2.33.61-.21.06-.46.23-.52.45-.03.09-.04.19-.03.29s.04.19.09.28c.1.2.26.37.46.49l.28.13c.19.07.39.09.58.08.53-.09 1.05-.17 1.59-.22.18-.02.37-.03.55-.05.05.07.1.14.16.2.31.29.71.47 1.13.52.19.02.38.02.57 0 .18-.03.36-.07.53-.12.1-.03.19-.07.28-.11.17-.06.34-.1.51-.14.45-.07.91-.12 1.37-.12.55-.01 1.09-.02 1.64-.03l1.7-.04.83-.02c.29 0 .57-.06.86-.08.75-.08 1.51-.17 2.25-.3.13-.02.25-.04.37-.08l.2-.06c.18-.06.35-.12.52-.2.1-.06.18-.15.22-.26s.04-.23 0-.34z"/><path d="m29.4 19.5205-.13.02-.18.03z"/><path d="m29.27 19.5405.09-.02s-.09.01-.13.02c-.03 0-.07.02-.1.02z"/><path d="m29.3 17.8704s.06.02.09.02c.06.02.12.03.18.04l-.27-.07z"/><path d="m71.9 16.9604c-.71-.09-1.43-.17-2.14-.2-.72-.03-1.42-.08-2.13-.09-1.42-.02-2.84-.03-4.27-.04h-1.19l-.58-.02c-.14 0-.29 0-.43.02-.16.02-.32.08-.45.18-.09.08-.17.17-.24.27l.17-.19-.05.05c-.12.11-.21.25-.26.4-.04.13-.06.27-.05.41.01.34.13.72.38.96.1.1199.22.23.35.32.22.14.48.22.74.22h.54l1.06-.01 2.14-.02 2.14-.02c.71 0 1.43-.05 2.14-.08.8-.03 1.6-.11 2.4-.21.1.01.2-.02.28-.08.09-.04.17-.11.21-.2.11-.21.16-.45.12-.68-.08-.47-.37-.95-.88-1.01z"/></g><path d="m73.5 91.8604c11.863 0 21.48-9.6169 21.48-21.48s-9.617-21.48-21.48-21.48c-11.8631 0-21.48 9.6169-21.48 21.48s9.6169 21.48 21.48 21.48z" fill="#89c32e"/><path d="m73.5 93.5305c-12.76 0-23.15-10.38-23.15-23.15s10.38-23.15 23.15-23.15 23.15 10.38 23.15 23.15-10.38 23.15-23.15 23.15zm0-42.96c-10.93 0-19.81 8.89-19.81 19.81s8.89 19.81 19.81 19.81 19.81-8.89 19.81-19.81-8.89-19.81-19.81-19.81z" fill="#060606"/><path d="m63.8 68.66c2.93 1.8 6.95 6.07 6.95 6.07 4.04-5.14 7.73-8.93 13.27-12.48-2.94 5.89-10.39 13.69-12.55 16-.26.28-.7.29-.97.02-2.01-1.93-4.99-5.02-6.84-7.1-1.01-1.13-.84-3.11.14-2.51z" fill="#fff"/></svg>