<svg fill="none" height="32" viewBox="0 0 32 32" width="32" xmlns="http://www.w3.org/2000/svg"><path d="m0 0h32v32h-32z" fill="#fff"/><path d="m8.89923 23.6571h11.38237l5.9936 5.3728v-5.3728h2.7808v-15.50085h-20.15677z" fill="#f1eee0"/><path d="m26.8096 30.2234-6.7296-6.032h-11.71519v-16.5664h21.22559v16.5632h-2.7808v6.032zm-17.37919-7.0976h11.05599l5.2576 4.7136v-4.7136h2.7808v-14.4352h-19.09439v14.432z" fill="#060606"/><path d="m25.6704 20.4449h-12.8352l-6.75837 6.0576v-6.0576h-3.1328v-17.47517h22.72637z" fill="#fff"/><path d="m5.54561 27.6961v-6.72h-3.136v-18.53762h23.79519v18.54082h-13.1648l-7.49439 6.72zm-2.0672-7.7856h3.136v5.3952l6.01919-5.3952h12.5056v-16.40642h-21.66399v16.40642z" fill="#060606"/><path d="m23.2704 5.37012h-17.92641v12.67518h3.1328v3.0816l3.44001-3.0816h11.3536z" fill="#89c32e"/><path d="m13.555 13.448h1.7207l.0156-.4068c.047-.7195.4224-1.1419 1.0794-1.6112 1.0481-.7352 1.58-1.53302 1.58-2.65932 0-1.54866-1.142-2.6906-3.4728-2.6906-1.9241 0-3.3945 1.18887-3.5979 2.81575l.1408.20336 1.7677.26593c.0625-.84472.7039-1.51738 1.6894-1.51738.8917 0 1.3922.50058 1.3922 1.04809s-.2033.89165-.876 1.39227c-.7978.61-1.533 1.1732-1.4548 2.7688zm.8603 3.7386c.7196 0 1.3297-.61 1.3297-1.3296 0-.7352-.6101-1.3453-1.3297-1.3453-.7195 0-1.3296.6101-1.3296 1.3453 0 .7196.6101 1.3296 1.3296 1.3296z" fill="#fff"/></svg>