<svg fill="none" height="960" viewBox="0 0 1600 960" width="1600" xmlns="http://www.w3.org/2000/svg" xmlns:xlink="http://www.w3.org/1999/xlink"><linearGradient id="a"><stop offset="0" stop-color="#f1eee0" stop-opacity="0"/><stop offset="1" stop-color="#ded7b8"/></linearGradient><linearGradient id="b" gradientUnits="userSpaceOnUse" x1="-271.78" x2="556.9" xlink:href="#a" y1="-166.28" y2="453.9"/><linearGradient id="c" gradientUnits="userSpaceOnUse" x1="1121.5" x2="477.06" xlink:href="#a" y1="1144.3" y2="772.23"/><linearGradient id="d" gradientUnits="userSpaceOnUse" x1="1903.98" x2="1135.79" xlink:href="#a" y1="138.43" y2="581.95"/><clipPath id="e"><path d="m0 0h1600v960h-1600z"/></clipPath><clipPath id="f"><path d="m-366-367h2329.33v1693.26h-2329.33z"/></clipPath><g clip-path="url(#e)"><path d="m0 0h1600v960h-1600z" fill="#f1eee0"/><g clip-path="url(#f)"><path d="m1639.53-40.77h-1920v1080h1920z" fill="#f1eee0"/><path d="m151.5 668c285.807 0 517.5-231.693 517.5-517.5s-231.693-517.5-517.5-517.5-517.5 231.693-517.5 517.5 231.693 517.5 517.5 517.5z" fill="url(#b)"/><path d="m792.33 1326.26c205.455 0 372.01-166.55 372.01-372.01 0-205.455-166.555-372.01-372.01-372.01s-372.01 166.555-372.01 372.01c0 205.46 166.555 372.01 372.01 372.01z" fill="url(#c)"/><path d="m1519.88 803.63c244.91 0 443.44-198.535 443.44-443.44s-198.53-443.44-443.44-443.44-443.44 198.535-443.44 443.44 198.53 443.44 443.44 443.44z" fill="url(#d)"/></g></g></svg>