<svg fill="none" height="100" viewBox="0 0 100 100" width="100" xmlns="http://www.w3.org/2000/svg"><path d="m16.2174 21.782c4.5398-.3359 9.1044-.0684 13.5732.7953 4.9766.9645 7.1139 3.507 12.8523 4.3148 3.2423.4572 5.6975.238 8.1842 0 4.4384-.4227 11.5144-1.0082 19.9977-4.9535-.1605 13.3169-.3148 25.9889-.4816 39.309-6.67 3.6103-12.1095 4.3838-15.6633 4.4745-9.7078.2692-14.6843-4.2053-28.0151-5.5923-3.7894-.3919-7.6049-.4715-11.4075-.238" fill="#f4b63d"/><path d="m16.2174 21.782c4.5398-.3359 9.1044-.0684 13.5732.7953 4.9766.9645 7.1139 3.507 12.8523 4.3148 3.2423.4572 5.6975.238 8.1842 0 4.4384-.4227 11.5144-1.0082 19.9977-4.9535-.1605 13.3169-.3148 25.9889-.4816 39.309-6.67 3.6103-12.1095 4.3838-15.6633 4.4745-9.7078.2692-14.6843-4.2053-28.0151-5.5923-3.7894-.3919-7.6049-.4715-11.4075-.238" stroke="#1d1d1b" stroke-linecap="square" stroke-linejoin="round" stroke-miterlimit="10" stroke-width="4"/><path d="m15.2573 18.6045v70.1076" stroke="#1d1d1b" stroke-linecap="round" stroke-linejoin="round" stroke-width="4"/><g fill="#1d1d1b"><path d="m85.2718 34.4157c-3.0281-.5329-6.0385-1.115-9.1027-1.4037-.1977-.0286-.3996-.0059-.5862.0659-.1862.0714-.3505.1897-.4772.3428-.0508.0596-.0848.1314-.0987.2083-.0138.0768-.0072.156.0196.2296.0271.0733.0728.1385.1333.1886.0602.0503.133.084.2106.0974 1.5029.3998 3.0014.7507 4.5359 1.0218l4.5985.8126c.2738.0477.5554.0137.8097-.098.2539-.1114.4688-.2952.6168-.5281.238-.4886-.1839-.8529-.6415-.9372z"/><path d="m65.5909 11.6674c-.3102-.3765 0 0 .0594.0878.0593.0879.165.2196.2443.3326.158.2259.3098.4581.455.6966l.2111.3577c.0664.1192.1323.4016 0 0 .1058.2544.2293.5017.37.7405.2129.4715.4001.9532.5608 1.4433.0527.1632.0394.1255 0-.1067 0 .0691 0 .1318.0527.2008l.1978.6903c-.1319-.4518 0 0 0 .1067s.0664.2699.0991.4079c.0425.3105.1766.6033.3869.8443.2102.241.4882.4205.8011.5175.6006.1067.9901-.4456.9702-.979-.1549-2.7682-1.2349-5.4172-3.0819-7.56179-.0965-.1372-.227-.24967-.3802-.32744-.1531-.07778-.324-.11847-.4975-.11847-.1739 0-.3447.04069-.4979.11847-.1531.07777-.2837.19024-.3802.32744-.1589.3735-.2018.78269-.1235 1.17879.0784.396.2749.7623.5657 1.0552z"/><path d="m84.0878 19.1136-4.0454 2.7425c-1.3458.9055-2.5773 1.9404-3.8471 2.9568-.6938.5471.6367 1.46 1.2545 1.1089 1.4335-.8279 2.89-1.6115 4.2589-2.5392l4.0492-2.7499c.4613-.3142.1792-.9536-.1489-1.2493-.3278-.2957-1.0369-.5544-1.502-.2402z"/></g></svg>