<svg fill="none" height="100" viewBox="0 0 100 100" width="100" xmlns="http://www.w3.org/2000/svg"><path d="m14.2903 48.7325c-2.9325 18.9207 10.0285 36.6361 28.9492 39.5686s36.6361-10.0285 39.5686-28.9492c2.9324-18.9207-10.0286-36.6361-28.9492-39.5686-18.9207-2.9324-36.6361 10.0286-39.5686 28.9492z" fill="#fff" stroke="#060606" stroke-linecap="round" stroke-miterlimit="10" stroke-width="3.33333"/><path d="m23.357 50.1375c-2.1563 13.9132 7.3745 26.9402 21.2877 29.0965 13.9133 2.1564 26.9402-7.3744 29.0966-21.2876 2.1564-13.9133-7.3744-26.9403-21.2877-29.0966-13.9132-2.1564-26.9402 7.3744-29.0966 21.2877z" fill="#89c32e" stroke="#060606" stroke-linecap="round" stroke-miterlimit="10" stroke-width="3.33333"/><path d="m33.6483 41.8759 1.4175 2.85c.4717.9492.8733 1.93 1.2925 2.9033.4192.9734.8383 1.9459 1.2575 2.9192.4183.9708.88 1.9333 1.2525 2.9225l-.1717-.4583c.515 1.4 1.0309 2.8008 1.545 4.2008l-.2058-.5617c.6975 1.9017 1.395 3.8034 2.0917 5.705l-.255-.7133c.3233 1.0692.9 2.0675 1.3908 3.0683.4917 1.0017 1.7525 1.4742 2.7933 1.5192.6442.0225 1.265-.0875 1.8617-.3317.5483-.2241 1.0208-.555 1.4167-.995 2.6625-3.8841 5.3791-7.7316 8.1233-11.5575 2.745-3.8266 5.5391-7.6175 8.3833-11.3716 2.8442-3.7534 5.7375-7.47 8.6792-11.1475s5.8983-7.34 8.9083-10.9592 6.0667-7.1975 9.17-10.73499c.3759-.42917.7534-.85667 1.1309-1.28417.4808-.54417.7816-1.325.6508-2.0575s-.6825-1.39167-1.3208-1.70667c-1.55-.76416-3.5834-.44916-4.7617.8475-3.1692 3.48834-6.2925 7.01753-9.37 10.58753s-6.12 7.1666-9.075 10.8358c-2.9533 3.6683-5.8592 7.375-8.715 11.1192-2.8559 3.7441-5.6633 7.5266-8.42 11.345-2.7575 3.8191-5.4483 7.6833-8.0842 11.5866-.4691.6942-.9358 1.3892-1.4033 2.085l6.5183-.4708c-.365-.7242-.6966-1.4792-1.0991-2.1833-.4025-.7042-.8909-1.3842-1.3325-2.0709-.8684-1.3508-1.7359-2.7025-2.6034-4.0533-.4341-.6767-.8708-1.3517-1.3025-2.03-.4316-.6783-.8325-1.4558-1.2441-2.1817-.7884-1.3908-1.5767-2.7808-2.3659-4.1716-.8991-1.5867-1.6966-3.22-2.5083-4.8525-.1758-.3534-.6933-.5775-1.0458-.6559-.4725-.105-1.0875-.0583-1.5342.1309-.775.3291-1.5083 1.0391-1.0692 1.9233z" fill="#060606"/></svg>