<svg fill="none" height="100" viewBox="0 0 100 100" width="100" xmlns="http://www.w3.org/2000/svg"><path d="m83.6599 24.6602h-67.32l-10.44 10.44v56.48h88.2v-56.48z" fill="#f1eee0"/><path d="m83.51 37.7695h-67.8v53.81h67.8z" fill="#fff"/><path d="m66.4899 91.5795v-13.4c5.55-2.39 9.43-7.91 9.43-14.33s-3.89-11.94-9.43-14.33v15.29l-6.1799 4.08-6.18-4.08v-15.29c-5.55 2.39-9.43 7.91-9.43 14.33s3.89 11.94 9.43 14.33v13.4" fill="#89c32e"/><g fill="#060606"><path d="m69.2499 26.2798c-.9 0-1.62-.73-1.62-1.62v-13.61h-35.25v13.61c0 .9-.73 1.62-1.62 1.62s-1.62-.73-1.62-1.62v-15.24c0-.9.73-1.62 1.62-1.62h38.5c.9 0 1.62.73 1.62 1.62v15.23c0 .9-.73 1.62-1.62 1.62z"/><path d="m94.1 93.2003h-88.19997c-.9 0-1.62-.73-1.62-1.62v-56.48c0-.43.17-.84.48-1.15l10.43997-10.44c.3-.3.72-.48 1.15-.48h67.31c.43 0 .84.17 1.15.48l10.44 10.44c.3.3.48.72.48 1.15v56.48c0 .9-.73 1.62-1.62 1.62zm-86.56997-3.25h84.93997v-54.18l-9.49-9.49h-65.97l-9.48997 9.49v54.18z"/><path d="m83.5101 93.2004c-.9 0-1.62-.73-1.62-1.62v-52.19h-64.56v52.19c0 .9-.73 1.62-1.62 1.62s-1.62-.73-1.62-1.62v-53.81c0-.9.73-1.62 1.62-1.62h67.8c.9 0 1.62.73 1.62 1.62v53.81c0 .9-.73 1.62-1.62 1.62z"/><path d="m41.9101 49.1902h-18.22c-.9 0-1.62-.73-1.62-1.62s.73-1.62 1.62-1.62h18.21c.9 0 1.62.73 1.62 1.62s-.73 1.62-1.62 1.62z"/><path d="m38.0001 57.6003h-14.31c-.9 0-1.62-.7299-1.62-1.6199s.73-1.62 1.62-1.62h14.31c.9 0 1.62.73 1.62 1.62s-.73 1.6199-1.62 1.6199z"/><path d="m36.8201 66.0105h-13.13c-.9 0-1.62-.73-1.62-1.62s.73-1.62 1.62-1.62h13.13c.9 0 1.62.73 1.62 1.62s-.73 1.62-1.62 1.62z"/><path d="m38.7101 74.4099h-15.02c-.9 0-1.62-.73-1.62-1.62s.73-1.62 1.62-1.62h15.02c.9 0 1.62.73 1.62 1.62s-.73 1.62-1.62 1.62z"/><path d="m42.5001 82.8201h-18.81c-.9 0-1.62-.73-1.62-1.62s.73-1.62 1.62-1.62h18.81c.9 0 1.62.73 1.62 1.62s-.73 1.62-1.62 1.62z"/><path d="m66.4901 93.2004c-.9 0-1.62-.73-1.62-1.62v-13.4c0-.65.39-1.23.98-1.49 5.13-2.21 8.45-7.25 8.45-12.84 0-4.71-2.36-9.04-6.18-11.6v12.56c0 .55-.27 1.05-.73 1.36l-6.18 4.08c-.54.36-1.25.36-1.79 0l-6.18-4.08c-.46-.3-.73-.81-.73-1.36v-12.56c-3.82 2.57-6.18 6.89-6.18 11.6 0 5.59 3.32 10.63 8.45 12.84.6.26.98.84.98 1.49v13.4c0 .9-.73 1.62-1.62 1.62s-1.62-.73-1.62-1.62v-12.36c-5.76-2.93-9.43-8.84-9.43-15.36 0-6.88 4.09-13.1 10.41-15.83.5-.22 1.08-.17 1.54.13s.73.81.73 1.36v14.42l4.55 3.01 4.55-3.01v-14.42c0-.55.27-1.06.73-1.36s1.04-.35 1.54-.13c6.33 2.73 10.41 8.94 10.41 15.83 0 6.52-3.67 12.44-9.43 15.36v12.36c0 .9-.73 1.62-1.62 1.62z"/></g></svg>