<svg fill="none" height="100" viewBox="0 0 100 100" width="100" xmlns="http://www.w3.org/2000/svg"><path d="m87.98 52.6496c9.04-9.04 9.19-23.69.32-32.56-8.87-8.86-23.52-8.72-32.56.32l-5.6 5.57-5.56-5.57c-9.04-9.04-23.69-9.19-32.56-.32-8.85996 8.87-8.71996 23.52.32 32.56l37.82 37.77 37.83-37.77z" fill="#fff"/><path d="m83.9 24.3696c-6.55-6.55-17.35-6.4-24.08.32l-9.86 9.8-9.79-9.8c-3.25-3.25-7.57-5.07-12.16-5.12-.06 0-.12 0-.18 0-4.48 0-8.64 1.7-11.73 4.8-6.54996 6.55-6.39996 17.35.32 24.08l33.57 33.53 33.59-33.53c6.72-6.73 6.87-17.52.32-24.07z" fill="#f1eee0"/><path d="m18.26 46.5801c-5.71-5.71-5.86-14.87-.32-20.41 1.35-1.35 2.94-2.39 4.72-3.09l1.19 3.03c-1.36.53-2.58 1.33-3.61 2.36-4.27 4.27-4.12 11.37.32 15.81z" fill="#060606"/><path d="m49.99 92.7096-38.96-38.91c-9.69997-9.7-9.83997-25.33-.32-34.86 9.52-9.52001 25.16-9.38001 34.86.32l4.42 4.42 4.45-4.43c9.7-9.69001 25.33-9.84001 34.86-.32 9.52 9.52 9.38 25.16-.32 34.86l-38.98 38.91zm-22.15-77.57c-5.4 0-10.76 2.03-14.83 6.1-8.24997 8.26-8.10997 21.83.32 30.26l36.67 36.62 36.68-36.62c8.43-8.43 8.58-22.01.32-30.26-8.25-8.25-21.83-8.11-30.26.32l-6.76 6.71-6.71-6.71c-4.27-4.27-9.87-6.42-15.43-6.42z" fill="#060606"/><path d="m66.39 46.0995h-11.07v-11.08h-10.33v11.08h-11.07v10.32h11.07v11.07h10.33v-11.07h11.07z" fill="#89c32e"/><path d="m56.94 69.1202h-13.57v-11.07h-11.08v-13.57h11.08v-11.07h13.57v11.07h11.07v13.57h-11.07zm-10.32-3.25h7.07v-11.07h11.07v-7.07h-11.07v-11.07h-7.07v11.07h-11.08v7.07h11.08z" fill="#060606"/></svg>