<svg fill="none" height="100" viewBox="0 0 100 100" width="100" xmlns="http://www.w3.org/2000/svg"><path d="m37.15 7.66016c10.08 0 18.26 8.18004 18.26 18.26004v26.06c0 5.41-4.39 9.81-9.81 9.81h-16.91c-5.41 0-9.81-4.39-9.81-9.81v-26.05c0-10.08 8.18-18.26004 18.26-18.26004z" fill="#000"/><path clip-rule="evenodd" d="m36.477 6.03516h.673c10.9775 0 19.885 8.90754 19.885 19.88504v26.06c0 6.3063-5.1165 11.435-11.435 11.435h-16.91c-6.3064 0-11.435-5.1165-11.435-11.435v-26.05c0-10.7484 8.5396-19.51231 19.2004-19.87346zm1.2548 3.26h-.5918c-9.1825 0-16.635 7.45244-16.635 16.63504v26.05c0 4.5214 3.6714 8.185 8.185 8.185h16.91c4.5215 0 8.185-3.6714 8.185-8.185v-26.06c0-8.9878-7.1397-16.31818-16.0532-16.62504z" fill="#000" fill-rule="evenodd"/><path clip-rule="evenodd" d="m49.4929 48.5304c.1657-.8821 1.0151-1.4628 1.8971-1.2971 9.8043 1.8417 17.225 10.4511 17.225 20.7871 0 .8974-.7275 1.625-1.625 1.625s-1.625-.7276-1.625-1.625c0-8.744-6.2792-16.0346-14.575-17.593-.882-.1656-1.4627-1.015-1.2971-1.897z" fill="#000" fill-rule="evenodd"/><path d="m29.7 45.3383v5.73c0 3.74 3.0299 6.76 6.7599 6.76h1.48c3.33 0 6.1-2.4 6.66-5.57v-7.27l-14.8999.34z" fill="#eeeada"/><path d="m9.20996 70.6095c0-10.49 8.27004-19.05 18.65004-19.51h1.63v.37c0 3.74 3.03 6.76 6.76 6.76h1.48c3.33 0 6.1-2.4 6.66-5.57v-1.89l4.49.65c9.05 1.7 15.9 9.65 15.9 19.19z" fill="#88c22e"/><path d="m34.86 47.9092c-5.97-1.01-10.52-6.21-10.52-12.47v-10.23c0-6.08 4.93-11.01 11.01-11.01h3.27c6.08 0 11.01 4.93 11.01 11.01v10.23c0 2.37-.79 4.51-1.78 6.48-3.9 7.73-12.99 5.99-12.99 5.99z" fill="#eeeada"/><path clip-rule="evenodd" d="m27.874 49.4746h1.666c.8975 0 1.625.7275 1.625 1.625s-.7275 1.625-1.625 1.625h-1.5932c-9.4986.4394-17.0618 8.28-17.0618 17.885 0 .8975-.7275 1.625-1.62499 1.625-.89746 0-1.625-.7275-1.625-1.625 0-11.3632 8.95809-20.6351 20.20309-21.1334z" fill="#000" fill-rule="evenodd"/><path clip-rule="evenodd" d="m29.54 44.1133c.8975 0 1.625.7275 1.625 1.625v5.73c0 2.841 2.3009 5.135 5.135 5.135h1.48c2.2752 0 4.2073-1.4771 4.8857-3.5405.0997-.3059.1493-.6428.1493-1.0045v-5.96c0-.8975.7276-1.625 1.625-1.625.8975 0 1.625.7275 1.625 1.625v5.96c0 .6578-.0902 1.3406-.3102 2.0144l-.0009.0026c-1.1021 3.3558-4.2496 5.778-7.9739 5.778h-1.48c-4.6259 0-8.385-3.746-8.385-8.385v-5.73c0-.8975.7276-1.625 1.625-1.625z" fill="#000" fill-rule="evenodd"/><path clip-rule="evenodd" d="m35.35 15.8242c-5.1826 0-9.385 4.2025-9.385 9.385v10.23c0 5.4543 3.965 9.9879 9.166 10.8678l-.271 1.6022c.3055-1.596.3048-1.5961.3042-1.5963l.0044.0008c.005.0009.0122.0021.0218.0037.0084.0015.0186.0032.0305.0051.0508.0081.1325.0204.2417.0343.2187.0277.5456.0613.9539.0803.8211.038 1.9459.0156 3.1688-.2198 2.426-.467 5.1547-1.7426 6.8132-5.0287.9397-1.8701 1.6065-3.7446 1.6065-5.7494v-10.23c0-5.1825-4.2025-9.385-9.385-9.385zm-.7728 33.6853.0265.0047c.0253.0045.0592.0103.1014.0171.0842.0135.2017.031.3487.0497.2936.0372.7073.0792 1.2121.1026 1.0052.0466 2.3967.0209 3.9337-.2749 3.0937-.5955 6.8596-2.3146 9.1012-6.7575l.0011-.0023c1.0401-2.0697 1.9531-4.4748 1.9531-7.2097v-10.23c0-6.9774-5.6576-12.635-12.635-12.635h-3.27c-6.9775 0-12.635 5.6576-12.635 12.635v10.23c0 7.0617 5.129 12.9254 11.8622 14.0703z" fill="#000" fill-rule="evenodd"/><path d="m56.33 67.2191v5.73c0 3.74 3.03 6.76 6.76 6.76h1.48c3.33 0 6.1-2.4 6.66-5.57v-7.27l-14.9.34z" fill="#eeeada"/><path d="m35.84 92.4904c0-10.49 8.27-19.05 18.65-19.51h1.63v.37c0 3.74 3.03 6.76 6.76 6.76h1.48c3.33 0 6.1-2.4 6.66-5.57v-1.89l4.49.65c9.05 1.7 15.9 9.65 15.9 19.19z" fill="#88c22e"/><path d="m61.49 69.7901c-5.97-1.01-10.52-6.21-10.52-12.47v-10.23c0-6.08 4.93-11.01 11.01-11.01h3.27c6.08 0 11.01 4.93 11.01 11.01v10.23c0 2.37-.79 4.51-1.78 6.48-3.9 7.73-12.99 5.99-12.99 5.99z" fill="#eeeada"/><g fill="#000"><path clip-rule="evenodd" d="m54.504 71.3555h1.666c.8975 0 1.625.7275 1.625 1.625 0 .8974-.7275 1.625-1.625 1.625h-1.5932c-9.4986.4394-17.0618 8.28-17.0618 17.885 0 .8974-.7275 1.625-1.625 1.625-.8974 0-1.625-.7276-1.625-1.625 0-11.3632 8.9581-20.6351 20.2031-21.1334z" fill-rule="evenodd"/><path clip-rule="evenodd" d="m73.9629 72.9991c.1657-.882 1.0151-1.4627 1.8971-1.297 9.8042 1.8416 17.225 10.451 17.225 20.787 0 .8975-.7276 1.625-1.625 1.625-.8975 0-1.625-.7275-1.625-1.625 0-8.744-6.2793-16.0346-14.575-17.5929-.8821-.1657-1.4628-1.015-1.2971-1.8971z" fill-rule="evenodd"/><path clip-rule="evenodd" d="m56.17 65.9844c.8975 0 1.625.7275 1.625 1.625v5.73c0 2.8409 2.3009 5.135 5.135 5.135h1.48c2.2752 0 4.2073-1.4771 4.8857-3.5405.0997-.306.1493-.6428.1493-1.0045v-5.96c0-.8975.7276-1.625 1.625-1.625.8975 0 1.625.7275 1.625 1.625v5.96c0 .6578-.0902 1.3406-.3102 2.0144l-.0009.0026c-1.1021 3.3558-4.2496 5.778-7.9739 5.778h-1.48c-4.6259 0-8.385-3.746-8.385-8.385v-5.73c0-.8975.7276-1.625 1.625-1.625z" fill-rule="evenodd"/><path clip-rule="evenodd" d="m61.98 37.7051c-5.1826 0-9.385 4.2024-9.385 9.385v10.23c0 5.4542 3.965 9.9878 9.166 10.8677l.0173.003.0124.0023.0024.0005.0024.0005.0031.0005c.005.0008.0123.0021.0218.0037.0084.0014.0186.0031.0306.005.0507.0082.1324.0205.2416.0344.2187.0277.5456.0613.9539.0802.8211.0381 1.9459.0156 3.1688-.2198 2.426-.4669 5.1547-1.7425 6.8132-5.0287.9397-1.87 1.6065-3.7445 1.6065-5.7493v-10.23c0-5.1826-4.2025-9.385-9.385-9.385zm-.7728 33.6852c-6.7332-1.1449-11.8622-7.0086-11.8622-14.0702v-10.23c0-6.9775 5.6575-12.635 12.635-12.635h3.27c6.9774 0 12.635 5.6575 12.635 12.635v10.23c0 2.7348-.913 5.14-1.9531 7.2096l-.0011.0023c-2.2416 4.4429-6.0075 6.1621-9.1012 6.7575-1.537.2959-2.9285.3215-3.9337.2749-.5048-.0234-.9185-.0653-1.2121-.1026-.147-.0186-.2644-.0361-.3487-.0497-.0422-.0068-.0761-.0125-.1014-.017z" fill-rule="evenodd"/></g></svg>