<svg fill="none" height="100" viewBox="0 0 100 100" width="100" xmlns="http://www.w3.org/2000/svg"><path d="m82.31 30.2499v-9.07h-7.78v-8.51h-64.63001v61.31c0 6.15 5.01001 11.16 11.16001 11.16h61.25c4.42-.78 7.78-4.64 7.78-9.28v-45.61z" fill="#fff"/><path d="m80.65 30.2497v-9.07h-7.78l.3 54.97c0 .66.09 1.29.24 1.9 1.76 6.96 11.61 7.65 14.53 1.09.31-.69.49-1.4.49-2.11v-46.78z" fill="#f1eee0"/><path d="m80.8 85.36c-.14 0-.28 0-.42 0h-60.01c-6.24 0-11.31-5.07-11.31-11.31v-62.3h65.52v64.06c0 3.43 2.79 6.22 6.22 6.22s6.22-2.79 6.22-6.22v-42.91h-7.89v-3.33h11.22v46.24c0 5.27-4.29 9.55-9.55 9.55zm-68.41-70.28v58.97c0 4.4 3.58 7.98 7.98 7.98h53.19c-1.44-1.67-2.31-3.85-2.31-6.22v-60.73z" fill="#060606"/><path d="m82.47 73.1499h-3.34v-49.44h-7.88v-3.33h11.22z" fill="#060606"/><path d="m42.95 24.0898h-23.89v29.35h23.89z" fill="#89c32e"/><g fill="#060606"><path d="m44.61 55.0997h-27.22v-32.67h27.22zm-23.89-3.33h20.55v-26.01h-20.54v26.01z"/><path d="m64.58 22.4297h-13.3v3.33h13.3z"/><path d="m64.58 32.21h-13.3v3.33h13.3z"/><path d="m64.58 41.9893h-13.3v3.33h13.3z"/><path d="m64.58 51.7695h-13.3v3.33h13.3z"/><path d="m64.58 61.5498h-47.19v3.33h47.19z"/><path d="m64.58 71.3301h-47.19v3.33h47.19z"/></g></svg>