<svg fill="none" height="100" viewBox="0 0 100 100" width="100" xmlns="http://www.w3.org/2000/svg"><path d="m62.8899 63.5898c15.0498 0 27.25-12.2002 27.25-27.25 0-15.0497-12.2002-27.24996-27.25-27.24996s-27.25 12.20026-27.25 27.24996c0 15.0498 12.2002 27.25 27.25 27.25z" fill="#f1eee0"/><g fill="#060606"><path d="m64.51 4.51953h-3.25v63.62997h3.25z"/><path d="m62.8899 69.7796c-14.7299 0-27.5699-9.44-31.9399-23.5-.17-.55-.3301-1.1-.4701-1.66-.69-2.69-1.0299-5.48-1.0299-8.28 0-2.6.3-5.19.89-7.7 3.57-15.16 16.9499-25.74995 32.5499-25.74995 18.44 0 33.4401 15.00005 33.4401 33.44005s-15.0001 33.4399-33.4401 33.4399zm0-63.62995c-14.08 0-26.1599 9.55995-29.3899 23.23995-.53 2.27-.8 4.6-.8 6.95 0 2.53.31 5.05.93 7.48.13.5.2699 1 .4199 1.5 3.95 12.69 15.53 21.21 28.84 21.21 16.65 0 30.1901-13.54 30.1901-30.19s-13.5501-30.19995-30.1901-30.19995z"/><path d="m62.8899 69.7794c-7.13 0-13.58-6.83-16.84-17.81-1.42-4.77-2.16-10.18-2.16-15.63 0-18.75 8.35-33.43999 19-33.43999s19 14.68999 19 33.43999-8.35 33.44-19 33.44zm0-63.62999c-8.54 0-15.75 13.82999-15.75 30.18999 0 5.14.7 10.23 2.03 14.7 2.83 9.55 8.09 15.49 13.72 15.49 8.54 0 15.75-13.83 15.75-30.19s-7.21-30.18999-15.75-30.18999z"/><path d="m62.89 23.1204c-9.96 0-19.28-1.91-25.59-5.25l1.52-2.87c5.85 3.1 14.62 4.87 24.07 4.87s18.3301-1.8 24.1901-4.93l1.54 2.86c-6.31 3.38-15.68 5.32-25.72 5.32z"/><path d="m38.83 57.8997-1.54-2.86c6.31-3.38 15.68-5.32 25.72-5.32s19.28 1.91 25.59 5.25l-1.52 2.87c-5.85-3.1-14.62-4.87-24.07-4.87s-18.33 1.8-24.19 4.93z"/><path d="m94.7001 34.71h-63.63v3.25h63.63z"/></g><path d="m48.8721 84.8828 8.7752-8.7752 8.8742 8.8742c2.4183 2.4183 2.4183 6.3498 0 8.7681s-6.3499 2.4183-8.7682 0l-8.8742-8.8742z" fill="#89c32e"/><path d="m12.64 39.8703c-10.11995 10.12-10.11995 26.52 0 36.64 10.12 10.12 26.52 10.12 36.64 0s10.12-26.52 0-36.64-26.52-10.12-36.64 0zm30.57 30.57c-6.76 6.76-17.73 6.76-24.5 0s-6.76-17.73 0-24.5c6.76-6.76 17.73-6.76 24.5 0 6.76 6.76 6.76 17.73 0 24.5z" fill="#fff"/><path d="m47.1975 78.5984-2.2981 2.2981 4.3629 4.3628 2.2981-2.2981z" fill="#060606"/><path d="m53.6646 72.1355-2.2981 2.2981 4.3628 4.3628 2.2981-2.2981z" fill="#060606"/><path d="m62.1398 97.1993c-2 0-4.01-.76-5.54-2.29l-10.02-10.02 11.07-11.07 10.02 10.02c1.48 1.48 2.29 3.44 2.29 5.54s-.81 4.06-2.29 5.53c-1.53 1.53-3.53 2.29-5.54 2.29zm-10.96-12.31 7.72 7.72c1.79 1.79 4.69 1.79 6.47 0 .86-.86 1.34-2.01 1.34-3.24s-.48-2.37-1.34-3.24l-7.72-7.72-6.47 6.47z" fill="#060606"/><path d="m30.9601 85.73c-7.35 0-14.27-2.86-19.47-8.06-10.740041-10.74-10.740041-28.21 0-38.95 10.74-10.74 28.21-10.74 38.94 0 5.2 5.2 8.06 12.12 8.06 19.47s-2.86 14.27-8.06 19.47-12.12 8.06-19.47 8.06zm-17.17-44.71c-9.47004 9.47-9.47004 24.88 0 34.34 9.47 9.47 24.88 9.47 34.34 0s9.47-24.88 0-34.34c-9.47-9.47-24.88-9.47-34.34 0zm17.17 36.11c-4.85 0-9.7-1.85-13.4-5.54-7.39-7.39-7.39-19.41 0-26.79 3.58-3.58 8.34-5.55 13.4-5.55s9.82 1.97 13.4 5.55c7.39 7.39 7.39 19.41 0 26.79-3.69 3.69-8.55 5.54-13.4 5.54zm0-34.63c-4.19 0-8.13 1.63-11.1 4.6-6.12 6.12-6.12 16.08 0 22.2s16.08 6.12 22.2 0 6.12-16.08 0-22.2c-2.96-2.96-6.91-4.6-11.1-4.6z" fill="#060606"/></svg>