<svg fill="none" height="100" viewBox="0 0 100 100" width="100" xmlns="http://www.w3.org/2000/svg" xmlns:xlink="http://www.w3.org/1999/xlink"><clipPath id="a"><path d="m0 0h100v100h-100z"/></clipPath><g clip-path="url(#a)"><path d="m63.06 27.74c8.27-8.94 14.58 2.98 24.95-2.97-2.51-2.06-5.03-6.46-5.03-6.46s2.47-5.17 4.95-7.82c-12.45 5.71-16.68-5.97004-24.95 2.97l.08 14.29z" fill="#89c32e"/><path d="m29.09 87.4304v-47.07s-13.23-7.79-16.79-10.75c-3.77002-3.14-2.04-8.71-2.04-8.71s10.07 4.4 16.6 7.61c2.71 1.34 6.73 1.49 9.76 1.49h26.36s.43 6.33-5.65 7.47c-3.68.69-13.18 2.88-13.18 2.88v9.41l11.3 10.35v16.95h-7.53v-13.18l-9.41-4.71-1.88 26.36-3.22 2.82-4.31-.94z" fill="#f1eee0"/><g fill="#060606"><path d="m38.24 85.6604-3.24-.23 2.06-28.78 12.48 6.24v13.25h-3.25v-11.24l-6.34-3.17z"/><path d="m12.25 95.5202-1.24-3 14-5.77h7.96l3.21-1.89h4.99l3.77-9.41h9.12l5.65 3.77h7.71l3.76 3.76h7.46l11.5 9.8-2.11 2.48-10.59-9.03h-7.6l-3.77-3.76h-7.35l-5.64-3.77h-5.94l-3.77 9.41h-6.31l-3.21 1.89h-8.2z"/><path d="m30.72 87.4302h-3.25v-46.14c-2.96-1.75-13.06-7.81-16.2-10.42-4.55001-3.79-2.64001-10.17-2.55001-10.44l.54-1.73 1.66001.73c.1.04 10.18 4.45 16.67 7.64 2.41 1.19 6.31 1.32 9.04 1.32h27.88l.1 1.51c.18 2.69-1.04 8.07-6.97 9.18-2.81.52-9.15 1.96-11.85 2.58v7.4l11.3 10.35v17.67h-3.25v-16.24l-11.3-10.35v-11.42l1.26-.29c.39-.09 9.58-2.21 13.25-2.9 2.99-.56 3.93-2.74 4.21-4.25h-24.62c-3.31 0-7.5-.19-10.48-1.66-4.72-2.33-11.4-5.31-14.63-6.74-.1 1.54.12 3.71 1.83 5.13 3.41 2.84 16.44 10.52 16.57 10.6l.8.47v48z"/><path d="m64.61 30.0098h-3.25v49.89h3.25z"/><path d="m64.61 5.54004h-3.25v24.46996h3.25z"/></g><path d="m37.56 24.3596c3.84 0 6.59-2.46 6.59-6.02v-3.01c0-3.56-2.75-6.02003-6.59-6.02003s-6.59 2.46003-6.59 6.02003v3.01c0 3.56 2.75 6.02 6.59 6.02z" fill="#f1eee0"/><g fill="#060606"><path d="m37.56 25.9897c-4.76 0-8.21-3.22-8.21-7.65v-3.01c0-4.43 3.45-7.65001 8.21-7.65001s8.21 3.22001 8.21 7.65001v3.01c0 4.43-3.45 7.65-8.21 7.65zm0-15.06c-2.97 0-4.96 1.77-4.96 4.4v3.01c0 2.63 2 4.4 4.96 4.4s4.96-1.77 4.96-4.4v-3.01c0-2.63-2-4.4-4.96-4.4z"/><path d="m64.2601 28.8403-2.3901-2.21c5.06-5.47 9.8201-4.08 14.0301-2.86 3.04.88 5.94 1.73 9.33.51-1.98-2.26-3.57-5.02-3.65-5.17l-.42-.74.3699-.77c.06-.13.9601-2 2.2301-4.09-4.01.7-7.1501-.24-9.8001-1.04-3.82-1.15-6.1299-1.85-9.7699 2.09l-2.3901-2.21c5.02-5.42999 9.12-4.18999 13.09-2.98999 3.44 1.03999 7 2.10999 12.38-.35l7.51-3.44-5.65 6.02999c-1.73 1.85-3.52 5.15-4.28 6.64.8 1.28 2.54 3.92 4.21 5.28l1.82 1.49-2.04 1.17c-5.48 3.15-10.1099 1.8-13.8299.72-4.09-1.19-7.0401-2.05-10.7301 1.95z"/></g></g></svg>