<svg fill="none" height="100" viewBox="0 0 100 100" width="100" xmlns="http://www.w3.org/2000/svg"><path d="m64.7399 59.6299c.03.08 7.4201 6.82 7.4201 6.82l-6.0101 5.89-7.58-7.67 6.17-5.03z" fill="#fff"/><path d="m65.172 73.0039 7.4246-7.4246 17.0979 17.0978c2.0506 2.0506 2.0506 5.374 0 7.4246-2.0506 2.0507-5.3741 2.0507-7.4247 0z" fill="#87c12e"/><path d="m17 17.0898c-12.75 12.75-12.75 33.43 0 46.18s33.43 12.75 46.18 0 12.75-33.43 0-46.18c-12.75-12.74996-33.43-12.74996-46.18 0zm39.76 39.75c-9.21 9.21-24.13 9.21-33.34 0s-9.21-24.13 0-33.34 24.13-9.21 33.34 0 9.21 24.13 0 33.34z" fill="#ede9d9"/><g fill="#000"><path d="m61.6731 65.4226-2.1213 2.1213 5.8619 5.862 2.1213-2.1214z"/><path d="m67.143 59.947-2.1213 2.1214 5.8619 5.8619 2.1214-2.1213z"/><path d="m85.98 93.1304c-1.73 0-3.46-.66-4.77-1.97l-17.1-17.09c-.28-.28-.44-.66-.44-1.06s.16-.7801.44-1.0601l7.42-7.4199c.56-.56 1.56-.56 2.12 0l17.09 17.1c2.63 2.63 2.63 6.91 0 9.54-1.32 1.32-3.04 1.97-4.77 1.97zm-18.68-20.13 16.04 16.03c1.46 1.46 3.84 1.46 5.3 0s1.46-3.84 0-5.3l-16.03-16.04-5.3 5.3z"/><path d="m40.09 74.3103c-8.75 0-17.49-3.33-24.15-9.99-13.32005-13.31-13.32005-34.98 0-48.3 13.32-13.32003 34.9799-13.32003 48.2999 0 13.32 13.32 13.32 34.98 0 48.3-6.66 6.66-15.3999 9.99-24.1499 9.99zm-22.03-56.16c-12.15005 12.15-12.15005 31.91 0 44.06 12.15 12.15 31.9099 12.15 44.0599 0s12.15-31.91 0-44.06c-12.15-12.15003-31.9099-12.14003-44.0599 0zm22.03 47.1c-6.7 0-13-2.61-17.73-7.34-9.78-9.78-9.78-25.69 0-35.46 9.78-9.78 25.68-9.78 35.46 0 9.7799 9.78 9.7799 25.69 0 35.46-4.74 4.74-11.03 7.34-17.73 7.34zm0-47.14c-5.65 0-11.31 2.15-15.6101 6.46-8.6099 8.61-8.6099 22.61 0 31.22 4.1701 4.17 9.7101 6.47 15.6101 6.47s11.44-2.3 15.61-6.47c8.61-8.61 8.61-22.61 0-31.22-4.3-4.3-9.96-6.46-15.61-6.46z"/><path d="m39.94 53.7299c-7.46 0-13.53-6.07-13.53-13.53s6.07-13.53 13.53-13.53 13.53 6.07 13.53 13.53-6.07 13.53-13.53 13.53zm0-24.07c-5.81 0-10.53 4.73-10.53 10.53s4.73 10.53 10.53 10.53 10.53-4.73 10.53-10.53-4.73-10.53-10.53-10.53z"/><path d="m39.9399 34.6998c-.83 0-1.5-.67-1.5-1.5v-9.94c0-.83.67-1.5 1.5-1.5s1.5.67 1.5 1.5v9.94c0 .83-.67 1.5-1.5 1.5z"/><path d="m39.9399 58.6102c-.83 0-1.5-.67-1.5-1.5v-9.95c0-.83.67-1.5 1.5-1.5s1.5.67 1.5 1.5v9.95c0 .83-.67 1.5-1.5 1.5z"/><path d="m32.96 41.6797h-9.95c-.83 0-1.5-.67-1.5-1.5s.67-1.5 1.5-1.5h9.95c.83 0 1.5.67 1.5 1.5s-.67 1.5-1.5 1.5z"/><path d="m56.86 41.6797h-9.94c-.83 0-1.5-.67-1.5-1.5s.67-1.5 1.5-1.5h9.94c.83 0 1.5.67 1.5 1.5s-.67 1.5-1.5 1.5z"/></g></svg>