<svg fill="none" height="100" viewBox="0 0 100 100" width="100" xmlns="http://www.w3.org/2000/svg" xmlns:xlink="http://www.w3.org/1999/xlink"><clipPath id="a"><path d="m0 0h100v100h-100z"/></clipPath><g clip-path="url(#a)"><path d="m46.68 13.8896h-33.95v32.95h33.95z" fill="#fff"/><path d="m48.3 48.4598h-37.2v-36.2h37.2zm-33.95-3.25h30.7v-29.7h-30.7z" fill="#060606"/><path d="m41.77 18.79h-24.14v23.14h24.14z" fill="#f1eee0"/><path d="m87.27 13.8896h-33.95v19.95h33.95z" fill="#fff"/><path d="m88.9 35.4598h-37.2v-23.2h37.2zm-33.95-3.25h30.7v-16.7h-30.7z" fill="#060606"/><path d="m46.68 53.1602h-33.95v32.95h33.95z" fill="#fff"/><path d="m48.3 87.74h-37.2v-36.2h37.2zm-33.95-3.25h30.7v-29.7h-30.7z" fill="#060606"/><path d="m82.37 18.79h-24.14v10.14h24.14z" fill="#89c32e"/><path d="m87.27 39.9297h-33.95v19.95h33.95z" fill="#fff"/><path d="m88.9 61.4998h-37.2v-23.2h37.2zm-33.95-3.25h30.7v-16.7h-30.7z" fill="#060606"/><path d="m82.37 44.8301h-24.14v10.14h24.14z" fill="#89c32e"/><path d="m87.27 65.9697h-33.95v19.95h33.95z" fill="#fff"/><path d="m88.9 87.5496h-37.2v-23.2h37.2zm-33.95-3.25h30.7v-16.7h-30.7z" fill="#060606"/><path d="m82.37 70.8799h-24.14v10.14h24.14z" fill="#89c32e"/><path d="m41.77 58.0703h-24.14v23.14h24.14z" fill="#f1eee0"/></g></svg>