<svg fill="none" height="100" viewBox="0 0 100 100" width="100" xmlns="http://www.w3.org/2000/svg"><path d="m95.8899 31.6903c.32-7.3-2.46-14.44-7.63-19.61-10.18-10.17999-26.75-10.17999-36.94 0l-2.01 2.01-3.2-3.2-.13-.11c-10.38-8.27999-25.3-7.42999-34.71 1.98-9.52995 9.53-10.18995 25.03-1.49995 35.31l3.28995 3.3-5.10995 5.11c-2.82 2.82-3.12 7.34-.68 10.29 1.36 1.64 3.34995 2.64 5.45995 2.74h.36c.39 0 .78-.04 1.16-.1-.32 2.07.19 4.22 1.56 5.88 1.36 1.64 3.35 2.64 5.46 2.74h.36c.39 0 .78-.04 1.16-.1-.32 2.07.19 4.22 1.56 5.88 1.36 1.64 3.35 2.64 5.46 2.74h.36c.39 0 .78-.04 1.16-.1-.32 2.07.19 4.22 1.56 5.88 1.36 1.64 3.35 2.64 5.46 2.74h.36c1.99 0 3.92-.79 5.33-2.21l5.7-5.7 5.7 5.7c1.42 1.42 3.32 2.21 5.33 2.21s3.91-.78 5.33-2.21c1.75-1.75 2.45-4.16 2.11-6.44.37.05.74.09 1.11.09 1.93 0 3.86-.73 5.33-2.2 1.77-1.77 2.47-4.22 2.1-6.52.4.06.8.1 1.2.1 1.93 0 3.86-.73 5.33-2.2 1.83-1.83 2.52-4.39 2.07-6.76.24.02.4901.04.73.04 1.93 0 3.86-.73 5.3301-2.2 2.94-2.94 2.94-7.72 0-10.66l-5.2701-5.27 1.88-1.87c4.82-4.79 7.62-10.94 7.9-17.33z" fill="#fff"/><g fill="#060606"><path d="m86.08 69.4603c-2.13 0-4.12-.83-5.63-2.33l-5.13-5.13 2.72-2.72 5.13 5.13c.78.78 1.81 1.21 2.91 1.21s2.13-.43 2.91-1.2 1.21-1.81 1.21-2.91-.43-2.13-1.21-2.91l-25.01-25.01c-3.2-3.2-8.4-3.2-11.6 0l-12.2 12.2c-3.19 3.18-8.37 3.18-11.55 0-1.54-1.54-2.39-3.59-2.39-5.78s.85-4.23 2.39-5.78l22.42-22.43c5.01-5.01003 11.68-7.77003 18.77-7.77003s13.75 2.76 18.77 7.77003c9.45 9.45 10.4 24.52 2.2 35.05l-3.03-2.36c7.01-9 6.2-21.89-1.88-29.97-4.29-4.29-9.99-6.65003-16.05-6.65003s-11.76 2.36003-16.05 6.65003l-22.43 22.43c-.82.82-1.27 1.9-1.27 3.06s.45 2.24 1.27 3.06 1.9 1.27 3.06 1.27 2.24-.45 3.06-1.27l12.2-12.2c2.28-2.27 5.3-3.53 8.52-3.53s6.24 1.25 8.52 3.53l25.01 25.01c1.5 1.5 2.33 3.5 2.33 5.63s-.83 4.12-2.33 5.63c-1.5 1.5-3.5 2.33-5.62 2.33z"/><path d="m9.47006 48.3495c-8.830004-10.44-8.16001-26.2 1.52004-35.88 9.68-9.67997 24.73-10.41997 35.28-2.01l-2.39 3.01c-9.03-7.18997-22-6.44997-30.17 1.72-8.28004 8.28-8.85005 21.75-1.31 30.68l-2.94004 2.48z"/><path d="m77.9499 78.3802c-2.04 0-4.08-.78-5.63-2.33l-5.13-5.13 2.72-2.72 5.13 5.13c.78.78 1.81 1.21 2.91 1.21s2.13-.43 2.91-1.21 1.21-1.81 1.21-2.91-.43-2.13-1.2-2.91l-5.38-5.38 2.72-2.72 5.38 5.38c1.5 1.5 2.33 3.5 2.33 5.63s-.83 4.12-2.33 5.63c-1.55 1.55-3.59 2.33-5.63 2.33z"/><path d="m69.3299 87.0003c-2.04 0-4.07-.78-5.63-2.33l-5.13-5.13 2.72-2.72 5.13 5.13c1.6 1.6 4.21 1.6 5.82 0 .78-.78 1.21-1.81 1.21-2.91s-.43-2.13-1.2-2.91l-5.38-5.38 2.72-2.72 5.38 5.38c1.5 1.5 2.33 3.5 2.33 5.63s-.83 4.12-2.33 5.63c-1.55 1.55-3.59 2.33-5.63 2.33z"/><path d="m60.78 95.5598c-2.13 0-4.12-.8299-5.63-2.3299l-2.61-2.61 2.72-2.7201 2.61 2.61c.78.78 1.81 1.21 2.91 1.21s2.13-.43 2.91-1.21c1.6-1.6 1.6-4.21 0-5.82l-5.38-5.38 2.72-2.72 5.38 5.38c3.1 3.1 3.1 8.15 0 11.25-1.5 1.5-3.5 2.3301-5.63 2.3301z"/><path d="m13.11 69.9499c-.12 0-.25 0-.38 0-2.23-.11-4.33995-1.16-5.76995-2.9-2.58-3.12-2.27-7.89.71-10.86l5.56995-5.57c3.1-3.1 8.15-3.1 11.25 0 1.5 1.5 2.33 3.5 2.33 5.63s-.83 4.12-2.33 5.63l-5.76 5.76c-1.49 1.49-3.53 2.33-5.63 2.33zm2.85-16.62-5.57 5.57c-1.58995 1.59-1.78995 4.09-.45995 5.7.75995.92 1.81995 1.45 2.98995 1.5 1.16.05 2.29-.38 3.1-1.2l5.76-5.76c.78-.78 1.21-1.81 1.21-2.91s-.43-2.13-1.21-2.91c-1.6-1.6-4.21-1.6-5.82 0z"/><path d="m21.65 78.49c-.12 0-.25 0-.38 0-2.23-.11-4.34-1.16-5.77-2.9-2.58-3.12-2.27-7.89.71-10.86l5.57-5.57c3.1-3.1 8.15-3.1 11.25 0s3.1 8.15 0 11.25l-5.76 5.76c-1.49 1.49-3.53 2.33-5.63 2.33zm2.85-16.62-5.57 5.57c-1.59 1.59-1.79 4.09-.46 5.7.76.91 1.82 1.45 2.99 1.5 1.16.05 2.29-.38 3.1-1.2l5.76-5.76c1.6-1.6 1.6-4.21 0-5.82-1.6-1.6-4.21-1.6-5.82 0z"/><path d="m30.18 87.0203c-.12 0-.25 0-.38 0-2.23-.11-4.34-1.1599-5.77-2.8999-2.58-3.12-2.27-7.89.7-10.86l5.58-5.57c1.5-1.5 3.5-2.33 5.63-2.33s4.12.83 5.63 2.33c3.1 3.1 3.1 8.15 0 11.25l-5.76 5.7599c-1.49 1.49-3.53 2.33-5.63 2.33zm5.76-17.8299c-1.1 0-2.13.43-2.91 1.2l-5.58 5.57c-1.58 1.59-1.79 4.09-.46 5.7.75.91 1.82 1.45 2.99 1.5 1.17.06 2.29-.3801 3.11-1.2l5.76-5.7601c1.6-1.6 1.6-4.21 0-5.82-.78-.78-1.81-1.21-2.91-1.21z"/><path d="m38.72 95.5604c-.13 0-.25 0-.38 0-2.23-.11-4.34-1.16-5.77-2.9-2.58-3.12-2.27-7.89.7-10.86l5.58-5.57c1.5-1.5 3.5-2.33 5.63-2.33s4.12.83 5.63 2.33c3.1 3.1 3.1 8.15 0 11.25l-5.76 5.76c-1.49 1.49-3.53 2.33-5.63 2.33zm5.76-17.83c-1.1 0-2.13.43-2.91 1.2l-5.58 5.57c-1.58 1.59-1.79 4.09-.46 5.7.75.91 1.82 1.45 2.99 1.5 1.17.04 2.29-.38 3.11-1.2l5.76-5.76c1.6-1.6 1.6-4.21 0-5.82-.78-.78-1.81-1.21-2.91-1.21z"/></g><g fill="#f1eee0"><path d="m11.13 63.5902c-.8-.97-.64-2.58.36-3.58l5.57-5.57c.48-.48 1.11-.74 1.79-.74s1.31.26 1.79.74.74 1.11.74 1.79-.26 1.31-.74 1.79l-5.76 5.76c-.51.51-1.2.77-1.91.74-.42-.02-1.21-.17-1.85-.93z"/><path d="m19.67 72.1302c-.8-.97-.64-2.58.36-3.58l5.57-5.57c.48-.48 1.12-.74 1.79-.74s1.31.26 1.79.74.74 1.11.74 1.79-.26 1.31-.74 1.79l-2.79 2.79-2.97 2.97c-.51.51-1.2.77-1.92.74-.42-.02-1.21-.17-1.85-.93z"/><path d="m28.2 80.6601c-.8-.97-.64-2.58.36-3.58l5.57-5.57c.99-.99 2.6-.99 3.59 0 .48.48.74 1.12.74 1.79s-.26 1.31-.74 1.79l-5.57 5.57-.18.18c-.51.51-1.19.78-1.92.74-.42-.02-1.21-.17-1.85-.93z"/><path d="m46.25 83.6299-5.76 5.76c-.51.51-1.16.78-1.92.74-.42-.02-1.21-.17-1.85-.93-.8-.97-.64-2.57.36-3.57l5.57-5.57c.99-.99 2.6-.99 3.59 0 .48.48.74 1.12.74 1.79s-.26 1.31-.74 1.79z"/></g><path d="m87.85 63.2896c-.96.96-2.5.98-3.5.07l-5.07-5.07-.14-.13-4.95 4.95 5.13 5.13c.06.06.12.1.17.16l.24.24c.99.99.99 2.6 0 3.58-.9599.96-2.63.96-3.59 0l-5.13-5.13-.09.09-.26-.26-4.95 4.95 5.38 5.38c.99.99.99 2.6 0 3.58-.96.96-2.63.96-3.59 0l-5.13-5.13-.02.02-.26-.26-4.95 4.95 5.38 5.38c.99.99.99 2.6 0 3.59-.96.96-2.62.96-3.58 0l-5.26-5.26c.18-.74.29-1.51.29-2.29 0-2.55-.99-4.94-2.79-6.74-1.62-1.62-3.67-2.53-5.79-2.74-.21-2.19-1.17-4.22-2.75-5.8-1.62-1.62-3.67-2.53-5.79-2.74-.21-2.19-1.17-4.22-2.75-5.79-1.57-1.57-3.6-2.53-5.79-2.75-.22-2.19-1.17-4.22-2.75-5.79-1.8-1.8-4.2-2.79-6.74-2.79-1.01 0-1.99.16-2.93.46l-2.43-2.43c-6.91995-8.3-6.35995-20.77 1.31-28.44 7.56-7.56001 19.53-8.29001 27.92-1.72l1.64 1.64-16.89 16.89c-1.84 1.84-2.85 4.29-2.85 6.89s1.01 5.05 2.85 6.89 4.29 2.86 6.89 2.86 5.05-1.01 6.89-2.86l12.2-12.2c2.58-2.58 6.79-2.58 9.37 0l25.01 25.01c.99.99.99 2.6 0 3.58z" fill="#89c32e"/><path d="m84.47 45.4798-.48.47-16.21-16.21c-2.66-2.66-6.14-3.98-9.63-3.98s-6.98 1.33-9.63 3.98l-12.2 12.2c-1.04 1.04-2.85 1.04-3.88 0-.52-.52-.8-1.21-.8-1.94s.29-1.42.8-1.94l22.43-22.44c8.23-8.23003 21.63-8.23003 29.87 0 4.17 4.17 6.42 9.95 6.17 15.85-.22 5.13-2.5 10.1-6.43 14z" fill="#f1eee0"/></svg>