<svg fill="none" height="100" viewBox="0 0 100 100" width="100" xmlns="http://www.w3.org/2000/svg"><circle cx="50" cy="50" fill="#fff" r="32"/><path d="m49.92 8.31055c-23.03 0-41.69002 18.66995-41.69002 41.68995s18.66002 41.6901 41.69002 41.6901 41.69-18.6601 41.69-41.6901-18.67-41.68995-41.69-41.68995zm0 73.85995c-17.77 0-32.17-14.4-32.17-32.17s14.4-32.17 32.17-32.17 32.17 14.4 32.17 32.17-14.4 32.17-32.17 32.17z" fill="#89c32e"/><path d="m49.92 83.7992c-18.64 0-33.8-15.16-33.8-33.8s15.16-33.8 33.8-33.8 33.8 15.16 33.8 33.8-15.16 33.8-33.8 33.8zm0-64.34c-16.84 0-30.55 13.7-30.55 30.55s13.7 30.55 30.55 30.55 30.55-13.7 30.55-30.55-13.7-30.55-30.55-30.55z" fill="#060606"/><path d="m49.93 28.8594c-11.67 0-21.14 9.46-21.14 21.14 0 6.05 2.55 11.5 6.62 15.35v-3.1h29.03v3.1c4.07-3.85 6.62-9.3 6.62-15.35 0-11.67-9.46-21.14-21.14-21.14z" fill="#f1eee0"/><g fill="#060606"><path d="m49.92 93.3094c-23.88 0-43.31001-19.4299-43.31001-43.3099s19.42001-43.31005 43.31001-43.31005 43.31 19.43005 43.31 43.31005-19.43 43.3099-43.31 43.3099zm0-83.37995c-22.09.01-40.07001 17.98005-40.07001 40.07005s17.97001 40.0599 40.06001 40.0599 40.06-17.9699 40.06-40.0599-17.96-40.06005-40.05-40.06005z"/><path d="m49.92 83.7992c-18.64 0-33.8-15.16-33.8-33.8s15.16-33.8 33.8-33.8 33.8 15.16 33.8 33.8-15.16 33.8-33.8 33.8zm0-64.34c-16.84 0-30.55 13.7-30.55 30.55s13.7 30.55 30.55 30.55 30.55-13.7 30.55-30.55-13.7-30.55-30.55-30.55z"/><path d="m24.71 48.3809h-6.96v3.25h6.96z"/><path d="m82.09 48.3809h-6.93v3.25h6.93z"/><path d="m51.55 18.0098h-3.25v6.25h3.25z"/></g><path d="m49.92 54.6394c2.5626 0 4.64-2.0774 4.64-4.64s-2.0774-4.64-4.64-4.64-4.64 2.0774-4.64 4.64 2.0774 4.64 4.64 4.64z" fill="#89c32e"/><g fill="#060606"><path d="m70.646 39.3361-16.735 7.1795 1.2814 2.9868 16.7349-7.1796z"/><path d="m28.5326 25.9128-2.2981 2.2981 4.377 4.377 2.2981-2.2981z"/><path d="m71.4138 26.1847-4.3762 4.3778 2.2985 2.2977 4.3762-4.3778z"/><path d="m66.07 71.0306h-32.28v-11.14h32.29v11.14zm-29.04-3.25h25.79v-4.64h-25.79z"/><path d="m49.92 57.1905c-3.97 0-7.19-3.23-7.19-7.19s3.23-7.19 7.19-7.19 7.19 3.23 7.19 7.19-3.23 7.19-7.19 7.19zm0-11.14c-2.17 0-3.94 1.77-3.94 3.94s1.77 3.94 3.94 3.94 3.94-1.77 3.94-3.94-1.77-3.94-3.94-3.94z"/></g></svg>