<svg fill="none" height="100" viewBox="0 0 100 100" width="100" xmlns="http://www.w3.org/2000/svg"><path d="m71.87 22.9502h-61.83v41.29h61.83z" fill="#fff"/><path d="m73.53 65.9003h-65.16v-44.62h65.16zm-61.83-3.33h58.5v-37.96h-58.5z" fill="#060606"/><path d="m71.87 11.3203h-61.83v11.63h61.83z" fill="#89c32e"/><path d="m73.53 24.6102h-65.16v-14.95004h65.16v14.96004zm-61.83-3.33h58.5v-8.29h-58.5v8.3z" fill="#060606"/><path d="m39.86 27.5195h-24.17v14.9h24.17z" fill="#f1eee0"/><g fill="#060606"><path d="m21.88 34.0498h-2.96v6.43h2.96z"/><path d="m26.8 30.5703h-2.96v9.91h2.96z"/><path d="m31.71 32.3496h-2.96v8.13h2.96z"/><path d="m36.62 29.46h-2.96v11.02h2.96z"/></g><path d="m66.22 27.5195h-24.17v14.9h24.17z" fill="#f1eee0"/><g fill="#060606"><path d="m48.25 34.0498h-2.96v6.43h2.96z"/><path d="m53.16 30.5703h-2.96v9.91h2.96z"/><path d="m58.07 32.3496h-2.96v8.13h2.96z"/><path d="m62.98 29.46h-2.96v11.02h2.96z"/></g><path d="m39.86 44.4502h-24.17v14.9h24.17z" fill="#f1eee0"/><g fill="#060606"><path d="m21.88 50.9902h-2.96v6.43h2.96z"/><path d="m26.8 47.5098h-2.96v9.91h2.96z"/><path d="m31.71 49.29h-2.96v8.13h2.96z"/></g><path d="m66.22 44.4502h-24.17v14.9h24.17z" fill="#f1eee0"/><path d="m58.68 48.5498h-14.16v21.62h14.16z" fill="#89c32e"/><path d="m60.35 71.8299h-17.49v-24.95h17.49zm-14.16-3.33h10.83v-18.29h-10.83z" fill="#060606"/><path d="m85.3 48.55c3.79 0 6.86 3.07 6.86 6.86v7.89c0 3.79-3.07 6.86-6.86 6.86v-21.62z" fill="#89c32e"/><path d="m85.3 71.8299h-1.67v-24.95h1.67c4.7 0 8.53 3.83 8.53 8.53v7.89c0 4.7-3.83 8.53-8.53 8.53zm1.67-21.34v17.74c2.05-.7 3.53-2.64 3.53-4.92v-7.89c0-2.28-1.48-4.23-3.53-4.92z" fill="#060606"/><path d="m44.53 48.5498h-9.42v21.62h9.42z" fill="#fff"/><path d="m46.19 71.8299h-12.75v-24.95h12.75zm-9.42-3.33h6.08v-18.29h-6.08z" fill="#060606"/><path d="m62.18 88.6799h-11.79l-8.54-18.51h11.79z" fill="#fff"/><path d="m64.78 90.34h-15.46l-10.08-21.84h15.46zm-13.33-3.33h8.12l-7.01-15.18h-8.12z" fill="#060606"/><path d="m85.3 87.8094-26.62-17.64v-21.62l26.62-17.65z" fill="#fff"/><path d="m86.97 90.9196-29.95-19.85v-23.41l29.95-19.85zm-26.62-21.64 23.29 15.44v-50.71l-23.29 15.44z" fill="#060606"/></svg>