<svg fill="none" height="100" viewBox="0 0 100 100" width="100" xmlns="http://www.w3.org/2000/svg"><path d="m90.32 14.25h-80.65v15.11h80.65z" fill="#89c32e"/><path d="m90.19 29.8496h-80.39v55.89h80.39z" fill="#fff"/><path d="m91.95 30.9899h-83.9v-18.36h83.9zm-80.65-3.25h77.4v-11.86h-77.4z" fill="#060606"/><path d="m84.23 35.6201h-68.46v44.35h68.46z" fill="#f1eee0"/><path d="m91.95 87.3696h-83.9v-57.52h3.25v54.27h77.4v-54.27h3.25z" fill="#060606"/><path d="m60.99 59.3601v-15.03c-8.3 0-15.03 6.73-15.03 15.03s6.73 15.03 15.03 15.03 15.03-6.73 15.03-15.03z" fill="#89c32e"/><path d="m81.74 51.74c0-7.29-5.91-13.2-13.2-13.2v13.2z" fill="#89c32e"/><g fill="#060606"><path d="m60.98 76.0097c-1.77 0-3.57-.27-5.34-.83-6.66-2.09-11.3-8.6-11.3-15.81 0-9.18 7.47-16.65 16.65-16.65h1.62v15.03h15.03v1.62c0 5.28-2.55 10.3-6.81 13.43-2.89 2.12-6.31 3.21-9.84 3.21zm-1.62-29.95c-6.63.8-11.78 6.46-11.78 13.3 0 5.81 3.71 11.04 9.03 12.71 4.32 1.36 8.79.66 12.29-1.9 2.99-2.2 4.93-5.55 5.38-9.19h-14.93v-14.93z"/><path d="m83.37 53.3699h-16.45v-16.45h1.62c8.18 0 14.83 6.65 14.83 14.83zm-13.2-3.25h9.84c-.72-5.09-4.75-9.12-9.84-9.84z"/><path d="m39.07 39.3203h-18.7v3.25h18.7z"/><path d="m39.07 47.4307h-18.7v3.25h18.7z"/><path d="m39.07 55.54h-18.7v3.25h18.7z"/><path d="m39.07 63.6504h-18.7v3.25h18.7z"/><path d="m39.07 71.7607h-18.7v3.25h18.7z"/></g></svg>