<svg fill="none" height="100" viewBox="0 0 100 100" width="100" xmlns="http://www.w3.org/2000/svg"><g fill="#060606"><path d="m64.7901 60.5996c.03.08 7.42 6.82 7.42 6.82l-6.01 5.89-7.58-7.67 6.17-5.03z"/><path d="m65.2222 73.9727 7.4246-7.4247 17.0978 17.0979c2.0506 2.0506 2.0506 5.374 0 7.4246s-5.374 2.0506-7.4246 0z" fill-opacity=".7"/><path d="m17.05 18.0586c-12.74995 12.75-12.74995 33.43 0 46.18 12.75 12.75 33.43 12.75 46.18 0s12.75-33.43 0-46.18c-12.75-12.75001-33.43-12.75001-46.18 0zm39.76 39.75c-9.21 9.21-24.13 9.21-33.34 0s-9.21-24.13 0-33.34 24.13-9.21 33.34 0 9.21 24.13 0 33.34z"/><path d="m61.7231 66.3943-2.1213 2.1213 5.8619 5.8619 2.1213-2.1213z"/><path d="m67.1931 60.9177-2.1213 2.1214 5.8619 5.8619 2.1213-2.1213z"/><path d="m86.03 94.1013c-1.8 0-3.5-.7-4.77-1.98l-17.1-17.09c-.28-.28-.44-.66-.44-1.06s.16-.78.44-1.06l7.42-7.42c.59-.59 1.54-.59 2.12 0l17.09 17.09c1.27 1.27 1.98 2.97 1.98 4.77s-.7 3.5-1.98 4.77-2.97 1.98-4.77 1.98zm-18.68-20.13 16.04 16.03c1.42 1.42 3.88 1.42 5.3 0s1.46-3.84 0-5.3l-16.03-16.03-5.3 5.3z"/><path d="m40.14 75.28c-8.75 0-17.49-3.33-24.15-9.99-13.32-13.31-13.32-34.98 0-48.3s34.98-13.32 48.3 0 13.32 34.98 0 48.3c-6.66 6.66-15.4 9.99-24.15 9.99zm-22.03-56.16c-12.15 12.15-12.15 31.91 0 44.06s31.91 12.15 44.06 0 12.15-31.91 0-44.06-31.91-12.14-44.06 0zm22.03 47.1c-6.7 0-13-2.61-17.73-7.34-4.74-4.74-7.34-11.03-7.34-17.73s2.61-13 7.34-17.73c4.74-4.74 11.03-7.34 17.73-7.34s13 2.61 17.73 7.34c4.74 4.74 7.34 11.03 7.34 17.73s-2.61 12.99-7.34 17.73c-4.74 4.74-11.03 7.34-17.73 7.34zm0-47.15c-5.9 0-11.44 2.3-15.61 6.47s-6.47 9.71-6.47 15.61 2.3 11.44 6.47 15.61 9.71 6.47 15.61 6.47 11.44-2.3 15.61-6.47 6.47-9.71 6.47-15.61-2.3-11.44-6.47-15.61-9.71-6.47-15.61-6.47z"/></g></svg>
