<svg fill="none" height="100" viewBox="0 0 100 100" width="100" xmlns="http://www.w3.org/2000/svg"><g fill="#12ae3a"><path d="m42.1068 22.2909c5.0622-2.5311 10.9236-2.5311 15.9858 0l29.907 14.9868v-8.3926l-30.0402-14.9868c-5.0622-2.5311-10.9237-2.5311-15.9859 0l-29.9735 14.9868v8.4592l.1332.0666v-.0666z"/><path d="m50.1663 37.3441c2.7975 0 5.5284.666 7.9929 1.865l13.0551 6.5276 8.4592-4.1963-21.5143-10.7905c-5.0622-2.5311-10.9237-2.5311-15.9859 0l-21.6475 10.7905 8.4592 4.2629 13.1883-6.5942c2.4645-1.2656 5.1954-1.865 7.993-1.865z"/><path d="m50.1662 45.7363c-2.7975 0-5.5285.6661-7.9929 1.865l-4.7292 2.3313 4.5959 2.3313c5.0622 2.5311 10.9237 2.5311 15.9859 0l4.7292-2.3313-4.596-2.3313c-2.5311-1.1989-5.262-1.865-7.9929-1.865z"/><path d="m58.1592 60.7915c-5.0622 2.5311-10.9237 2.5311-15.9859 0l-13.1883-6.5942-8.4592 4.1963 21.5809 10.7904c5.0622 2.5311 10.9237 2.5311 15.9859 0l21.5809-10.7904-8.4592-4.1963z"/><path d="m28.985 45.8051-16.985-8.4592v-8.4592l16.985 8.4592z"/><path d="m88.1994 71.1157-16.985-8.4592v-8.4592l16.985 8.5258z"/><path d="m58.1593 77.7096c-5.0622 2.5311-10.9237 2.5311-15.9859 0l-30.1067-15.0534v8.4593l30.0401 14.9867c5.0622 2.5311 10.9237 2.5311 15.9859 0l30.0401-14.9867v-8.4593z"/></g></svg>