<svg fill="none" height="83" viewBox="0 0 66 83" width="66" xmlns="http://www.w3.org/2000/svg"><path d="m58.1517 31.9702c.66-.1623 1.3351-.2792 1.9857-.4584.6371-.1759 1.2702-.3658 1.8989-.5697l1.8744-.5999c.7147-.2339 1.8499-.6093 2.0554-1.4204.3206-1.2393-1.4915-1.7769-2.3816-1.6845-.4182.0603-.8265.1758-1.2144.3433-.5959.2339-1.1597.5546-1.7235.8338-.7958.4055-1.6765.7809-2.4703 1.2638-.5092.3132-1.0089.6414-1.5256.9432-.5167.3056-.2546.781 0 1.0451.2039.1711.4473.2886.7081.342.2607.0534.5307.0408.7854-.0364h.0075zm-26.5885-22.98725c.6128-.21127.494-1.36384.5091-1.84864 0-.64702.0641-1.30159.1132-1.94861.0471-.64702.1018-1.22614.1734-1.83355 0-.36595.0792-.73945.0868-1.10729-.0113-.58991-.1992-1.16289-.5393-1.644909-.2376-.350864-.9768-.779068-1.4143-.498-.2093.147667-.3837.339342-.5111.561582-.1273.22224-.2046.469667-.2262.724917-.0661.43584-.1007.87587-.1037 1.31668-.0264.67721-.0132 1.35441.0377 2.02784.066.78662.1772 1.56569.3356 2.33909.1264.65646.5789 2.23157 1.5407 1.88637v.02452zm-1.6519 61.29925c-.4054.747-.611 1.5846-.5959 2.4334-.0717.9036-.0792 1.8166-.0792 2.7202 0 .9054 0 1.7618.0566 2.6428.0547.8828 0 1.841.0698 2.7465-.0057.464.1338.9205.4035 1.3016.2697.3848.6525.6753 1.0975.8338.1979.0384.402.0308.5965-.0222.1946-.0529.3743-.1499.5255-.2834.1483-.1324.2635-.2979.3362-.483.0728-.1852.101-.3848.0824-.5828 0-.9526-.1113-1.9109-.1735-2.8616-.0641-.9526-.1037-1.7789-.1829-2.6598-.1754-1.9184-.2395-3.9538-1.2389-5.6534-.2074-.3509-.6525-.515-.8976-.1321zm-27.57669-23.1683 3.5904-.7791c1.18423-.249 2.38354-.4753 3.52628-.779.86741-.2792 1.71031-.6206 2.52691-1.0224.396-.1755.7806-.3773 1.1502-.5999.0792-.0566.1679-.0943.2395-.149.0717-.0547.2225 0-.1829.0622.5242-.1245 1.0636-.7243.792-1.2638-.2678-.5377-1.1654-.5527-1.7292-.4207l1.3332.0641c-.732-.2103-1.4969-.282-2.2553-.2112-1.0271.0072-2.05215.093-3.06618.2565-1.9536.3358-3.85063.9281-5.742 1.3959l-1.19931.3056c-.438595.105-.818066.3789-1.056003.7621-.116027.188-.193313.3974-.2273153.6157-.03400235.2183-.0240353.4413.0293154.6557.1866859.4188.5147999.7602.9277719.9658.414861.2075.890061.2641 1.342631.166zm29.47369-28.7482c-.4054 8.1472 5.7665 15.6795 13.7092 17.5998l-1.1051-3.8463c-3.8355 3.2917-7.5994 7.0173-10.0697 11.4163-2.5865 4.74-3.6778 10.1523-3.1303 15.5247.0472.3981.2301.7678.5186 1.0507.2885.283.6657.4641 1.0692.5094.8901 0 1.0654-.9659.9938-1.6449-.4696-4.5386-.2791-9.2168-2.3836-13.4272-.8423-1.7462-2.0126-3.314-3.447-4.6178-1.437-1.2073-3.3434-2.4862-5.3291-2.5089l1.073 2.6504c1.5783-1.0187 3.0077-2.2448 4.2485-3.6407 1.193-1.4577 2.1378-3.102 2.7965-4.8668 1.5878-4.2651 1.914-9.1791 1.5878-13.6762-.0641-.9526-1.452-1.9674-1.5878-.5395-.3583 4.2972-.1131 8.5773-1.6594 12.7179-1.1446 3.0408-3.3924 6.5834-6.7923 7.4474-.5544.1396-.6355.9507-.5639 1.3883.0509.3019.1773.5848.3696.8244.193.2405.4433.4286.7279.547 1.4652.4339 2.8437 1.1111 4.0732 2.0052 1.206 1.0223 2.1761 2.294 2.8436 3.7275 1.6764 3.6029 1.8197 7.7963 1.3898 11.6954l2.6381.781c.4827-4.8291 1.0466-9.5771 3.5489-13.7799 2.3835-3.9991 6.1003-6.9154 9.5304-10.0279 1.1371-1.03.5092-3.5935-1.1126-3.8444-3.3004-.5644-6.3389-2.1551-8.6837-4.5462-2.3222-2.3683-3.8193-5.4225-4.2692-8.7093-.0717-.5848-.9372-1.0375-.9844-.2037v-.0076z" fill="#060606"/></svg>