<svg fill="none" height="100" viewBox="0 0 100 100" width="100" xmlns="http://www.w3.org/2000/svg"><path d="m76.3399 7.37012h-70.21002v13.15998h70.21002z" fill="#89c32e"/><path d="m77.48 22.0996h-69.98v48.66h69.98z" fill="#fff"/><path d="m77.97 22.16h-73.45999v-16.41h73.45999zm-70.20999-3.25h66.95999v-9.91h-66.95999z" fill="#060606"/><path d="m71.0399 24.8701h-59.6v39.72h59.6z" fill="#f1eee0"/><g fill="#060606"><path d="m27.01 71.2302h-22.49999v-50.28h3.25v47.03h19.24999z"/><path d="m77.97 20.9502h-3.25v11.61h3.25z"/><path d="m32.3599 28.9805h-17.92v3.25h17.92z"/><path d="m24.8399 38.4609h-10.4v3.25h10.4z"/><path d="m22.7199 47.9307h-8.28v3.25h8.28z"/><path d="m22.7199 57.4004h-8.28v3.25h8.28z"/><path d="m44.7599 64.2104-2.58-1.97 8.55-11.19 4.87 4.2 6.9-8.6 2.54 2.03-9.01 11.23-4.81-4.15z"/></g><path d="m74.7599 68.1201c.03.1 7.41 6.67 7.41 6.67l-7.41 7.27-7.61-7.72 7.61-6.21z" fill="#fff"/><path d="m73.5615 82.8728 9.157-9.157 9.2631 9.2631c2.5244 2.5243 2.5315 6.6326 0 9.1641-2.5243 2.5244-6.6326 2.5314-9.1641 0l-9.2631-9.2631z" fill="#89c32e"/><path d="m35.72 35.88c-10.56 10.56-10.56 27.69 0 38.25s27.69 10.56 38.2501 0c10.56-10.56 10.56-27.69 0-38.25-10.5601-10.56-27.6901-10.56-38.2501 0zm31.91 31.91c-7.06 7.06-18.51 7.06-25.57 0s-7.06-18.51 0-25.57 18.51-7.06 25.57 0 7.06 18.51 0 25.57z" fill="#fff"/><path d="m71.7456 76.3572-2.2981 2.2981 4.5538 4.5537 2.2981-2.2981z" fill="#060606"/><path d="m78.4956 69.615-2.2981 2.2981 4.5538 4.5538 2.2981-2.2981z" fill="#060606"/><path d="m87.39 95.6504c-2.07 0-4.15-.79-5.73-2.37l-9.26-9.26c-.63-.63-.63-1.66 0-2.3l9.16-9.16c.63-.63 1.66-.63 2.3 0l9.26 9.26c3.16 3.16 3.16 8.3 0 11.46-1.58 1.58-3.65 2.37-5.73 2.37zm-11.54-12.78 8.11 8.11c1.89 1.89 4.97 1.89 6.86 0s1.89-4.97 0-6.86l-8.11-8.11z" fill="#060606"/><path d="m54.8401 83.6597c-7.34 0-14.69-2.79-20.27-8.38-11.18-11.18-11.18-29.37 0-40.55s29.37-11.18 40.55 0 11.18 29.37 0 40.55c-5.59 5.59-12.93 8.38-20.27 8.38zm0-54.07c-6.51 0-13.02 2.48-17.98 7.43-9.91 9.91-9.91 26.04 0 35.95s26.04 9.91 35.95 0 9.91-26.04 0-35.95c-4.96-4.96-11.47-7.43-17.98-7.43zm0 45.11c-5.05 0-10.09-1.92-13.93-5.76-7.68-7.68-7.68-20.19 0-27.87s20.19-7.68 27.87 0c3.72 3.72 5.77 8.67 5.77 13.93s-2.05 10.21-5.77 13.93-8.89 5.76-13.94 5.76zm0-36.15c-4.4 0-8.53 1.71-11.64 4.82-6.42 6.42-6.42 16.86 0 23.27 3.11 3.11 7.24 4.82 11.64 4.82s8.53-1.71 11.64-4.82 4.82-7.24 4.82-11.64-1.71-8.53-4.82-11.64-7.24-4.82-11.64-4.82z" fill="#060606"/><path d="m63.2601 53.8603-.33-5.13-5.13.33-.21-3.24 8.37-.54.54 8.37z" fill="#060606"/></svg>