<svg fill="none" height="100" viewBox="0 0 100 100" width="100" xmlns="http://www.w3.org/2000/svg" xmlns:xlink="http://www.w3.org/1999/xlink"><clipPath id="a"><path d="m0 0h100v100h-100z"/></clipPath><g clip-path="url(#a)"><path d="m21.7162 49.4414h-5.685c-1.024.2087-1.9748.6842-2.7563 1.3782-1.0947 1.0033-1.7888 2.3694-1.9536 3.8452v10.3362c-.0134 1.1963.4402 2.3508 1.2645 3.218.7384.7456 1.7125 1.2119 2.7563 1.3196h6.7186" fill="#f1eee0"/><path d="m21.7162 49.4414h-5.685c-1.024.2087-1.9748.6842-2.7563 1.3782-1.0947 1.0033-1.7888 2.3694-1.9536 3.8452v10.3362c-.0134 1.1963.4402 2.3508 1.2645 3.218.7384.7456 1.7125 1.2119 2.7563 1.3196h6.7186" stroke="#060606" stroke-linecap="round" stroke-linejoin="round" stroke-width="2.53239"/><path d="m79.1948 49.4414h5.6849c1.0236.2102 1.974.6854 2.7564 1.3782 1.0932 1.0044 1.7869 2.3699 1.9535 3.8452v10.3362c.0116 1.1961-.4418 2.3498-1.2645 3.218-.7384.7456-1.7125 1.2119-2.7563 1.3196h-6.7186" fill="#f1eee0"/><path d="m79.1948 49.4414h5.6849c1.0236.2102 1.974.6854 2.7564 1.3782 1.0932 1.0044 1.7869 2.3699 1.9535 3.8452v10.3362c.0116 1.1961-.4418 2.3498-1.2645 3.218-.7384.7456-1.7125 1.2119-2.7563 1.3196h-6.7186" stroke="#060606" stroke-linecap="round" stroke-linejoin="round" stroke-width="2.53239"/><path d="m24.3562 31.4663c.7442-2.4394 2.8701-6.5464 6.6635-10.5086 1.4608-1.5298 8.2449-8.0898 17.8576-8.4998 11.463-.4893 19.663 7.5799 21.0757 9.1304 3.7485 4.1103 5.7365 10.4224 6.5084 12.9961-2.3258.0551-6.3086-.0586-8.6342 0-.541-1.771-2.1741-4.7961-4.6962-7.6558-1.1094-1.2506-4.5376-4.8718-11.2218-5.8572-6.622-.975-10.2225 1.4643-11.8177 2.4394-6.1019 3.7314-7.7523 9.909-9.1304 11.0564-1.895.0585-5.2267-.0587-7.1217 0 .317-.5755.2033-2.5256.5168-3.1009z" fill="#f1eee0"/><path d="m78.2767 69.0218c-.0552-9.7598-.1126-19.5218-.1724-29.2862-.1271-4.1449-1.1869-8.2078-3.1009-11.8866-7.1389-13.5268-16.7653-15.849-24.7484-15.849h.1137c-7.9796 0-17.6061 2.3222-24.7484 15.849-1.9124 3.6793-2.9722 7.742-3.1009 11.8866-.0598 9.7598-.1172 19.5218-.1724 29.2862" stroke="#060606" stroke-linecap="round" stroke-linejoin="round" stroke-width="2.53239"/><path d="m22.923 35.601c1.7399-.0207 4.8614-.0378 6.6014-.0585.6206.0502 1.2417-.0892 1.7813-.3998 1.1817-.7339 4.4997-8.2448 8.9822-10.8151 2.0432-1.1714 4.1758-2.6392 9.3026-2.7563" stroke="#060606" stroke-linecap="round" stroke-linejoin="round" stroke-width="2.53239"/><path d="m76.4603 35.601c-1.7227-.0207-4.8614-.0378-6.6014-.0585-.6206.0502-1.2417-.0892-1.7813-.3998-1.1817-.7339-4.4997-8.2448-8.9822-10.8151-2.0431-1.1749-4.1759-2.6392-9.3026-2.7563" stroke="#060606" stroke-linecap="round" stroke-linejoin="round" stroke-width="2.53239"/><path d="m78.2755 68.6504c0 3.187.1137 5.6126-.1722 7.4628-.6305 4.107-3.6729 6.0881-6.7186 6.691-5.8159.0207-10.4879-.0207-16.3072 0" stroke="#060606" stroke-linecap="round" stroke-linejoin="round" stroke-width="2.53239"/><path d="m52.265 88.8336c3.2348 0 5.8572-2.6224 5.8572-5.8572 0-3.2349-2.6224-5.8573-5.8572-5.8573-3.2349 0-5.8572 2.6224-5.8572 5.8573 0 3.2348 2.6223 5.8572 5.8572 5.8572z" fill="#89c32e" stroke="#060606" stroke-linecap="round" stroke-linejoin="round" stroke-width="2.53239"/><g fill="#060606"><path d="m31.8796 60.5631v-2.0293l5.3852-5.2784c.5168-.5203.944-.9854 1.2885-1.3782.3109-.3537.5707-.7492.7718-1.1749.1725-.3797.2606-.7923.2584-1.2093.0107-.445-.1091-.8834-.3445-1.2611-.2226-.353-.5402-.636-.9164-.8166-.4134-.1953-.8661-.2932-1.3231-.2859-.4673-.0112-.9297.0968-1.3437.3135-.3761.204-.685.5128-.889.8889-.2199.4253-.3277.8997-.3134 1.3782h-2.6738c-.0168-.9035.2221-1.7933.6892-2.5669.4493-.7262 1.0941-1.3112 1.8605-1.6882.8481-.4129 1.7822-.6184 2.7253-.5995.9516-.0238 1.8956.1756 2.7563.5823.7482.3542 1.3847.9072 1.8399 1.5986.4409.692.6685 1.4984.6546 2.3188-.0028.5911-.1198 1.176-.3446 1.7227-.2942.6768-.6892 1.3053-1.1714 1.864-.7338.8692-1.5159 1.6962-2.3429 2.4773l-2.6736 2.7184v.1068h6.7599v2.3463z"/><path d="m44.2551 57.6862v-2.2361l6.5842-10.3983h1.864v3.18h-1.137l-4.4411 7.0081v.1206h9.1889v2.3119zm7.4008 2.8768v-3.559l.031-.9992v-10.953h2.653v15.5044z"/><path d="m61.2225 53.7479v6.8151h-2.7564v-15.5044h2.6806v5.8572h.1378c.2553-.6355.6974-1.1785 1.2679-1.5573.6591-.4031 1.4228-.602 2.1947-.5719.7361-.0175 1.464.157 2.1121.5064.6055.3424 1.0932.8601 1.3989 1.485.3507.7458.5207 1.5639.4961 2.3877v7.4077h-2.7564v-6.9839c.0409-.6646-.1749-1.3195-.6029-1.8296-.2172-.2239-.4801-.3983-.7709-.5113s-.6025-.1618-.9139-.1433c-.4527-.0083-.8999.0996-1.299.3136-.3798.2092-.6909.5239-.8958.9062-.214.4426-.3147.9316-.2928 1.4228z"/><path d="m12.5574 41.8379c-3.70384-.9337-7.32151 2.3738-8.16564 5.7883-.23263.8818-.23263 1.809 0 2.6909.16537.5856 1.40226.2825 1.30578-.317-.27908-1.7778.63743-3.7142 1.75031-5.051.56768-.7085 1.28394-1.2835 2.0982-1.6848.74945-.3681 1.60875-.4454 2.41185-.217.2104.0403.428.0153.6239-.0715.1958-.0868.3604-.2314.4717-.4144.1929-.3963-.1515-.6408-.4927-.7235z"/><path d="m4.11917 38.4634c-1.25758.1998-2.60474.7062-3.397181 1.7571-.400782.5058-.649371 1.1153-.71667533 1.7572-.03253147.7561.08455493 1.5113.34454233 2.2222.196389.5824 1.378184.2895 1.309274-.3169-.09191-.6394-.08379-1.2892.02411-1.926.02756-.131.05171-.2619.08272-.3928 0-.0689.03442-.1379.0551-.2067-.04479.1515.02755-.062.03789-.0896.04347-.1111.09414-.2193.15162-.3238.02412-.0449.04823-.0862.07579-.1276l.05169-.0861c-.05512.0827-.06201.093 0 .031.06202-.062.14127-.1792.22396-.2619l.13783-.1377c-.14126.1482-.0379.031 0 0 .09992-.0759.1998-.1516.30661-.2206l.06548-.0412-.05169.0309c.03446 0 .15161-.0792.18607-.0964.1137-.0552.2274-.1035.34454-.1482.03445 0 .23082-.1136.09989-.0379-.13092.0758.06893-.0207.10683-.031.28759-.0818.57984-.1462.87515-.193.34454-.0517.789-.3962.68908-.7821s-.64432-.4376-.97853-.3824z"/><path d="m87.7837 42.2977c1.7503-.4411 3.6314.2825 5.0095 1.4815 1.2477 1.0853 2.3192 2.7736 2.0675 4.479-.1034.6719 1.1713.4514 1.3197-.0723.5753-2.0672-.6032-4.1138-2.1467-5.4231-.881-.7668-1.93-1.315-3.0636-1.6-1.1326-.2849-2.3161-.2986-3.4551-.0401-.3445.0827-.7925.3756-.6891.7822s.6512.4651.9785.3824z"/><path d="m97.2672 39.587c.1968 0-.1789-.0206-.0477 0h.1133c.0485 0 .293.062.1375.0206-.1546-.0413 0 0 .0279 0l.1132.0449c.027.0177.0558.0315.0863.0412-.1447-.0206-.1204-.0723-.0242 0 .0611.0418.1195.0867.1762.1345.0962.0792-.0342-.0001-.0279-.0311.0279.0352.0575.0685.0899.1.0494.0626.0962.1283.1375.1964l.0522.093c.0863.1482-.0207-.0792 0 .024.0692.1841.124.373.1654.5652.0206.1137.0341.2239.0449.3446 0 .0241 0 .2446 0 .0998v.1654c0 .6581-.0009 1.3093-.0692 1.9674-.0692.658 1.1129.4995 1.2747.0482.2967-.6986.4603-1.4464.4827-2.205.0041-.5574-.1141-1.1088-.3452-1.616-.4162-.8682-1.3223-1.2197-2.2392-1.2266-.3686 0-.8819.255-.934.6546-.0513.3997.4243.5755.7587.5789z"/></g></g></svg>