<svg fill="none" height="100" viewBox="0 0 100 100" width="100" xmlns="http://www.w3.org/2000/svg"><path d="m61.9994 77.0557 10.0726-10.0726 10.1887 10.1887c2.7794 2.7794 2.7794 7.2932 0 10.0726s-7.2932 2.7794-10.0726 0z" fill="#89c32e"/><g fill="#000"><path d="m59.924 69.9716-2.3584 2.3585 5.0072 5.0072 2.3585-2.3584z"/><path d="m67.3441 62.5468-2.3585 2.3585 5.0072 5.0072 2.3585-2.3585z"/><path d="m77.2215 90.9912c-2.2475 0-4.5054-.8518-6.2192-2.5657l-11.3713-11.3712 12.4283-12.4283 11.3712 11.3712c3.4278 3.4278 3.4278 9.0005 0 12.4283-1.7139 1.7139-3.9614 2.5657-6.2192 2.5657zm-12.8696-13.9369 9.0108 9.0107c2.1244 2.1244 5.5932 2.1244 7.7074 0 2.1244-2.1244 2.1244-5.583 0-7.7176l-9.0108-9.0108-7.7176 7.7177z"/></g><path d="m84.0668 27.1562c-.9339-4.0025-3.0378-7.5535-5.9319-10.2834l1.4266-2.463c.4823-.8313.195-1.8884-.6363-2.3708l-5.2033-3.00697c-.8313-.48235-1.8883-.19499-2.3707.6363l-1.4163 2.46307c-1.8781-.5645-3.8691-.8723-5.9319-.8723s-4.0641.3078-5.9524.8723l-1.4265-2.46307c-.4824-.83129-1.5395-1.11865-2.3708-.6363l-5.2032 3.00697c-.8313.4824-1.1187 1.5395-.6363 2.3708l1.4368 2.4836c-2.8839 2.7299-4.9775 6.2705-5.9114 10.273h-2.8839c-.9544 0-1.7344.78-1.7344 1.7345v6.0037c0 .9545.78 1.7344 1.7344 1.7344h2.8942c.9441 3.982 3.0378 7.5124 5.9216 10.2218l-1.4573 2.5247c-.4824.8313-.195 1.8883.6363 2.3707l5.2032 3.007c.8313.4823 1.8884.195 2.3708-.6363l1.4573-2.5247c1.8781.5645 3.8588.8621 5.9216.8621s4.0333-.3079 5.9011-.8621l1.4471 2.5144c.4824.8313 1.5394 1.1187 2.3707.6363l5.2033-3.007c.8313-.4823 1.1186-1.5394.6363-2.3707l-1.4471-2.5041c2.8839-2.7197 4.9877-6.2501 5.9422-10.2423h2.8736c.9544 0 1.7344-.78 1.7344-1.7344v-6.0038c0-.9544-.78-1.7344-1.7344-1.7344h-2.8531zm-19.9817 12.6951c-4.3001 0-7.7895-3.4894-7.7895-7.7895s3.4894-7.7895 7.7895-7.7895c4.3002 0 7.7895 3.4894 7.7895 7.7895s-3.4893 7.7895-7.7895 7.7895z" fill="#f1eee0"/><path d="m72.8598 56.7755c-.3079 0-.6158-.0411-.9134-.1232-.9134-.2463-1.6728-.8313-2.1449-1.642l-.7697-1.3239c-3.3047.7594-6.7735.7594-10.0781 0l-.7697 1.3341c-.4721.8211-1.2316 1.406-2.145 1.6421-.9133.2463-1.8575.1231-2.6786-.3489l-5.2032-2.9968c-.821-.4721-1.406-1.2315-1.6421-2.1449-.2463-.9134-.1231-1.8679.349-2.6786l.7697-1.3342c-2.3297-2.4939-4.0538-5.4701-5.0493-8.7234h-1.5292c-1.9499 0-3.5304-1.5805-3.5304-3.5304v-6.0038c0-1.9499 1.5805-3.5304 3.5304-3.5304h1.5087c.9852-3.2635 2.7093-6.2603 5.0493-8.7644l-.7492-1.2931c-.4721-.8211-.5953-1.7652-.349-2.6786s.8313-1.6729 1.6421-2.145l5.2032-3.01724c.8211-.47209 1.7653-.59524 2.6786-.34894.9134.24631 1.6729.83129 2.145 1.64206l.7389 1.27262c3.3252-.76974 6.8248-.76974 10.1397 0l.7286-1.27262c.4721-.82103 1.2316-1.40601 2.145-1.64206.9134-.2463 1.8678-.12315 2.6786.34894l5.2032 2.99674c1.6831.975 2.2681 3.1404 1.2931 4.8235l-.7389 1.2829c2.3502 2.5144 4.0743 5.5009 5.0596 8.7747h1.4778c1.95 0 3.5304 1.5805 3.5304 3.5304v6.0038c0 1.9499-1.5804 3.5304-3.5304 3.5304h-1.4983c-.9955 3.2636-2.73 6.2398-5.0699 8.7439l.7595 1.3137c.9749 1.6831.3899 3.8485-1.2932 4.8235l-5.2032 3.007c-.5439.3181-1.1494.4721-1.7549.4721zm-2.1141-7.3072 2.1654 3.746 5.1212-3.0276-2.186-3.6535 1.0365-.975c2.6992-2.5349 4.567-5.7677 5.4188-9.3494l.3284-1.3855h4.2899l-.0616-5.9422-4.218.0616-.3284-1.3855c-.8416-3.592-2.7094-6.835-5.4085-9.3802l-1.0366-.975 2.1347-3.6946-5.1725-2.9146-2.0423 3.6638-1.3649-.4105c-3.5202-1.0571-7.3277-1.0571-10.8478 0l-1.365.4105-2.1347-3.6946-5.1109 3.0275 2.1655 3.633-1.0263.975c-2.6888 2.5452-4.5567 5.7883-5.3982 9.37l-.3284 1.3855h-4.3104l.0616 5.9421 4.259-.0615.3284 1.3854c.8519 3.5715 2.7197 6.8043 5.4085 9.3392l1.0366.975-2.1655 3.7562 5.1725 2.9146 2.0834-3.7254 1.3649.4105c3.4996 1.0468 7.2866 1.0468 10.7862 0l1.365-.4105zm-6.6709-7.8305c-5.2853 0-9.5854-4.3001-9.5854-9.5855 0-5.2853 4.3001-9.5854 9.5854-9.5854 5.2854 0 9.5855 4.3001 9.5855 9.5854 0 5.2854-4.3001 9.5855-9.5855 9.5855zm0-15.5892c-3.3046 0-5.9935 2.6888-5.9935 5.9935 0 3.3046 2.6889 5.9935 5.9935 5.9935 3.3047 0 5.9935-2.6889 5.9935-5.9935 0-3.3047-2.6888-5.9935-5.9935-5.9935z" fill="#000"/><path d="m69.8015 55.01-.7697-1.3239c-3.007.6978-6.1474.7491-9.175.1744-.9749 2.4015-2.4323 4.6593-4.3822 6.6093-7.769 7.7689-20.3615 7.7689-28.1201 0-7.7587-7.769-7.769-20.3615 0-28.1202 3.0685-3.0686 6.8966-4.9056 10.8888-5.5522.6466-.862 1.6626-1.4368 2.8223-1.4368h1.5086c.9134-3.007 2.4528-5.7779 4.5157-8.1589-9.37-1.8063-19.4481.9134-26.7039 8.1692-11.61753 11.6175-11.61753 30.4498 0 42.0673 11.6175 11.6176 30.4498 11.6176 42.0673 0 3.5715-3.5714 6.0346-7.8202 7.4098-12.3359-.0205-.0308-.0513-.0616-.0719-.0923z" fill="#fff"/><path d="m69.8015 55.0104-.7697-1.3239c-.1745.041-.349.0718-.5234.1026-1.2624 4.6696-3.7254 8.9595-7.2456 12.4693-5.3059 5.3059-12.3564 8.2206-19.8586 8.2206-7.5021 0-14.5526-2.9249-19.8585-8.2206-5.3059-5.3058-8.2205-12.3564-8.2205-19.8585 0-7.5022 2.9249-14.5527 8.2205-19.8586 5.3059-5.3059 12.3564-8.2205 19.8585-8.2205 1.5189 0 3.0071.1231 4.4849.3592.5337-.7287 1.0981-1.4266 1.7242-2.0936l-.6363-1.1084c-1.8166-.3182-3.6741-.4926-5.5625-.4926-8.395 0-16.2768 3.2635-22.219 9.2057s-9.1955 13.824-9.1955 22.2088c0 8.3847 3.2636 16.2768 9.2058 22.219 5.9319 5.9319 13.824 9.2057 22.219 9.2057s16.2768-3.2635 22.219-9.2057c3.4996-3.4996 6.0653-7.6869 7.5842-12.2538-.585-.3079-1.0776-.7697-1.4162-1.3547z" fill="#000"/><path d="m26.1742 31.1595c-8.4053 8.4052-8.4053 22.0753 0 30.4806 4.1975 4.1975 9.7189 6.3013 15.2403 6.3013s11.0428-2.1038 15.2403-6.3013c2.2065-2.2065 3.8177-4.7825 4.8646-7.533-.8621-.0923-1.7242-.236-2.576-.431l-.7697 1.3342c-.3695.6363-.9134 1.1186-1.56 1.4265-.6671 1.0058-1.4368 1.9602-2.3296 2.8531-7.1019 7.1018-18.6681 7.1018-25.77 0-7.1019-7.1019-7.1019-18.6681 0-25.77 2.5657-2.5657 5.7164-4.1872 9.0313-4.9056.1437-1.8165 1.6523-3.2636 3.4996-3.2636h1.5086c.0411-.1437.1027-.2874.1437-.431-5.9421-.3592-12.0075 1.7139-16.5436 6.2398z" fill="#000"/></svg>