<svg fill="none" height="100" width="100" xmlns="http://www.w3.org/2000/svg" xmlns:xlink="http://www.w3.org/1999/xlink"><clipPath id="a"><path d="m0 0h100v100h-100z"/></clipPath><g clip-path="url(#a)"><path d="m39.76 87.28h20.29l6.67-16.13h-33.63z" fill="#89c32e"/><path d="m33.09 65.59v5.56h33.62v-5.78c0-3.16 1.16-6.22 3.27-8.57 4.31-4.79 6.94-11.12 6.94-18.08 0-15.5-13.04-27.95-28.75-26.97-13.77.85-24.85 12.29-25.29 26.08-.24 7.32 2.45 14.01 6.97 19.01 2.15 2.38 3.23 5.53 3.23 8.74z" fill="#fff"/><path d="m39.01 59.37v11.78h21.8v-11.92c0-2.05.75-4.03 2.12-5.55 2.8-3.1 4.5-7.21 4.5-11.72 0-10.05-8.45-18.12-18.64-17.48-8.93.55-16.11 7.97-16.39 16.91a17.46 17.46 0 0 0 4.52 12.32c1.39 1.54 2.1 3.59 2.1 5.67z" fill="#f1eee0"/><g fill="#060606"><path d="m61.07 88.81h-22.33l-7.18-17.36v-5.86c0-2.95-1.01-5.69-2.84-7.71-4.99-5.51-7.6-12.64-7.36-20.09.47-14.56 12.21-26.66 26.73-27.56 7.98-.49 15.57 2.24 21.37 7.69 5.72 5.38 9 12.96 9 20.81 0 7.07-2.61 13.85-7.34 19.1a11.224 11.224 0 0 0 -2.88 7.54v6.08l-7.18 17.36zm-20.28-3.07h18.23l6.16-14.9v-5.47c0-3.56 1.3-6.97 3.67-9.59a25.448 25.448 0 0 0 6.55-17.05c0-7.11-2.85-13.71-8.04-18.58-5.18-4.87-11.95-7.3-19.08-6.86-12.96.8-23.43 11.61-23.85 24.6-.21 6.65 2.12 13.01 6.57 17.93 2.34 2.59 3.63 6.05 3.63 9.77v5.25z"/><path d="m67.09 69.61h-34.52v3.07h34.52zm-4.84 7.92h-18.23v3.07h18.23z"/><path d="m56.9 70.41-3.06-.2.84-13 5.13-12.36-5.71 3.03-4.31-3.68-4.59 3.67-5.33-2.93 5.15 12.48.79 12.79-3.06.19-.76-12.28-8.28-20.07 11.17 6.15 4.98-3.98 4.64 3.97 11.41-6.05-8.2 19.78zm-39.36-32.76h-9.29v3.07h9.29zm74.5 0h-9.29v3.07h9.29zm-40.36-39.36h-3.07v8.29h3.07zm-29.656 10.6-2.17 2.171 6.15 6.152 2.172-2.17-6.152-6.152zm52.87 51.367-1.643 2.594 8.042 5.094 1.643-2.594-8.043-5.094zm-51.973-.629-7.578 4.514 1.571 2.637 7.578-4.513zm55.354-50.74-6.151 6.151 2.17 2.17 6.152-6.15-2.17-2.172z"/></g></g></svg>