<svg fill="none" height="100" viewBox="0 0 100 100" width="100" xmlns="http://www.w3.org/2000/svg"><path d="m81.8 8.15039-18.87 6.25001 6.14 4.17-22.09 32.34-14.66-9.23-26.44 38.69 7.73 5.24 20.96-31.12 14.67 9.23 27.56-39.9 6.14 4.17z" fill="#89c32e"/><path d="m14.05 87.8797-10.43-7.08 28.24-41.33 14.67 9.23 20.29-29.7-7.52-5.11 24.01-7.96001 1.46 25.25001-7.53-5.11-27.53 39.85-14.65-9.22-20.99 31.17zm-5.91-7.94 5.03 3.42 20.93-31.08 14.68 9.24 27.59-39.94 4.75 3.23-.83-14.44-13.73 4.55 4.77 3.24-23.89 34.97-14.67-9.23z" fill="#060606"/><path d="m73.06 32.0997-6.94 10.04c2.22 7.25.48 15.45-5.26 21.19-8.26 8.26-21.66 8.26-29.92 0s-8.26-21.66 0-29.92c7.49-7.49 19.18-8.17 27.45-2.09l5.93-8.69c-12.37-8.87-29.69-7.76-40.8 3.36-12.36 12.36-12.36 32.4 0 44.76s32.4 12.36 44.76 0c10.48-10.48 12.07-26.49 4.77-38.65z" fill="#fff"/><path d="m68.38 38.8597c1.24 2.92 1.92 6.13 1.92 9.5 0 13.46-10.95 24.41-24.4 24.41s-24.41-10.95-24.41-24.41 10.95-24.4 24.41-24.4c5.35 0 10.3 1.73 14.33 4.67l2.25-3.3c-4.67-3.37-10.39-5.36-16.58-5.36-15.66 0-28.41 12.74-28.41 28.4s12.74 28.41 28.41 28.41 28.4-12.74 28.4-28.41c0-4.8-1.2-9.32-3.31-13.28l-2.62 3.79z" fill="#f1eee0"/><path d="m65.57 48.3605c0 5.26-2.05 10.2-5.76 13.91s-8.66 5.76-13.91 5.76-10.2-2.05-13.91-5.76c-3.72-3.72-5.76-8.66-5.76-13.91s2.05-10.2 5.76-13.91c3.72-3.72 8.66-5.76 13.91-5.76 4.26 0 8.3 1.37 11.67 3.86l1.67-2.45c-3.85-2.82-8.47-4.37-13.34-4.37-6.05 0-11.73 2.36-16.01 6.63-4.28 4.28-6.63 9.96-6.63 16.01s2.36 11.73 6.63 16.01 9.96 6.63 16.01 6.63 11.73-2.36 16.01-6.63 6.63-9.96 6.63-16.01c0-2.68-.49-5.28-1.38-7.73l-2.15 3.12c.36 1.49.56 3.03.56 4.61z" fill="#060606"/><path d="m73.97 30.7802-1.85 2.68c6.54 11.51 4.91 26.43-4.89 36.24-5.7 5.7-13.27 8.84-21.33 8.84s-15.63-3.14-21.33-8.84-8.84-13.27-8.84-21.33 3.14-15.63 8.84-21.33 13.27-8.84 21.33-8.84c6.4 0 12.5 1.99 17.59 5.66l1.67-2.45c-5.58-4.01-12.25-6.17-19.26-6.17-8.85 0-17.17 3.45-23.43 9.71s-9.71 14.58-9.71 23.43 3.45 17.17 9.71 23.43 14.58 9.71 23.43 9.71 17.17-3.45 23.43-9.71c11.12-11.12 12.66-28.23 4.65-41.02z" fill="#060606"/><path d="m67.2237 80.4119 10.7127-10.7127 10.649 10.649c2.9557 2.9557 2.9557 7.7641 0 10.7198s-7.764 2.9557-10.7197 0l-10.6491-10.6491z" fill="#89c32e"/><g fill="#060606"><path d="m65.3785 73.6294-2.1001 2.1001 4.7659 4.7659 2.1001-2.1001z"/><path d="m73.2697 65.7587-2.1004 2.0997 4.765 4.7667 2.1005-2.0997z"/><path d="m83.24 94.7606c-2.32 0-4.64-.88-6.41-2.65l-11.7-11.7 12.81-12.81 11.7 11.7c1.71 1.71 2.66 3.99 2.66 6.41s-.94 4.7-2.66 6.41c-1.77 1.77-4.09 2.65-6.41 2.65zm-13.91-14.35 9.6 9.6c2.38 2.38 6.24 2.38 8.62 0 1.15-1.15 1.79-2.68 1.79-4.31s-.63-3.16-1.79-4.31l-9.6-9.6z"/></g></svg>