<?xml version="1.0" encoding="UTF-8"?>
<svg xmlns="http://www.w3.org/2000/svg" viewBox="0 0 428.63 257.89">
  <defs>
    <style>
      .cls-1 {
        fill: #9badea;
      }

      .cls-1, .cls-2, .cls-3, .cls-4, .cls-5, .cls-6, .cls-7, .cls-8, .cls-9, .cls-10, .cls-11, .cls-12, .cls-13, .cls-14, .cls-15, .cls-16, .cls-17, .cls-18, .cls-19, .cls-20, .cls-21, .cls-22, .cls-23, .cls-24, .cls-25, .cls-26, .cls-27, .cls-28, .cls-29, .cls-30, .cls-31, .cls-32, .cls-33, .cls-34, .cls-35, .cls-36, .cls-37, .cls-38, .cls-39, .cls-40, .cls-41, .cls-42, .cls-43, .cls-44, .cls-45, .cls-46, .cls-47, .cls-48, .cls-49, .cls-50, .cls-51, .cls-52, .cls-53, .cls-54, .cls-55, .cls-56, .cls-57, .cls-58, .cls-59 {
        stroke-width: 0px;
      }

      .cls-2 {
        fill: #feca24;
      }

      .cls-3 {
        fill: #d4dfed;
      }

      .cls-4 {
        fill: #000;
      }

      .cls-5 {
        fill: #201714;
      }

      .cls-6 {
        fill: #456fff;
      }

      .cls-7 {
        fill: #c2c0f5;
      }

      .cls-8 {
        fill: #ffab81;
      }

      .cls-9 {
        fill: #b5c4fc;
      }

      .cls-10 {
        fill: #b41b2e;
      }

      .cls-11 {
        fill: #ffc99e;
      }

      .cls-12 {
        fill: #d95b4b;
      }

      .cls-60 {
        isolation: isolate;
      }

      .cls-13 {
        fill: #5f88ff;
      }

      .cls-14 {
        fill: #ffa718;
      }

      .cls-15 {
        fill: #e09d03;
      }

      .cls-16 {
        fill: #1a193a;
      }

      .cls-17 {
        fill: #d6def2;
      }

      .cls-18 {
        fill: #799924;
      }

      .cls-19 {
        fill: #a2786e;
      }

      .cls-20 {
        fill: #6350ba;
      }

      .cls-21 {
        fill: #ff5746;
      }

      .cls-22 {
        fill: #a1c23c;
      }

      .cls-23 {
        fill: #7c5230;
      }

      .cls-24 {
        fill: #e3bb1f;
      }

      .cls-25 {
        fill: #f2c441;
      }

      .cls-26 {
        fill: #fecd01;
      }

      .cls-27 {
        fill: #d9e1f4;
      }

      .cls-28 {
        fill: #b7c6f7;
      }

      .cls-29 {
        fill: #4d3420;
      }

      .cls-30 {
        fill: #7858c5;
      }

      .cls-31 {
        fill: #2c387e;
      }

      .cls-32 {
        fill: #e7ad30;
      }

      .cls-33 {
        fill: #fed201;
      }

      .cls-34 {
        fill: #ffc61a;
      }

      .cls-35 {
        fill: #c9d4f9;
      }

      .cls-36 {
        fill: #c1a4f5;
      }

      .cls-37 {
        fill: #c6c2fc;
      }

      .cls-38 {
        fill: #272236;
      }

      .cls-39 {
        fill: #e2e3fd;
      }

      .cls-40 {
        fill: #850036;
      }

      .cls-41 {
        fill: #9de2ff;
      }

      .cls-42 {
        fill: #534248;
      }

      .cls-43 {
        fill: #d9756c;
      }

      .cls-44 {
        fill: #c1d2fb;
      }

      .cls-45 {
        fill: #312c44;
      }

      .cls-46 {
        fill: #f3f6ff;
      }

      .cls-47 {
        fill: #fff;
      }

      .cls-48 {
        fill: #f0f4ff;
      }

      .cls-49 {
        fill: #e7eefa;
      }

      .cls-50 {
        fill: #4c52f4;
      }

      .cls-51 {
        fill: #f0d446;
      }

      .cls-52 {
        fill: #f2c722;
      }

      .cls-53 {
        fill: #cedeef;
      }

      .cls-54 {
        fill: #c64338;
      }

      .cls-55 {
        fill: #8166d1;
      }

      .cls-56 {
        fill: #8395db;
      }

      .cls-57 {
        fill: #b3bfff;
      }

      .cls-58 {
        fill: #baeeff;
      }

      .cls-59 {
        fill: #ed4537;
      }

      .cls-61 {
        mix-blend-mode: overlay;
        opacity: .15;
      }
    </style>
  </defs>
  <g class="cls-60">
    <g id="_Ñëîé_1" data-name="Ñëîé 1">
      <g>
        <path class="cls-58" d="M402.83,250.41s48.05-72.29,13-90.86c-26.16-13.86-48.15,8.51-48.15,8.51,0,0,37.84-88.48-2.63-103.7-40.47-15.22-44.76,39.08-44.76,39.08,0,0,6.64-110.98-75.56-103.04-61.74,5.96-50.19,67.7-50.19,67.7,0,0-50.51-17.71-83.41,16.54-38.69,40.27,12.99,88.31,12.99,88.31,0,0-49.35-29.47-79.24-10.8-33.6,20.99-28.68,50.77-3.16,85.73l361.12,2.52Z"/>
        <g>
          <g>
            <path class="cls-51" d="M103.5,161.43c-.13,0-.25-.05-.34-.16-.46-.54-.94-1.11-1.45-1.74-.16-.19-.13-.48.07-.63.19-.16.48-.13.63.07.5.62.97,1.19,1.43,1.72.16.19.14.47-.05.63-.08.07-.19.11-.29.11Z"/>
            <path class="cls-51" d="M99.35,156.22c-.14,0-.27-.06-.36-.18-.39-.52-.79-1.04-1.19-1.57-.49-.64-.98-1.29-1.47-1.94-.15-.2-.11-.48.08-.63.2-.15.48-.11.63.08.5.65.99,1.3,1.48,1.95.4.53.79,1.05,1.19,1.57.15.2.11.48-.09.63-.08.06-.18.09-.27.09ZM93.97,149.23c-.13,0-.26-.06-.35-.17-1-1.24-1.93-2.34-2.83-3.35-.17-.19-.15-.47.04-.64.19-.17.47-.15.64.04.91,1.02,1.85,2.13,2.86,3.38.16.19.13.48-.07.63-.08.07-.18.1-.28.1ZM88.06,142.68c-.11,0-.22-.04-.31-.12-1.1-1.05-2.21-2.01-3.3-2.85-.2-.15-.23-.43-.08-.63.15-.2.43-.23.63-.08,1.12.86,2.25,1.84,3.37,2.91.18.17.19.46.01.64-.09.09-.21.14-.33.14ZM81.07,137.35c-.08,0-.15-.02-.22-.06-1.28-.73-2.59-1.35-3.91-1.85-.23-.09-.35-.35-.26-.58.09-.23.35-.35.58-.26,1.37.51,2.73,1.16,4.05,1.91.22.12.29.4.17.61-.08.14-.23.23-.39.23ZM72.85,134.26s-.07,0-.1-.01c-1.31-.3-2.74-.76-4.27-1.36-.23-.09-.34-.35-.25-.58.09-.23.35-.34.58-.25,1.48.58,2.87,1.03,4.14,1.32.24.06.39.3.34.54-.05.21-.23.35-.44.35ZM64.63,131.1c-.07,0-.14-.02-.2-.05-1.28-.65-2.58-1.38-3.88-2.17-.21-.13-.28-.41-.15-.62.13-.21.41-.28.62-.15,1.28.78,2.56,1.5,3.82,2.14.22.11.31.38.2.61-.08.16-.24.25-.4.25ZM57.09,126.53c-.09,0-.18-.03-.26-.08-1.2-.84-2.39-1.74-3.55-2.67-.19-.16-.23-.44-.07-.63.16-.19.44-.23.63-.07,1.14.91,2.32,1.8,3.51,2.63.2.14.25.42.11.63-.09.12-.23.19-.37.19ZM50.2,121.02c-.11,0-.22-.04-.3-.12-1.1-.99-2.17-2.03-3.2-3.08-.17-.18-.17-.46,0-.64.18-.17.46-.17.64,0,1.01,1.04,2.07,2.06,3.16,3.04.18.17.2.45.03.64-.09.1-.21.15-.33.15ZM44.04,114.7c-.13,0-.25-.05-.34-.16-.97-1.13-1.9-2.3-2.78-3.47-.15-.2-.11-.48.09-.63.2-.15.48-.11.63.09.86,1.15,1.78,2.3,2.74,3.42.16.19.14.47-.05.63-.08.07-.19.11-.29.11ZM38.77,107.64c-.15,0-.29-.07-.38-.21-.8-1.26-1.56-2.55-2.25-3.83-.12-.22-.04-.49.18-.61.22-.12.49-.04.61.18.68,1.27,1.42,2.53,2.22,3.77.13.21.07.49-.14.62-.08.05-.16.07-.24.07ZM34.62,99.87c-.17,0-.34-.1-.41-.27-.59-1.37-1.13-2.76-1.59-4.15-.08-.24.05-.49.28-.57.24-.08.49.05.57.28.45,1.36.98,2.73,1.56,4.08.1.23,0,.49-.23.59-.06.03-.12.04-.18.04ZM31.84,91.51c-.2,0-.39-.14-.44-.35-.34-1.44-.61-2.92-.8-4.37-.03-.25.14-.47.39-.51.25-.03.47.14.51.39.19,1.43.46,2.87.79,4.29.06.24-.09.48-.34.54-.03,0-.07.01-.1.01ZM30.67,82.79c-.24,0-.44-.19-.45-.43-.02-.56-.03-1.13-.03-1.69,0-.92.03-1.85.08-2.76.01-.25.23-.44.48-.42.25.01.44.23.42.48-.05.9-.08,1.81-.08,2.71,0,.55.01,1.1.03,1.65,0,.25-.18.46-.43.47,0,0-.01,0-.02,0ZM31.19,74s-.05,0-.07,0c-.25-.04-.41-.27-.38-.51.06-.39.13-.78.2-1.17.19-1.07.4-2.14.63-3.19.05-.24.29-.4.53-.35.24.05.4.29.35.53-.22,1.04-.43,2.1-.62,3.16-.07.38-.13.77-.19,1.15-.03.22-.23.38-.44.38ZM33.03,65.39s-.08,0-.12-.02c-.24-.06-.38-.31-.32-.55.38-1.43.79-2.86,1.23-4.25.08-.24.33-.37.56-.29.24.08.37.33.29.56-.44,1.38-.85,2.79-1.22,4.21-.05.2-.24.34-.43.34ZM35.7,56.99c-.05,0-.11,0-.16-.03-.23-.09-.35-.35-.26-.58.52-1.39,1.08-2.77,1.67-4.1.1-.23.37-.33.59-.23.23.1.33.37.23.59-.58,1.32-1.14,2.69-1.65,4.06-.07.18-.24.29-.42.29ZM39.25,48.92c-.07,0-.14-.02-.2-.05-.22-.11-.31-.38-.2-.6.67-1.32,1.38-2.63,2.12-3.89.13-.21.4-.29.62-.16.21.13.29.4.16.62-.73,1.25-1.44,2.55-2.1,3.85-.08.16-.24.25-.4.25ZM43.69,41.31c-.09,0-.17-.02-.25-.08-.21-.14-.26-.42-.13-.62.82-1.23,1.68-2.44,2.56-3.62.15-.2.43-.24.63-.09.2.15.24.43.09.63-.88,1.16-1.73,2.36-2.53,3.57-.09.13-.23.2-.37.2ZM48.99,34.28c-.1,0-.21-.04-.29-.11-.19-.16-.21-.45-.05-.63.95-1.12,1.95-2.23,2.98-3.29.17-.18.46-.19.64-.01.18.17.19.46.01.64-1.01,1.05-2,2.15-2.94,3.25-.09.1-.22.16-.34.16ZM55.09,27.92c-.12,0-.24-.05-.33-.14-.17-.18-.16-.47.02-.64,1.07-1,2.19-1.98,3.33-2.93.19-.16.47-.13.63.06.16.19.13.47-.06.63-1.13.93-2.23,1.91-3.29,2.89-.09.08-.2.12-.31.12ZM61.87,22.29c-.14,0-.27-.06-.36-.18-.15-.2-.11-.48.09-.63,1.17-.87,2.39-1.73,3.62-2.55.21-.14.49-.08.62.13.14.21.08.49-.13.62-1.22.81-2.43,1.66-3.58,2.52-.08.06-.17.09-.27.09ZM69.2,17.4c-.15,0-.3-.08-.39-.22-.13-.21-.06-.49.16-.62,1.25-.75,2.55-1.48,3.85-2.18.22-.12.49-.03.61.18.12.22.03.49-.18.61-1.29.69-2.58,1.42-3.82,2.16-.07.04-.15.06-.23.06ZM76.97,13.24c-.17,0-.33-.09-.41-.26-.11-.22-.01-.49.21-.6,1.31-.63,2.67-1.24,4.03-1.83.23-.1.49,0,.59.24.1.23,0,.49-.24.59-1.35.58-2.7,1.19-4,1.81-.06.03-.13.04-.19.04ZM85.07,9.77c-.18,0-.35-.11-.42-.29-.09-.23.03-.49.26-.58,1.36-.52,2.76-1.03,4.16-1.5.24-.08.49.05.57.28.08.24-.05.49-.28.57-1.39.47-2.78.98-4.13,1.49-.05.02-.11.03-.16.03Z"/>
            <path class="cls-51" d="M93.45,6.91c-.19,0-.37-.13-.43-.32-.07-.24.06-.49.3-.56.71-.22,1.44-.43,2.17-.63.24-.07.49.07.56.31.07.24-.07.49-.31.56-.72.2-1.44.42-2.15.63-.04.01-.09.02-.13.02Z"/>
          </g>
          <g>
            <polygon class="cls-43" points="101.51 1.58 42.73 11.09 58.41 46.63 101.51 1.58"/>
            <polygon class="cls-40" points="101.51 1.58 46.54 19.74 50.08 27.76 101.51 1.58"/>
            <polygon class="cls-10" points="101.51 1.58 45.46 17.29 48.8 24.85 101.51 1.58"/>
          </g>
        </g>
        <g>
          <g>
            <path class="cls-13" d="M85.35,234.1l-64.42-.17c-4.58-.01-8.28-3.73-8.27-8.31l.23-86.95c.01-4.58,3.73-8.28,8.31-8.27l58.07.15c.17,0,.33.06.46.17l13.89,11.87c.16.14.25.34.25.55l-.22,82.69c-.01,4.58-3.73,8.28-8.31,8.27Z"/>
            <polygon class="cls-6" points="79.53 130.55 79.5 142.77 93.88 142.81 79.53 130.55 79.53 130.55"/>
            <path class="cls-6" d="M84.14,169.85l-61.68-.16c-.48,0-.88-.4-.88-.88v-1.58c0-.48.4-.88.89-.88l54.38.14,7.3.02c.48,0,.88.4.88.88v1.58c0,.48-.4.88-.89.88Z"/>
            <path class="cls-6" d="M84.35,175.6l-62.12-.16c-.36,0-.66-.3-.66-.66v-2.03c0-.36.3-.66.66-.66l62.13.16c.36,0,.66.3.66.66v2.03c0,.36-.3.66-.66.66Z"/>
            <path class="cls-6" d="M84.32,187.11l-62.12-.16c-.36,0-.66-.3-.66-.66v-2.03c0-.36.3-.66.66-.66l62.12.16c.36,0,.66.3.66.66v2.02c0,.36-.3.66-.66.66Z"/>
            <path class="cls-6" d="M84.31,192.86l-62.13-.16c-.36,0-.66-.3-.66-.66v-2.03c0-.36.3-.66.67-.66l62.13.16c.36,0,.66.3.66.66v2.03c0,.36-.3.66-.66.66Z"/>
            <path class="cls-6" d="M84.32,220.49l-62.12-.16c-.36,0-.66-.3-.66-.66v-2.03c0-.36.3-.66.66-.66l62.13.16c.36,0,.66.3.66.66v2.03c0,.36-.3.66-.66.66Z"/>
            <path class="cls-6" d="M84.31,226.24l-62.13-.16c-.36,0-.66-.3-.66-.66v-2.03c0-.36.3-.66.67-.66l62.12.16c.36,0,.66.3.66.66v2.03c0,.36-.3.66-.66.66Z"/>
            <path class="cls-6" d="M84.32,150.69l-62.13-.16c-.36,0-.66-.3-.66-.66v-2.03c0-.36.3-.66.66-.66l62.12.16c.36,0,.66.3.66.66v2.03c0,.36-.3.66-.66.66Z"/>
            <rect class="cls-6" x="51.58" y="122.97" width="3.34" height="63.44" rx=".66" ry=".66" transform="translate(-101.58 207.53) rotate(-89.85)"/>
            <path class="cls-6" d="M84.28,204.36l-62.13-.16c-.36,0-.66-.3-.66-.66v-2.03c0-.36.3-.66.67-.66l62.12.16c.36,0,.66.3.66.66v2.03c0,.36-.3.66-.66.66Z"/>
            <rect class="cls-6" x="51.53" y="176.64" width="3.34" height="63.44" rx=".66" ry=".66" transform="translate(-155.3 261.02) rotate(-89.85)"/>
            <g>
              <rect class="cls-3" y="162.52" width="86.69" height="16.19" rx="2.27" ry="2.27"/>
              <rect class="cls-47" x="5.78" y="168.96" width="64.75" height="4.03" rx="1.5" ry="1.5"/>
              <path class="cls-47" d="M83.48,170.97c0,2.56-2.07,4.63-4.63,4.63s-4.63-2.07-4.63-4.63,2.07-4.63,4.63-4.63,4.63,2.07,4.63,4.63Z"/>
            </g>
            <g>
              <rect class="cls-3" y="196.03" width="86.69" height="16.19" rx="2.26" ry="2.26"/>
              <rect class="cls-47" x="5.78" y="202.47" width="64.75" height="4.03" rx="1.5" ry="1.5"/>
              <path class="cls-47" d="M83.48,204.49c0,2.56-2.07,4.63-4.63,4.63s-4.63-2.07-4.63-4.63,2.07-4.63,4.63-4.63,4.63,2.07,4.63,4.63Z"/>
            </g>
          </g>
          <g>
            <path class="cls-31" d="M58.35,183.39l-6.58.56-4.5,4.72c-.92.96-2.49,1.17-3.48.28-.52-.47-.86-1.15-.84-1.95l.26-15.61c.04-2.11,2.47-3.28,4.13-1.98l12.33,9.58c.88.68,1.16,1.76.9,2.71-.27.98-1.21,1.61-2.22,1.7Z"/>
            <rect class="cls-31" x="50.32" y="176.53" width="6.14" height="21.6" rx="2.27" ry="2.27" transform="translate(-75.72 41.47) rotate(-25.61)"/>
          </g>
        </g>
        <ellipse class="cls-27" cx="213.44" cy="247.38" rx="207.67" ry="7.34"/>
        <g>
          <g>
            <g>
              <path class="cls-53" d="M207.02,121.01c0,2.74-2.21,4.96-4.95,4.96h-108.91c-2.74,0-4.96-2.22-4.96-4.96V52.71c0-2.74,2.22-4.96,4.96-4.96h108.91c2.74,0,4.95,2.22,4.95,4.96v68.29Z"/>
              <path class="cls-28" d="M202.07,47.75h-108.91c-2.74,0-4.96,2.22-4.96,4.96v9.21h118.82v-9.21c0-2.74-2.21-4.96-4.95-4.96Z"/>
              <path class="cls-47" d="M100.23,54.89c0,1.35-1.1,2.46-2.47,2.46s-2.46-1.1-2.46-2.46,1.1-2.47,2.46-2.47,2.47,1.1,2.47,2.47Z"/>
              <path class="cls-47" d="M106.45,54.89c0,1.35-1.11,2.46-2.47,2.46s-2.46-1.1-2.46-2.46,1.11-2.47,2.46-2.47,2.47,1.1,2.47,2.47Z"/>
              <path class="cls-47" d="M112.45,54.89c0,1.35-1.1,2.46-2.47,2.46s-2.46-1.1-2.46-2.46,1.1-2.47,2.46-2.47,2.47,1.1,2.47,2.47Z"/>
            </g>
            <g>
              <path class="cls-47" d="M210.28,121.01c0,2.74-2.21,4.96-4.95,4.96h-108.9c-2.74,0-4.96-2.22-4.96-4.96V52.71c0-2.74,2.22-4.96,4.96-4.96h108.9c2.74,0,4.95,2.22,4.95,4.96v68.29Z"/>
              <path class="cls-44" d="M205.33,47.75h-108.9c-2.74,0-4.96,2.22-4.96,4.96v9.21h118.82v-9.21c0-2.74-2.21-4.96-4.95-4.96Z"/>
              <path class="cls-47" d="M103.49,54.89c0,1.35-1.1,2.46-2.47,2.46s-2.46-1.1-2.46-2.46,1.1-2.47,2.46-2.47,2.47,1.1,2.47,2.47Z"/>
              <path class="cls-47" d="M109.71,54.89c0,1.35-1.11,2.46-2.47,2.46s-2.46-1.1-2.46-2.46,1.11-2.47,2.46-2.47,2.47,1.1,2.47,2.47Z"/>
              <path class="cls-47" d="M115.71,54.89c0,1.35-1.1,2.46-2.47,2.46s-2.46-1.1-2.46-2.46,1.1-2.47,2.46-2.47,2.47,1.1,2.47,2.47Z"/>
            </g>
          </g>
          <rect class="cls-49" x="100.23" y="75.01" width="98.18" height="3.77" rx="1.11" ry="1.11" transform="translate(298.63 153.79) rotate(180)"/>
          <rect class="cls-49" x="100.23" y="81.5" width="98.18" height="3.77" rx="1.11" ry="1.11" transform="translate(298.63 166.78) rotate(180)"/>
          <rect class="cls-49" x="100.23" y="93.81" width="98.18" height="3.77" rx="1.11" ry="1.11" transform="translate(298.63 191.39) rotate(180)"/>
          <rect class="cls-49" x="100.23" y="100.3" width="98.18" height="3.77" rx="1.11" ry="1.11" transform="translate(298.63 204.37) rotate(180)"/>
        </g>
        <g>
          <polygon class="cls-2" points="274.4 228.66 388.42 228.66 391.9 168.93 270.92 168.93 274.4 228.66"/>
          <path class="cls-15" d="M327.86,176.97c0,7.48-7.67,13.56-17.14,13.56l-38.85.34-1.54-27.45h40.39c9.47,0,17.14,6.07,17.14,13.55Z"/>
          <g>
            <g>
              <rect class="cls-53" x="284.63" y="89.3" width="86.64" height="142.53" rx="6.8" ry="6.8"/>
              <path class="cls-28" d="M365.21,89.3h-74.51c-3.34,0-6.07,2.73-6.07,6.07v14.57h86.64v-14.57c0-3.34-2.73-6.07-6.07-6.07Z"/>
              <rect class="cls-47" x="288.09" y="89.3" width="86.64" height="142.53" rx="6.8" ry="6.8"/>
              <path class="cls-44" d="M369.27,89.3h-75.73c-3,0-5.46,2.46-5.46,5.46v15.18h86.64v-15.18c0-3-2.46-5.46-5.46-5.46Z"/>
              <path class="cls-48" d="M303.18,99.65c0,1.63-1.32,2.95-2.95,2.95s-2.95-1.32-2.95-2.95,1.32-2.95,2.95-2.95,2.95,1.32,2.95,2.95Z"/>
              <path class="cls-48" d="M313.54,99.65c0,1.63-1.32,2.95-2.95,2.95s-2.95-1.32-2.95-2.95,1.32-2.95,2.95-2.95,2.95,1.32,2.95,2.95Z"/>
              <path class="cls-48" d="M323.3,99.65c0,1.63-1.32,2.95-2.95,2.95s-2.95-1.32-2.95-2.95,1.32-2.95,2.95-2.95,2.95,1.32,2.95,2.95Z"/>
              <g>
                <path class="cls-53" d="M321.56,119.72h37.19c.66,0,1.2.54,1.2,1.2v2.19c0,.66-.54,1.2-1.2,1.2h-37.19c-.66,0-1.2-.54-1.2-1.2v-2.19c0-.66.54-1.2,1.2-1.2Z"/>
                <path class="cls-53" d="M321.56,130.08h37.19c.66,0,1.2.54,1.2,1.2v2.19c0,.66-.54,1.2-1.2,1.2h-37.19c-.66,0-1.2-.54-1.2-1.2v-2.19c0-.66.54-1.2,1.2-1.2Z"/>
                <rect class="cls-53" x="320.36" y="150.8" width="39.6" height="4.6" rx="1.2" ry="1.2"/>
                <rect class="cls-53" x="320.36" y="161.16" width="39.6" height="4.6" rx="1.2" ry="1.2"/>
                <rect class="cls-53" x="320.36" y="181.87" width="39.6" height="4.6" rx="1.2" ry="1.2"/>
                <rect class="cls-53" x="320.36" y="192.23" width="39.6" height="4.6" rx="1.2" ry="1.2"/>
              </g>
              <rect class="cls-53" x="297.29" y="119.59" width="14.25" height="14.25" rx="2.27" ry="2.27"/>
              <rect class="cls-53" x="297.29" y="150.83" width="14.25" height="14.25" rx="2.26" ry="2.26"/>
              <rect class="cls-53" x="297.29" y="181.37" width="14.25" height="14.25" rx="2.26" ry="2.26"/>
            </g>
            <polygon class="cls-36" points="299.3 119.54 305.12 129.94 315.59 110.5 305.05 122.39 299.3 119.54"/>
            <polygon class="cls-36" points="299.3 151.27 305.12 161.66 315.59 142.22 305.05 154.12 299.3 151.27"/>
          </g>
          <path class="cls-26" d="M393.11,185.12l.64-11.02h-42.13c-8.74,0-16,4.75-17.56,11.02h-67.12l3.64,59.73h118.93l2.64-43.3h0v-.05s1-16.38,1-16.38h-.04Z"/>
          <g>
            <path class="cls-1" d="M340.81,257.89l-6.5-1.16,6.2-5.18c1.45.64.3,6.34.3,6.34Z"/>
            <path class="cls-9" d="M353.43,243.76s-11.3-36.92-36.44-28.19c-25.14,8.73-33.79,21.13-43.47,16.26-9.68-4.87-9.87-15.56-5.41-27.39l-1.18-19.33s-45.27,40.03-7.45,63.33c17.19,10.59,43.26-2.04,48.9-5.46,14.83-8.99,34.22-3.81,32.42,14.9l12.62-14.13Z"/>
          </g>
          <path class="cls-1" d="M266.02,206l-9.1-4.94c-.3-.16-.41-.54-.25-.84h0c.16-.3.54-.41.84-.25l9.1,4.94c.3.16.41.54.25.84h0c-.16.3-.54.41-.84.25Z"/>
          <path class="cls-1" d="M261.99,212.49l-9.1-4.94c-.3-.16-.41-.54-.25-.84h0c.16-.3.54-.41.84-.25l9.1,4.94c.3.16.41.54.25.84h0c-.16.3-.54.41-.84.25Z"/>
          <path class="cls-1" d="M261.09,220.3l-10.19-1.82c-.34-.06-.56-.39-.5-.72h0c.06-.34.39-.56.72-.5l10.19,1.82c.34.06.56.39.5.72h0c-.06.34-.39.56-.72.5Z"/>
          <path class="cls-1" d="M261.8,225.53l-10.15,2.02c-.34.07-.67-.15-.73-.49h0c-.07-.34.15-.67.49-.73l10.15-2.02c.34-.07.67.15.73.49h0c.07.34-.15.67-.49.73Z"/>
          <path class="cls-1" d="M264.51,232.12l-9.62,3.83c-.32.13-.68-.03-.81-.35h0c-.13-.32.03-.68.35-.81l9.62-3.83c.32-.13.68.03.81.35h0c.13.32-.03.68-.35.81Z"/>
          <path class="cls-1" d="M270.74,236.47l-6.64,7.94c-.22.26-.61.3-.88.08h0c-.26-.22-.3-.61-.08-.88l6.64-7.94c.22-.26.61-.3.88-.08h0c.26.22.3.61.08.88Z"/>
          <path class="cls-1" d="M270.74,236.47l-6.64,7.94c-.22.26-.61.3-.88.08h0c-.26-.22-.3-.61-.08-.88l6.64-7.94c.22-.26.61-.3.88-.08h0c.26.22.3.61.08.88Z"/>
          <path class="cls-1" d="M280.03,237.15l-3.69,9.67c-.12.32-.48.48-.8.36h0c-.32-.12-.48-.48-.36-.8l3.69-9.67c.12-.32.48-.48.8-.36h0c.32.12.48.48.36.8Z"/>
          <path class="cls-1" d="M287.45,235.51l1.35,10.26c.04.34-.2.65-.54.7h0c-.34.04-.65-.2-.7-.54l-1.35-10.26c-.05-.34.2-.65.54-.7h0c.34-.04.65.2.7.54Z"/>
          <path class="cls-1" d="M297.12,230.74l1.86,10.19c.06.34-.16.66-.5.72h0c-.34.06-.66-.16-.72-.5l-1.86-10.18c-.06-.34.16-.66.5-.72h0c.34-.06.66.16.72.5Z"/>
          <path class="cls-1" d="M305.63,226.38l2.99,9.91c.1.33-.09.68-.42.78h0c-.33.1-.68-.09-.78-.42l-2.99-9.91c-.1-.33.09-.68.42-.78h0c.33-.1.68.09.78.42Z"/>
          <path class="cls-1" d="M315.28,222.36l1.36,10.26c.05.34-.2.65-.54.7h0c-.34.04-.65-.2-.7-.54l-1.36-10.26c-.04-.34.2-.65.54-.7h0c.34-.05.65.2.7.54Z"/>
          <path class="cls-1" d="M326.23,221.68l-1.87,10.18c-.06.34-.39.56-.72.5h0c-.34-.06-.56-.39-.5-.72l1.87-10.18c.06-.34.39-.56.72-.5h0c.34.06.56.39.5.72Z"/>
          <path class="cls-1" d="M335.68,224.93l-4.74,9.2c-.16.3-.53.42-.84.27h0c-.3-.16-.43-.53-.27-.84l4.74-9.2c.16-.3.53-.43.84-.27h0c.3.16.43.53.27.84Z"/>
          <path class="cls-1" d="M343.21,230.05l-6.08,8.38c-.2.28-.59.34-.87.14h0c-.28-.2-.34-.59-.14-.87l6.08-8.38c.2-.28.59-.34.87-.14h0c.28.2.34.59.14.87Z"/>
          <path class="cls-1" d="M347.35,235.95l-6.08,8.38c-.2.28-.59.34-.87.14h0c-.28-.2-.34-.59-.14-.87l6.08-8.38c.2-.28.59-.34.87-.14h0c.28.2.34.59.14.87Z"/>
        </g>
        <g>
          <circle class="cls-25" cx="138.6" cy="177.96" r="64.61" transform="translate(-45.54 47.68) rotate(-16.81)"/>
          <path class="cls-46" d="M198,178.1c0,32.81-26.59,59.4-59.4,59.4s-59.41-26.59-59.41-59.4,26.6-59.4,59.41-59.4,59.4,26.59,59.4,59.4Z"/>
          <rect class="cls-9" x="134.17" y="123.95" width="4.43" height="13.6"/>
          <rect class="cls-9" x="107.76" y="138.35" width="3.3" height="10.16" transform="translate(-69.79 122.74) rotate(-46.08)"/>
          <rect class="cls-9" x="175.02" y="203.49" width="3.31" height="10.16" transform="translate(-96.11 191.06) rotate(-46.06)"/>
          <rect class="cls-9" x="167.97" y="146.49" width="10.16" height="3.31" transform="translate(-54.57 139.08) rotate(-38.29)"/>
          <rect class="cls-9" x="100.91" y="206.92" width="10.16" height="3.31" transform="translate(-106.47 110.62) rotate(-38.31)"/>
          <rect class="cls-9" x="134.17" y="216.97" width="4.43" height="13.6"/>
          <rect class="cls-9" x="90.15" y="168.87" width="4.42" height="13.6" transform="translate(-86.22 262.27) rotate(-88.14)"/>
          <rect class="cls-9" x="183.64" y="171.3" width="4.43" height="13.6" transform="translate(1.75 358.01) rotate(-88.12)"/>
          <path class="cls-16" d="M142.13,176.95c0,1.95-1.58,3.54-3.53,3.54s-3.53-1.58-3.53-3.54,1.58-3.53,3.53-3.53,3.53,1.58,3.53,3.53Z"/>
          <polygon class="cls-16" points="136.62 175.67 176.67 144.62 138.6 178.1 136.62 175.67"/>
          <polygon class="cls-16" points="136.2 177.65 162.88 203.98 138.96 175.22 136.2 177.65"/>
        </g>
        <path class="cls-15" d="M148.85,97.18c0,5.66-4.59,10.25-10.25,10.25s-10.25-4.59-10.25-10.25,4.59-10.25,10.25-10.25,10.25,4.59,10.25,10.25Z"/>
        <rect class="cls-25" x="120.14" y="102.48" width="36.91" height="14.13" rx="2.26" ry="2.26"/>
        <g>
          <path class="cls-56" d="M169.58,93.71h75.53c5.18,0,9.38,4.2,9.38,9.38v137.86c0,5.18-4.2,9.38-9.38,9.38h-77.82c-3.92,0-7.09-3.18-7.09-7.09V103.09c0-5.18,4.2-9.38,9.38-9.38Z" transform="translate(414.69 344.05) rotate(180)"/>
          <path class="cls-57" d="M161.93,93.71h79.93c3.96,0,7.18,3.22,7.18,7.18v139.97c0,5.23-4.24,9.47-9.47,9.47h-75.35c-5.23,0-9.47-4.24-9.47-9.47V100.89c0-3.96,3.22-7.18,7.18-7.18Z" transform="translate(403.78 344.05) rotate(180)"/>
          <rect class="cls-3" x="163.05" y="103.11" width="77.69" height="132.98" rx="11.33" ry="11.33" transform="translate(403.78 339.19) rotate(180)"/>
          <rect class="cls-49" x="167.44" y="103.11" width="73.3" height="132.98" rx="11.33" ry="11.33" transform="translate(408.17 339.19) rotate(180)"/>
          <rect class="cls-56" x="175.43" y="96.67" width="51.36" height="2.95" rx="1.03" ry="1.03" transform="translate(402.21 196.29) rotate(180)"/>
          <path class="cls-56" d="M196.89,239.16h9.99c1.32,0,2.39,1.07,2.39,2.39v2.04c0,1.32-1.07,2.39-2.39,2.39h-9.99c-1.32,0-2.39-1.07-2.39-2.39v-2.04c0-1.32,1.07-2.39,2.39-2.39Z" transform="translate(403.78 485.14) rotate(180)"/>
        </g>
        <g>
          <rect class="cls-17" x="294.35" y="46.59" width="57.53" height="23.09" rx="11.25" ry="11.25"/>
          <polygon class="cls-17" points="313.14 68.58 313.14 75.85 324.13 68.58 313.14 68.58"/>
          <circle class="cls-48" cx="310.96" cy="58.52" r="3.51"/>
          <path class="cls-48" d="M326.11,58.52c0,1.94-1.57,3.51-3.51,3.51s-3.52-1.57-3.52-3.51,1.57-3.51,3.52-3.51,3.51,1.57,3.51,3.51Z"/>
          <circle class="cls-48" cx="334.23" cy="58.52" r="3.51"/>
        </g>
        <g>
          <g>
            <path class="cls-7" d="M262.22,187.61c4.96-.56,10.18-2.11,15.65-4.64l-2.31-4.99c-10.68,4.95-20.14,5.69-28.12,2.21-12.89-5.62-17.83-20.42-17.88-20.57l-5.23,1.7c.23.7,5.78,17.31,20.91,23.91,5.22,2.28,10.9,3.07,16.99,2.38Z"/>
            <g>
              <path class="cls-55" d="M222.43,162.68c.37,3.25,3.3,5.58,6.54,5.21,3.25-.37,5.58-3.3,5.21-6.54-.37-3.25-3.3-5.58-6.54-5.21-3.25.37-5.58,3.3-5.21,6.54Z"/>
              <path class="cls-30" d="M226.11,156.53c-1.01,1.2-1.55,2.79-1.36,4.48.37,3.25,3.3,5.58,6.54,5.21.54-.06,1.05-.2,1.53-.39-.94,1.11-2.29,1.89-3.85,2.07-3.25.37-6.18-1.96-6.54-5.21-.31-2.71,1.27-5.19,3.68-6.16Z"/>
            </g>
            <g>
              <path class="cls-55" d="M239.93,182.61c.28,2.46,2.5,4.23,4.96,3.95,2.46-.28,4.23-2.5,3.95-4.96-.28-2.46-2.5-4.23-4.96-3.95-2.46.28-4.23,2.5-3.95,4.96Z"/>
              <path class="cls-30" d="M242.72,177.94c-.77.91-1.18,2.12-1.03,3.39.28,2.46,2.5,4.23,4.96,3.95.41-.05.79-.15,1.16-.3-.71.85-1.73,1.43-2.92,1.57-2.46.28-4.68-1.49-4.96-3.95-.23-2.05.96-3.93,2.79-4.66Z"/>
            </g>
          </g>
          <rect class="cls-30" x="189.94" y="141.17" width="27.73" height="9.99" rx=".5" ry=".5"/>
          <rect class="cls-55" x="193.94" y="141.17" width="23.73" height="9.99" rx=".46" ry=".46" transform="translate(411.6 292.32) rotate(180)"/>
          <path class="cls-55" d="M236.65,130.83c0,2.81-2.28,5.09-5.09,5.09s-5.09-2.28-5.09-5.09,2.28-5.09,5.09-5.09,5.09,2.28,5.09,5.09Z"/>
          <path class="cls-30" d="M201.8,118.68h3c.27,0,1-.22,1-.5l-.5-13.99c0-.27-.23-.5-.5-.5h-3c-.27,0-.5.22-.5.5l-.5,13.99c0,.27.72.5,1,.5Z"/>
          <path class="cls-30" d="M190.31,113.94h21.98c2.27,0,4.12,1.85,4.12,4.12v5.25c0,2.27-1.85,4.12-4.12,4.12h-21.98c-2.27,0-4.12-1.85-4.12-4.12v-5.25c0-2.27,1.85-4.12,4.12-4.12Z"/>
          <rect class="cls-55" x="189.19" y="113.94" width="30.23" height="13.49" rx="4.12" ry="4.12" transform="translate(408.6 241.37) rotate(180)"/>
          <path class="cls-7" d="M181.94,118.68h35.72c3.86,0,6.99,3.13,6.99,6.99v11.24c0,3.86-3.13,6.99-6.99,6.99h-35.72c-3.86,0-6.99-3.13-6.99-6.99v-11.24c0-3.86,3.13-6.99,6.99-6.99Z"/>
          <path class="cls-37" d="M187.44,118.68h35.72c3.86,0,6.99,3.13,6.99,6.99v11.24c0,3.86-3.13,6.99-6.99,6.99h-35.72c-3.86,0-6.99-3.13-6.99-6.99v-11.24c0-3.86,3.13-6.99,6.99-6.99Z"/>
          <rect class="cls-20" x="184.94" y="124.18" width="39.72" height="13.49" rx="3.62" ry="3.62"/>
          <rect class="cls-55" x="184.94" y="125.74" width="39.72" height="11.93" rx="3.41" ry="3.41"/>
          <path class="cls-47" d="M214.67,129.18c0,.97.78,1.75,1.75,1.75s1.75-.78,1.75-1.75-.78-1.75-1.75-1.75-1.75.78-1.75,1.75Z"/>
          <path class="cls-47" d="M192.69,129.18c0,.97.78,1.75,1.75,1.75s1.75-.78,1.75-1.75-.78-1.75-1.75-1.75-1.75.78-1.75,1.75Z"/>
          <path class="cls-30" d="M167.52,130.83c0,2.81,2.28,5.09,5.09,5.09s5.09-2.28,5.09-5.09-2.28-5.09-5.09-5.09-5.09,2.28-5.09,5.09Z"/>
          <path class="cls-55" d="M169.52,130.83c0,2.81,2.28,5.09,5.09,5.09s5.09-2.28,5.09-5.09-2.28-5.09-5.09-5.09-5.09,2.28-5.09,5.09Z"/>
          <path class="cls-47" d="M201.43,131.3h7.74c0,2.14-1.73,3.87-3.87,3.87s-3.87-1.73-3.87-3.87Z"/>
          <g>
            <path class="cls-52" d="M198.6,102.78c0,2.57,2.09,4.66,4.66,4.66s4.66-2.09,4.66-4.66-2.09-4.66-4.66-4.66-4.66,2.09-4.66,4.66Z"/>
            <path class="cls-24" d="M202.03,98.29c-.9.85-1.46,2.05-1.46,3.38,0,2.57,2.09,4.66,4.66,4.66.43,0,.84-.06,1.23-.17-.83.79-1.96,1.28-3.2,1.28-2.57,0-4.66-2.09-4.66-4.66,0-2.15,1.45-3.95,3.43-4.49Z"/>
          </g>
          <g class="cls-61">
            <path class="cls-4" d="M188.56,137.67c-1.99,0-3.62-1.63-3.62-3.62v-6.25c0-1.97,1.59-3.58,3.55-3.62,1.45,7.12,7.19,13.49,34.69,12.77-.6.45-1.34.71-2.14.71h-32.48Z"/>
          </g>
          <rect class="cls-39" x="225.91" y="123.1" width="2" height="15.82" rx=".68" ry=".68"/>
          <path class="cls-37" d="M231.21,173.01c0,14.99-12.15,46.88-27.15,46.88s-27.15-31.89-27.15-46.88,12.15-27.15,27.15-27.15,27.15,12.15,27.15,27.15Z"/>
          <path class="cls-55" d="M224.22,173.46c0,9-7.3,28.16-16.3,28.16s-16.3-19.15-16.3-28.16,7.3-16.3,16.3-16.3,16.3,7.3,16.3,16.3Z"/>
          <g>
            <path class="cls-7" d="M176.79,217.91l4.01-3.76c-8.06-8.58-11.74-17.33-10.95-26,1.28-14.01,13.77-23.36,13.89-23.45l-3.26-4.43c-.6.44-14.61,10.93-16.11,27.37-.94,10.3,3.24,20.48,12.42,30.26Z"/>
            <g>
              <path class="cls-55" d="M174.88,163.7c0,3.27,2.65,5.91,5.92,5.91s5.91-2.65,5.91-5.91-2.65-5.92-5.91-5.92-5.92,2.65-5.92,5.92Z"/>
              <path class="cls-30" d="M179.24,158c-1.14,1.08-1.86,2.6-1.86,4.3,0,3.27,2.65,5.92,5.92,5.92.54,0,1.06-.08,1.56-.21-1.06,1-2.49,1.62-4.06,1.62-3.27,0-5.92-2.65-5.92-5.91,0-2.73,1.85-5.01,4.35-5.7Z"/>
            </g>
            <g>
              <path class="cls-55" d="M162.51,187.97c0,2.48,2.01,4.48,4.48,4.48s4.48-2.01,4.48-4.48-2.01-4.48-4.48-4.48-4.48,2.01-4.48,4.48Z"/>
              <path class="cls-30" d="M165.81,183.65c-.86.82-1.41,1.97-1.41,3.26,0,2.48,2.01,4.48,4.48,4.48.41,0,.81-.06,1.18-.16-.8.76-1.88,1.23-3.08,1.23-2.48,0-4.48-2.01-4.48-4.48,0-2.07,1.4-3.8,3.3-4.32Z"/>
            </g>
          </g>
        </g>
        <g>
          <rect class="cls-34" x="235.35" y="44.48" width="50.38" height="33.49"/>
          <polygon class="cls-14" points="235.35 44.48 260.54 65.53 285.73 44.48 285.73 77.97 235.35 77.97 235.35 44.48"/>
          <g>
            <path class="cls-50" d="M229.75,44.78c0,3.3,2.66,5.98,5.94,5.98s5.93-2.68,5.93-5.98-2.66-5.98-5.93-5.98-5.94,2.68-5.94,5.98Z"/>
            <path class="cls-47" d="M235.04,43.32h-.02l-1.11.53-.23-1.03,1.55-.72h1.14v5.85h-1.33v-4.64Z"/>
          </g>
        </g>
        <g>
          <path class="cls-35" d="M22.99,74.52c0,2.1,1.7,3.8,3.8,3.8h51.5c2.1,0,3.8-1.7,3.8-3.8v-5.5c0-2.1-1.7-3.8-3.8-3.8H26.79c-2.1,0-3.8,1.7-3.8,3.8v5.5Z"/>
          <polygon class="cls-47" points="73.9 67.15 72.52 69.94 69.44 70.39 71.67 72.56 71.14 75.63 73.9 74.18 76.65 75.63 76.13 72.56 78.36 70.39 75.27 69.94 73.9 67.15"/>
          <polygon class="cls-33" points="63.75 67.15 62.37 69.94 59.29 70.39 61.52 72.56 60.99 75.63 63.75 74.18 66.51 75.63 65.98 72.56 68.21 70.39 65.13 69.94 63.75 67.15"/>
          <polygon class="cls-33" points="53.6 67.15 52.23 69.94 49.15 70.39 51.38 72.56 50.85 75.63 53.6 74.18 56.36 75.63 55.84 72.56 58.07 70.39 54.98 69.94 53.6 67.15"/>
          <polygon class="cls-33" points="43.46 67.15 42.09 69.94 39 70.39 41.23 72.56 40.71 75.63 43.46 74.18 46.22 75.63 45.69 72.56 47.92 70.39 44.84 69.94 43.46 67.15"/>
          <polygon class="cls-33" points="33.32 67.15 31.94 69.94 28.86 70.39 31.09 72.56 30.56 75.63 33.32 74.18 36.07 75.63 35.55 72.56 37.78 70.39 34.69 69.94 33.32 67.15"/>
          <g>
            <path class="cls-35" d="M14.04,92.76c0,2.1,1.7,3.8,3.8,3.8h51.5c2.1,0,3.8-1.7,3.8-3.8v-5.5c0-2.1-1.7-3.8-3.8-3.8H17.84c-2.1,0-3.8,1.7-3.8,3.8v5.5Z"/>
            <polygon class="cls-47" points="64.95 85.39 63.57 88.18 60.49 88.63 62.72 90.8 62.19 93.87 64.95 92.42 67.7 93.87 67.18 90.8 69.41 88.63 66.32 88.18 64.95 85.39"/>
            <polygon class="cls-47" points="54.8 85.39 53.42 88.18 50.34 88.63 52.57 90.8 52.04 93.87 54.8 92.42 57.56 93.87 57.03 90.8 59.26 88.63 56.18 88.18 54.8 85.39"/>
            <polygon class="cls-33" points="44.65 85.39 43.28 88.18 40.2 88.63 42.43 90.8 41.9 93.87 44.65 92.42 47.41 93.87 46.89 90.8 49.12 88.63 46.03 88.18 44.65 85.39"/>
            <polygon class="cls-33" points="34.51 85.39 33.14 88.18 30.05 88.63 32.28 90.8 31.76 93.87 34.51 92.42 37.27 93.87 36.74 90.8 38.97 88.63 35.89 88.18 34.51 85.39"/>
            <polygon class="cls-33" points="24.37 85.39 22.99 88.18 19.91 88.63 22.14 90.8 21.61 93.87 24.37 92.42 27.12 93.87 26.6 90.8 28.83 88.63 25.74 88.18 24.37 85.39"/>
          </g>
          <g>
            <path class="cls-35" d="M8.4,100.28h51.49c2.1,0,3.8,1.7,3.8,3.8v5.5c0,2.1-1.7,3.8-3.8,3.8H8.39c-2.1,0-3.8-1.7-3.8-3.8v-5.5c0-2.1,1.7-3.8,3.8-3.8Z"/>
            <polygon class="cls-47" points="55.5 102.2 54.12 104.99 51.04 105.44 53.26 107.61 52.74 110.68 55.5 109.23 58.25 110.68 57.72 107.61 59.95 105.44 56.87 104.99 55.5 102.2"/>
            <polygon class="cls-47" points="45.35 102.2 43.97 104.99 40.89 105.44 43.12 107.61 42.59 110.68 45.35 109.23 48.11 110.68 47.58 107.61 49.81 105.44 46.73 104.99 45.35 102.2"/>
            <polygon class="cls-47" points="35.2 102.2 33.83 104.99 30.74 105.44 32.97 107.61 32.45 110.68 35.2 109.23 37.96 110.68 37.43 107.61 39.66 105.44 36.58 104.99 35.2 102.2"/>
            <polygon class="cls-33" points="25.06 102.2 23.68 104.99 20.6 105.44 22.83 107.61 22.3 110.68 25.06 109.23 27.82 110.68 27.29 107.61 29.52 105.44 26.44 104.99 25.06 102.2"/>
            <polygon class="cls-33" points="14.92 102.2 13.54 104.99 10.46 105.44 12.69 107.61 12.16 110.68 14.92 109.23 17.67 110.68 17.15 107.61 19.37 105.44 16.29 104.99 14.92 102.2"/>
          </g>
        </g>
        <g>
          <path class="cls-18" d="M99.74,186.98c-.54-.8-2.47-1.64-4.59-.15-2.12,1.49-4.51,11.44-3.24,20.91,1.27,9.47-4.26,8.66-.92,14.71,1.32,2.38,7.81.09,6.57-6.16-3.99-19.95,5.61-24.24,2.19-29.31Z"/>
          <path class="cls-22" d="M114.72,179.96s-1.04-4.28-5.7-2.39c-4.66,1.88-7.26,5.64-7.77,13.51-.52,7.87-3.45,10.09-5.87,15.39-2.42,5.3-2.25,16.93,3.11,17.62,5.36.69,5.46-10.46,8.98-13,5.7-4.1,1.95-9.9,1.55-13.34-.86-7.52,7.95-9.06,5.7-17.79Z"/>
          <path class="cls-22" d="M89.79,214.51s-1.3,1.84-3.76-1.97c-2.31-3.58-5.05-6.86-4.19-11.94.86-5.08-7.54-19.57-.15-23.51,3.97-2.12,12.46-2.43,11.44,13.82-1.24,19.71.11,18.81-3.34,23.6Z"/>
          <path class="cls-18" d="M115.99,209.9c-.64-1.12-2.77-2.62-5.18,0,0,0-1.84,1.8-2.53,5.06-.69,3.26-2.05,6.23-3.79,7.71-1.74,1.49-5.08,4.56-1.86,5.13,3.22.57,18.91-8.24,13.36-17.9Z"/>
          <path class="cls-22" d="M79.67,197.49c.15-1.41.09-4.57-3.57-4.74-3.65-.17-7.37,3.51-4.49,10.8,2.88,7.29,2.97,16.83,11,17.56,8.03.73,1.09-6.27.52-6.91-3.2-3.57-4.29-9.13-3.47-16.71Z"/>
          <path class="cls-18" d="M95.05,236.07l.29-.18c-9.14-14.84-9.25-54.11-9.25-54.5h-.35c0,.39.11,39.76,9.3,54.68Z"/>
          <path class="cls-18" d="M86.13,188c.08,0,.15,0,.23-.01,2.31-.21,3.65-3.54,3.7-3.68l-.32-.13s-1.32,3.27-3.41,3.47c-1.27.11-2.6-.9-3.95-3.04l-.3.18c1.35,2.13,2.7,3.21,4.05,3.21Z"/>
          <path class="cls-18" d="M86.58,194.3c.08,0,.15,0,.23-.01,2.3-.21,3.64-3.54,3.7-3.69l-.32-.13s-1.32,3.28-3.41,3.47c-1.27.11-2.6-.9-3.95-3.04l-.29.18c1.35,2.13,2.71,3.21,4.04,3.21Z"/>
          <path class="cls-18" d="M86.58,201.61c.08,0,.15,0,.23-.01,2.3-.21,3.64-3.54,3.7-3.68l-.32-.13s-1.32,3.28-3.41,3.47c-1.27.11-2.6-.9-3.95-3.04l-.29.18c1.35,2.13,2.71,3.21,4.04,3.21Z"/>
          <path class="cls-18" d="M87.42,207.12c.06,0,.11,0,.17,0,1.67-.16,2.63-2.54,2.67-2.65l-.32-.12s-.92,2.3-2.38,2.43c-.87.08-1.81-.64-2.75-2.13l-.3.18c.97,1.53,1.94,2.3,2.91,2.3Z"/>
          <path class="cls-18" d="M88.98,239.52c8.48-9.07,19.35-56.82,19.46-57.3l-.34-.08c-.11.48-10.95,48.13-19.37,57.14l.25.23Z"/>
          <path class="cls-18" d="M103.34,203.71c1.08,0,2.33-.72,3.71-2.16l-.25-.24c-1.58,1.63-2.93,2.3-4.03,1.97-1.81-.55-2.36-3.63-2.36-3.66l-.34.06c.02.14.6,3.33,2.6,3.93.21.07.43.1.66.1Z"/>
          <path class="cls-22" d="M113.85,216.89c.45,0,.98-.14,1.61-.42l-.14-.31c-1.02.46-1.75.51-2.18.17-.7-.57-.38-2.06-.37-2.08l-.34-.07c-.02.07-.37,1.72.49,2.42.24.2.55.29.92.29Z"/>
          <path class="cls-22" d="M110.29,221.55c.45,0,.98-.14,1.61-.42l-.14-.31c-1.02.45-1.75.51-2.17.17-.7-.56-.37-2.06-.37-2.08l-.34-.07c-.02.07-.37,1.72.49,2.41.24.2.55.29.92.29Z"/>
          <path class="cls-22" d="M112.29,219.15c.45,0,.98-.14,1.61-.42l-.14-.31c-1.02.45-1.75.52-2.17.17-.7-.56-.37-2.06-.37-2.08l-.34-.07c-.02.07-.37,1.72.49,2.42.24.19.55.29.92.29Z"/>
          <path class="cls-22" d="M108.37,223.54c.45,0,.98-.14,1.61-.42l-.14-.31c-1.02.45-1.75.51-2.17.17-.7-.56-.37-2.06-.37-2.08l-.34-.07c-.02.07-.37,1.72.49,2.41.24.2.55.3.92.3Z"/>
          <path class="cls-18" d="M106.22,192.65c1.08,0,2.33-.72,3.71-2.15l-.25-.24c-1.58,1.64-2.93,2.3-4.02,1.97-1.81-.54-2.36-3.63-2.36-3.66l-.34.06c.02.14.6,3.33,2.6,3.93.21.06.44.09.66.09Z"/>
          <path class="cls-18" d="M108.02,186.25c1.08,0,2.33-.73,3.71-2.16l-.25-.24c-1.58,1.64-2.93,2.3-4.03,1.97-1.81-.55-2.36-3.63-2.36-3.66l-.34.06c.02.13.59,3.32,2.6,3.93.21.07.43.1.66.1Z"/>
          <path class="cls-18" d="M104.61,198.7c.91,0,1.94-.6,3.1-1.8l-.25-.24c-1.3,1.34-2.41,1.89-3.31,1.62-1.47-.44-1.93-2.98-1.94-3.01l-.34.06c.02.11.5,2.77,2.18,3.28.18.06.37.08.56.08Z"/>
          <path class="cls-18" d="M101.79,209.19c1.08,0,2.33-.72,3.71-2.16l-.25-.24c-1.58,1.64-2.93,2.3-4.02,1.97-1.8-.54-2.36-3.63-2.36-3.66l-.34.06c.02.14.6,3.32,2.6,3.93.21.07.44.1.67.1Z"/>
          <path class="cls-18" d="M100.44,215.65c1.08,0,2.33-.72,3.71-2.15l-.25-.24c-1.58,1.64-2.94,2.3-4.03,1.97-1.81-.54-2.36-3.63-2.36-3.66l-.34.06c.02.13.59,3.32,2.6,3.93.21.07.44.1.66.1Z"/>
          <path class="cls-18" d="M98.56,220.35c.78,0,1.68-.52,2.67-1.55l-.25-.24c-1.1,1.15-2.05,1.61-2.81,1.39-1.25-.38-1.64-2.54-1.64-2.56l-.34.06c.02.1.43,2.39,1.88,2.83.16.04.32.07.49.07Z"/>
          <path class="cls-22" d="M83.56,231.35c12.99,0,20.79-4.77,25.06-8.8,4.69-4.42,6.25-8.94,6.27-8.98l-.33-.11s-1.56,4.49-6.19,8.86c-4.22,3.98-11.94,8.69-24.81,8.69h-.46v.34c.15,0,.31,0,.46,0Z"/>
          <path class="cls-18" d="M76.09,200.67c1.01,0,1.91-1.19,1.95-1.24l-.28-.2s-.94,1.24-1.82,1.08c-.54-.09-.97-.68-1.3-1.73l-.33.1c.37,1.2.89,1.86,1.57,1.97.07.01.14.02.21.02Z"/>
          <path class="cls-18" d="M76.08,204.67c1.1,0,1.89-1.46,1.93-1.52l-.31-.16s-.73,1.35-1.62,1.35h-.02c-.54-.01-1.06-.53-1.54-1.53l-.31.15c.54,1.13,1.17,1.71,1.85,1.72h.03Z"/>
          <path class="cls-18" d="M77.31,210.48c1.1,0,1.89-1.46,1.93-1.53l-.3-.16s-.73,1.34-1.62,1.34h-.02c-.54-.01-1.06-.53-1.54-1.53l-.31.15c.54,1.13,1.17,1.71,1.85,1.72h.02Z"/>
          <path class="cls-18" d="M79.67,216.22c.2,0,.38-.04.55-.12,1.01-.47,1.05-2.16,1.06-2.23h-.35s-.04,1.54-.86,1.92c-.49.23-1.19,0-2.07-.68l-.21.27c.72.56,1.35.84,1.88.84Z"/>
          <path class="cls-18" d="M98.65,233.99l.17-.3c-24.58-13.49-22.62-34.54-22.6-34.75l-.34-.04c0,.05-.54,5.42,1.99,12.4,2.34,6.43,7.84,15.58,20.78,22.69Z"/>
          <g>
            <path class="cls-12" d="M101.07,228.65s-.16,18.52-2.5,21.51h-13.75s-1.87-4.18-1.72-21.51h17.97Z"/>
            <path class="cls-54" d="M83.1,228.65h1.42c1.62,9.37,5.63,16.01,10.32,16.01,2.06,0,3.98-1.29,5.63-3.51-.37,4.04-.95,7.8-1.9,9.01h-13.75s-1.87-4.18-1.72-21.51Z"/>
          </g>
        </g>
        <g>
          <g>
            <path class="cls-11" d="M269.14,172.26s9.77-1.05,13.03-4.99c3.26-3.93.73-7.26.73-7.26,0,0-9.57,7.12-15.09,7.22-5.52.1,1.33,5.03,1.33,5.03Z"/>
            <path class="cls-59" d="M289.11,157.43c3.38,6.8-11.38,13.92-11.38,13.92l-4.93-6.55s13.02-14,16.31-7.37Z"/>
            <path class="cls-11" d="M267.42,171.46c-3.04-2.73-7.96-12.37-7.96-12.37l3.18.15,9.42,9.7s-1.54,5.3-4.64,2.52Z"/>
          </g>
          <polygon class="cls-45" points="304.57 205.74 278.14 187.09 278.66 183.27 303.79 181.37 304.57 205.74"/>
          <path class="cls-21" d="M281.74,160.18c1.7-5.44,9.89-5.72,16.55-4.72,4.49.68,7.38,2.14,7.88,7.75.32,3.58-.67,19.23-2.86,23.37,0,0-7.65,4.28-24.7-.97,0,0-.51-13.8,3.12-25.43Z"/>
          <path class="cls-38" d="M304.33,187.55s-16.22,3.14-26.36-1.7l.69-2.58s11.57,4.22,25.41,1.31l.26,2.97Z"/>
          <polygon class="cls-45" points="296.26 184.93 294.82 184.93 294.48 189.25 296.85 189.25 296.26 184.93"/>
          <polygon class="cls-45" points="286.19 184.43 285.15 184.1 283.36 188.07 285.5 188.74 286.19 184.43"/>
          <path class="cls-11" d="M297.58,148.22s-6.86,1.47-6.48,2.03c.38.56-.29,1.69-.3,2.78-.02,1.19-.81,2.44-1.87,3.64-.74.84.57,1.84,1.74,2.06,5.04.95,8.22-.94,7.15-2.57-2.39-3.66-.25-7.95-.25-7.95Z"/>
          <path class="cls-8" d="M290.8,153.04c.02-1.09.69-2.22.3-2.78-.38-.56,7.02-2.15,7.02-2.15,0,0-1.12,1.15-1.32,2.88-2.06,2.78-4.99,3.64-6.85,4.36.47-.65.83-1.88.84-2.31Z"/>
          <path class="cls-11" d="M290.68,140.32c-2.7,2.04-5,9.08-2.18,12.44,1.55,1.84,7.2-.11,9.84-4.13.34-.52,1.19-3.51-.22-6.76-.63-1.47-4.64-3.68-7.45-1.55Z"/>
          <path class="cls-42" d="M287.56,145.86c0,.43.61-4.26,3.25-4.58,1.07-.13.83,1,2.08,1.09,1.06.08,4.25-2.06,3.02,4.27-.06.3.23.66.37.94.17.34-.37,1.11-.36,1.49,0,.36,1.1-.76,1.08-.39-.03.55-.99,2.09-.19,2.3.38.1.85-.52,1.14-.73.8-.59,1.68-1,2.36-1.75.74-.83,1.16-1.92,1.35-3.01.19-1.09.17-2.24-.27-3.25-.46-1.05-1.38-1.9-2.48-2.26-.64-.22-1.38-.24-1.99-.54-.54-.27-1.13-.33-1.68-.6-.44-.21-.59-.48-.88-.84-.62-.79-1.61-1.3-2.61-1.25-1,.05-1.97.69-2.34,1.63-.2.53-.28,1.2-.79,1.45-.18.09-.4.11-.58.22-.17.1-.27.28-.36.45-.45.92-.48,2.02-.23,3.01.1.4.25.8.22,1.21-.03.38-.11.74-.11,1.13Z"/>
          <path class="cls-11" d="M295.25,148.22s1.95-1.72,3.02-1.22c1.08.5-.43,3.42-2.65,3.02-2.21-.4-.97-1.33-.37-1.8Z"/>
          <path class="cls-32" d="M278.91,249.24s-1.01,1.19-2.21,2.79c-1.19,1.6-2.09,3.28-.42,4.04,1.67.77,3.7-1.12,4.35-2.23.66-1.12,1.4-.99,2.3-1.74.91-.75.43-3.49.43-3.49l-4.46.63Z"/>
          <path class="cls-45" d="M294.23,196.54c-2.44,3.09-10.56,52.79-10.56,52.79-2.44,2.05-6.1,0-6.1,0-2.64-25.35.63-62.99.63-62.99,0,0,18.47,13.28,16.03,10.2h0Z"/>
          <path class="cls-38" d="M280.54,187.16c.03,2.06-.03,7.84-2.98,7.84-.49,0-.49.76,0,.76,3.61,0,3.78-6.07,3.74-8.59,0-.49-.76-.49-.76,0h0Z"/>
          <path class="cls-32" d="M303.22,250.05s1.01,1.19,2.21,2.79c1.19,1.6,2.09,3.28.42,4.04-1.67.77-3.7-1.12-4.35-2.23-.66-1.12-1.4-.99-2.3-1.74-.91-.75-.43-3.49-.43-3.49l4.46.62Z"/>
          <path class="cls-45" d="M287.9,197.36c2.44,3.09,10.56,52.79,10.56,52.79,2.44,2.05,6.1,0,6.1,0,2.64-25.35-.22-62.6-.22-62.6,0,0-18.88,12.89-16.44,9.8h0Z"/>
          <path class="cls-38" d="M300.84,187.97c-.04,2.53.13,8.59,3.74,8.59.49,0,.49-.76,0-.76-2.95,0-3.01-5.77-2.98-7.84,0-.49-.75-.49-.76,0h0Z"/>
          <g>
            <path class="cls-5" d="M293.19,147.45c.05-.03-.06.02-.08.03-.08.03-.17.05-.25.06-.34.03-.49-.19-.57-.48-.05-.18-.33-.08-.28.1.18.64.78.83,1.36.53.17-.09,0-.33-.17-.24h0Z"/>
            <path class="cls-5" d="M290.05,146.31c-.08.07-.18.14-.28.18-.33.14-.52-.06-.64-.36-.07-.17-.35-.08-.28.1.14.35.39.66.83.59.23-.04.45-.17.61-.33.14-.13-.09-.32-.23-.19h0Z"/>
            <path class="cls-29" d="M289.51,144.77c.49-.1.89.15,1.06.62.08.22.41.07.33-.15-.23-.62-.79-.96-1.46-.83-.23.05-.17.4.06.36h0Z"/>
            <path class="cls-29" d="M292.41,146.01c.45-.23.9-.09,1.19.31.14.19.41-.05.28-.23-.39-.53-1.02-.71-1.63-.4-.21.11-.05.43.16.33h0Z"/>
            <path class="cls-23" d="M291.18,146.05c.06.33.07.7-.06,1.01-.19.45-.74.6-1.07.95-.45.48-.1.84.52,1.09.15.06.25-.13.1-.19-1.39-.57.36-1.12.65-1.69.18-.36.19-.79.11-1.19-.02-.13-.27-.12-.25.02h0Z"/>
            <path class="cls-41" d="M289.35,150.03s.57-1.11,1.45-.58c.88.53.4,1.55.4,1.55l-1.85-.97Z"/>
            <path class="cls-8" d="M293.68,149.73c-.16.35-.58.51-.94.34-.35-.16-.51-.58-.34-.94.16-.35.58-.51.94-.34.35.16.51.58.34.94Z"/>
            <path class="cls-8" d="M287.99,147.36c.33-.21.77-.11.98.22.21.33.11.77-.22.98-.33.21-.77.11-.98-.22-.21-.33-.11-.77.22-.98Z"/>
          </g>
          <g>
            <path class="cls-11" d="M303.59,181.24s4.39-8.79,2.84-13.66c-1.55-4.87-5.71-4.54-5.71-4.54,0,0,.82,11.9-2.08,16.6-2.9,4.7,4.95,1.6,4.95,1.6Z"/>
            <path class="cls-59" d="M301.9,156.42c7.55.83,5.56,17.1,5.56,17.1l-8.17.61s-4.75-18.52,2.61-17.71Z"/>
            <path class="cls-11" d="M301.99,182.26c-3.94,1.08-14.71.02-14.71.02l1.84-2.59,13.25-2.69s3.62,4.16-.38,5.27Z"/>
            <path class="cls-11" d="M289.51,179.26c-.25-.23-.38-.64-.57-.93-.37-.57-.9-.99-1.43-1.4-.3-.23-.65-1.05-1.12-.93-.76.2.21,1.41.32,1.75.1.31.07.7-.19.88-.17.12-.4.13-.62.11-.68-.04-1.34-.19-2.01-.3-.35-.06-.7-.09-1.05-.12-.26-.03-.6-.16-.86-.12-.2.03-.39.24-.31.46.08.19.28.16.44.21.38.11.75.22,1.12.34.08.03.47.09.5.18.16.43-.88.27-1.04.25-.42-.05-.86-.08-1.24.13-.05.03-.1.07-.11.12-.02.09.08.16.17.19.5.2,1.05.22,1.54.43.08.03.17.09.18.18.03.35-.67.38-.9.41-.14.02-.32.06-.36.2-.02.09.03.19.11.24.08.05.17.08.27.09.27.06.56.14.83.16.13.01.54,0,.56.19,0,.04-.01.07-.04.1-.09.1-.23.13-.35.17-.13.04-.26.12-.28.25-.02.16.16.28.31.33.56.19,1.18.19,1.76.21.62.02,1.25.02,1.87-.02.83-.05,1.65-.14,2.47-.28.71-.13,1.52-.32,2-.9.14-.16.24-.36.33-.55.13-.25.24-.51.29-.79.04-.28,0-.58-.15-.81-.02-.03-.05-.06-.08-.08-.04-.02-.1-.02-.14-.02-.37.03-.75.08-1.12.06-.37-.02-.75-.13-1.1-.41Z"/>
          </g>
          <path class="cls-11" d="M259.46,159.09s-11.3.16-8.5-1.98c2.81-2.14,9.9-1.66,11.68,2.13,1.77,3.78-3.18-.15-3.18-.15Z"/>
          <g>
            <rect class="cls-19" x="239.53" y="155.09" width="37.67" height="2.04"/>
            <polygon class="cls-19" points="262.53 157.12 235.71 157.12 231.76 139.33 257.24 139.33 262.53 157.12"/>
          </g>
        </g>
      </g>
    </g>
  </g>
</svg>