<?xml version="1.0" encoding="UTF-8"?>
<svg xmlns="http://www.w3.org/2000/svg" xmlns:xlink="http://www.w3.org/1999/xlink" viewBox="0 0 594.7 370.11">
  <defs>
    <style>
      .cls-1 {
        stroke: url(#linear-gradient-70);
        stroke-width: 1.19px;
      }

      .cls-1, .cls-2, .cls-3, .cls-4, .cls-5, .cls-6 {
        fill: none;
      }

      .cls-1, .cls-2, .cls-3, .cls-5 {
        stroke-miterlimit: 10;
      }

      .cls-7 {
        fill: url(#linear-gradient-38);
      }

      .cls-7, .cls-8, .cls-9, .cls-10, .cls-11, .cls-12, .cls-13, .cls-14, .cls-15, .cls-16, .cls-17, .cls-18, .cls-19, .cls-20, .cls-21, .cls-22, .cls-23, .cls-24, .cls-25, .cls-26, .cls-27, .cls-28, .cls-29, .cls-30, .cls-4, .cls-31, .cls-32, .cls-33, .cls-34, .cls-35, .cls-36, .cls-37, .cls-38, .cls-39, .cls-40, .cls-41, .cls-42, .cls-43, .cls-44, .cls-45, .cls-46, .cls-47, .cls-48, .cls-49, .cls-50, .cls-51, .cls-52, .cls-53, .cls-54, .cls-55, .cls-56, .cls-57, .cls-58, .cls-59, .cls-60, .cls-61, .cls-62, .cls-63, .cls-64, .cls-65, .cls-66, .cls-67, .cls-68, .cls-69, .cls-70, .cls-71, .cls-72, .cls-73, .cls-74, .cls-75, .cls-76, .cls-77, .cls-78, .cls-79, .cls-80, .cls-81, .cls-82, .cls-83, .cls-84, .cls-85, .cls-86, .cls-87, .cls-88, .cls-89, .cls-90, .cls-91, .cls-92, .cls-93, .cls-94, .cls-95, .cls-96, .cls-97, .cls-98, .cls-99, .cls-100, .cls-101, .cls-102, .cls-103, .cls-104, .cls-105, .cls-106 {
        stroke-width: 0px;
      }

      .cls-8 {
        fill: url(#linear-gradient-12);
      }

      .cls-2 {
        stroke: #7ebbe0;
      }

      .cls-9 {
        fill: url(#linear-gradient-17);
      }

      .cls-10 {
        fill: url(#linear-gradient-19);
      }

      .cls-11 {
        fill: url(#linear-gradient-33);
      }

      .cls-12 {
        fill: #7ebbe0;
      }

      .cls-13 {
        fill: url(#linear-gradient);
      }

      .cls-14 {
        fill: url(#linear-gradient-62);
      }

      .cls-15 {
        fill: url(#linear-gradient-67);
      }

      .cls-16 {
        fill: url(#linear-gradient-57);
      }

      .cls-17 {
        fill: #203247;
      }

      .cls-18 {
        fill: #ffa89a;
      }

      .cls-19 {
        fill: url(#linear-gradient-21);
      }

      .cls-20 {
        fill: url(#linear-gradient-6);
      }

      .cls-21 {
        fill: #ebedfd;
      }

      .cls-22 {
        fill: url(#linear-gradient-28);
      }

      .cls-22, .cls-58, .cls-63 {
        opacity: .5;
      }

      .cls-22, .cls-58, .cls-63, .cls-66 {
        mix-blend-mode: multiply;
      }

      .cls-23 {
        fill: #db9f93;
      }

      .cls-24 {
        fill: url(#linear-gradient-76);
      }

      .cls-107 {
        isolation: isolate;
      }

      .cls-25 {
        fill: url(#linear-gradient-42);
      }

      .cls-26 {
        fill: url(#linear-gradient-15);
      }

      .cls-27 {
        fill: url(#linear-gradient-11);
      }

      .cls-28 {
        fill: url(#linear-gradient-81);
      }

      .cls-29 {
        fill: url(#linear-gradient-73);
      }

      .cls-30 {
        fill: url(#linear-gradient-5);
      }

      .cls-3, .cls-5 {
        stroke: #fff;
      }

      .cls-3, .cls-6 {
        stroke-linecap: round;
      }

      .cls-31 {
        fill: url(#linear-gradient-31);
      }

      .cls-32 {
        fill: url(#linear-gradient-71);
      }

      .cls-33 {
        fill: url(#linear-gradient-58);
      }

      .cls-34 {
        fill: url(#linear-gradient-63);
      }

      .cls-35 {
        fill: url(#linear-gradient-34);
      }

      .cls-36 {
        fill: url(#linear-gradient-41);
      }

      .cls-37 {
        fill: url(#linear-gradient-66);
      }

      .cls-38 {
        fill: url(#linear-gradient-13);
      }

      .cls-39 {
        fill: url(#linear-gradient-23);
      }

      .cls-40 {
        fill: url(#linear-gradient-25);
      }

      .cls-41 {
        fill: url(#linear-gradient-43);
      }

      .cls-42 {
        fill: url(#linear-gradient-16);
      }

      .cls-43 {
        fill: url(#linear-gradient-22);
      }

      .cls-44 {
        fill: url(#linear-gradient-54);
      }

      .cls-45 {
        fill: url(#linear-gradient-55);
      }

      .cls-46 {
        fill: url(#linear-gradient-35);
      }

      .cls-47 {
        fill: url(#linear-gradient-50);
      }

      .cls-108 {
        font-family: Montserrat-ExtraBold, Montserrat;
        font-size: 88.09px;
        font-weight: 700;
      }

      .cls-108, .cls-60 {
        fill: #879fd8;
      }

      .cls-48 {
        fill: url(#linear-gradient-32);
      }

      .cls-49 {
        fill: url(#linear-gradient-60);
      }

      .cls-50 {
        fill: url(#linear-gradient-59);
      }

      .cls-51 {
        fill: url(#linear-gradient-20);
      }

      .cls-52 {
        fill: url(#linear-gradient-14);
      }

      .cls-53 {
        fill: url(#linear-gradient-2);
      }

      .cls-54 {
        fill: url(#linear-gradient-52);
      }

      .cls-55 {
        fill: url(#linear-gradient-45);
      }

      .cls-56 {
        fill: url(#linear-gradient-7);
      }

      .cls-57 {
        fill: url(#linear-gradient-39);
      }

      .cls-58 {
        fill: url(#linear-gradient-18);
      }

      .cls-59 {
        fill: url(#linear-gradient-3);
      }

      .cls-61 {
        fill: url(#linear-gradient-77);
      }

      .cls-62 {
        fill: url(#linear-gradient-69);
      }

      .cls-109 {
        clip-path: url(#clippath);
      }

      .cls-63 {
        fill: url(#linear-gradient-40);
      }

      .cls-64 {
        fill: url(#linear-gradient-9);
      }

      .cls-65 {
        fill: url(#linear-gradient-27);
      }

      .cls-66 {
        fill: url(#linear-gradient-10);
      }

      .cls-67 {
        fill: #d99790;
      }

      .cls-68 {
        fill: url(#linear-gradient-82);
      }

      .cls-69 {
        fill: url(#linear-gradient-83);
      }

      .cls-70 {
        fill: #f3b4ad;
      }

      .cls-71 {
        fill: url(#linear-gradient-53);
      }

      .cls-72 {
        fill: #283370;
      }

      .cls-73 {
        fill: url(#linear-gradient-85);
      }

      .cls-74 {
        fill: url(#linear-gradient-65);
      }

      .cls-75 {
        fill: url(#linear-gradient-36);
      }

      .cls-76 {
        fill: url(#linear-gradient-48);
      }

      .cls-77 {
        fill: url(#linear-gradient-49);
      }

      .cls-78 {
        fill: url(#linear-gradient-8);
      }

      .cls-79 {
        fill: url(#linear-gradient-47);
      }

      .cls-80 {
        fill: url(#linear-gradient-24);
      }

      .cls-81 {
        fill: url(#linear-gradient-26);
      }

      .cls-82 {
        fill: url(#linear-gradient-61);
      }

      .cls-83 {
        fill: #5893b7;
      }

      .cls-84 {
        fill: #ff8281;
      }

      .cls-85 {
        fill: url(#linear-gradient-51);
      }

      .cls-86 {
        fill: url(#linear-gradient-30);
      }

      .cls-87 {
        fill: #fff;
      }

      .cls-88 {
        fill: url(#linear-gradient-44);
      }

      .cls-89 {
        fill: url(#linear-gradient-84);
      }

      .cls-90 {
        fill: url(#linear-gradient-68);
      }

      .cls-91 {
        fill: url(#linear-gradient-72);
      }

      .cls-92 {
        fill: url(#linear-gradient-29);
      }

      .cls-6 {
        stroke: #242230;
        stroke-linejoin: round;
      }

      .cls-93 {
        fill: url(#linear-gradient-46);
      }

      .cls-94 {
        fill: url(#linear-gradient-64);
      }

      .cls-95 {
        fill: #5266ee;
      }

      .cls-96 {
        fill: url(#linear-gradient-56);
      }

      .cls-97 {
        fill: #eebcad;
      }

      .cls-98 {
        fill: url(#linear-gradient-78);
      }

      .cls-99 {
        fill: url(#linear-gradient-74);
      }

      .cls-100 {
        fill: url(#linear-gradient-4);
      }

      .cls-101 {
        fill: url(#linear-gradient-37);
      }

      .cls-102 {
        fill: url(#linear-gradient-80);
      }

      .cls-103 {
        fill: #d76f66;
        opacity: .32;
      }

      .cls-104 {
        fill: url(#linear-gradient-79);
      }

      .cls-105 {
        fill: #f3d2c2;
      }

      .cls-106 {
        fill: url(#linear-gradient-75);
      }
    </style>
    <linearGradient id="linear-gradient" x1="282.67" y1="-16022.55" x2="282.67" y2="-16403.91" gradientTransform="translate(0 -16024.7) scale(1 -1)" gradientUnits="userSpaceOnUse">
      <stop offset="0" stop-color="#c4d1f2"/>
      <stop offset="1" stop-color="#8baaff"/>
    </linearGradient>
    <linearGradient id="linear-gradient-2" x1="111.47" y1="-15693.97" x2="111.47" y2="-16075.33" gradientTransform="translate(11378.29 -11404) rotate(45) scale(1 -1)" xlink:href="#linear-gradient"/>
    <linearGradient id="linear-gradient-3" x1="472.69" y1="-15996.95" x2="472.69" y2="-16076.84" xlink:href="#linear-gradient"/>
    <linearGradient id="linear-gradient-4" x1="567.47" y1="-16259.76" x2="567.47" y2="-16641.13" xlink:href="#linear-gradient"/>
    <linearGradient id="linear-gradient-5" x1="24.33" y1="-16097.43" x2="24.33" y2="-16478.79" xlink:href="#linear-gradient"/>
    <linearGradient id="linear-gradient-6" x1="485.75" y1="-16101.95" x2="508.21" y2="-16077.97" xlink:href="#linear-gradient"/>
    <linearGradient id="linear-gradient-7" x1="531.92" y1="-16374.82" x2="546.67" y2="-16359.07" xlink:href="#linear-gradient"/>
    <linearGradient id="linear-gradient-8" x1="295" y1="-16346.9" x2="295" y2="-16095.5" gradientTransform="translate(0 -16024.7) scale(1 -1)" gradientUnits="userSpaceOnUse">
      <stop offset="0" stop-color="#cbddf2"/>
      <stop offset="1" stop-color="#aecced"/>
    </linearGradient>
    <linearGradient id="linear-gradient-9" x1="295" y1="-16393.35" x2="295" y2="-16338.36" xlink:href="#linear-gradient-8"/>
    <linearGradient id="linear-gradient-10" x1="269.16" y1="-16349.21" x2="320.84" y2="-16349.21" xlink:href="#linear-gradient-8"/>
    <linearGradient id="linear-gradient-11" x1="295" y1="-16400.43" x2="295" y2="-16375.71" xlink:href="#linear-gradient-8"/>
    <linearGradient id="linear-gradient-12" x1="127.74" y1="-16380.32" x2="127.74" y2="-16282.61" gradientTransform="translate(0 -16024.7) scale(1 -1)" gradientUnits="userSpaceOnUse">
      <stop offset="0" stop-color="#283370"/>
      <stop offset="1" stop-color="#14165a"/>
    </linearGradient>
    <linearGradient id="linear-gradient-13" x1="105.79" y1="-16378.82" x2="105.79" y2="-16278.81" xlink:href="#linear-gradient-12"/>
    <linearGradient id="linear-gradient-14" x1="137.48" y1="-16204.99" x2="137.48" y2="-16184.3" gradientTransform="translate(0 -16024.7) scale(1 -1)" gradientUnits="userSpaceOnUse">
      <stop offset="0" stop-color="#000479"/>
      <stop offset="1" stop-color="#0b1738"/>
    </linearGradient>
    <linearGradient id="linear-gradient-15" x1="625.04" y1="151.06" x2="627.61" y2="174.81" gradientTransform="translate(741.84) rotate(-180) scale(1 -1)" xlink:href="#linear-gradient-14"/>
    <linearGradient id="linear-gradient-16" x1="621.84" y1="154.46" x2="621.84" y2="175.15" gradientTransform="translate(741.84) rotate(-180) scale(1 -1)" xlink:href="#linear-gradient-14"/>
    <linearGradient id="linear-gradient-17" x1="142.84" y1="190.98" x2="142.84" y2="252.01" gradientUnits="userSpaceOnUse">
      <stop offset="0" stop-color="#4995f7"/>
      <stop offset="1" stop-color="#1c59eb"/>
    </linearGradient>
    <linearGradient id="linear-gradient-18" x1="138.95" y1="-16239.39" x2="138.95" y2="-16250.73" gradientTransform="translate(0 -16024.7) scale(1 -1)" xlink:href="#linear-gradient-17"/>
    <linearGradient id="linear-gradient-19" x1="123.64" y1="190.98" x2="123.64" y2="252.01" xlink:href="#linear-gradient-17"/>
    <linearGradient id="linear-gradient-20" x1="117.95" y1="224.8" x2="95.83" y2="275.8" gradientTransform="translate(119.3 -21.55) rotate(25.8)" gradientUnits="userSpaceOnUse">
      <stop offset="0" stop-color="#71c6f9"/>
      <stop offset="1" stop-color="#51aaf8"/>
    </linearGradient>
    <linearGradient id="linear-gradient-21" x1="105.83" y1="190.98" x2="105.83" y2="252.01" xlink:href="#linear-gradient-17"/>
    <linearGradient id="linear-gradient-22" x1="612.25" y1="154.46" x2="612.25" y2="175.15" gradientTransform="translate(741.84) rotate(-180) scale(1 -1)" xlink:href="#linear-gradient-14"/>
    <linearGradient id="linear-gradient-23" x1="163.6" y1="-16276.99" x2="163.6" y2="-16196.98" xlink:href="#linear-gradient-12"/>
    <linearGradient id="linear-gradient-24" x1="384.65" y1="-16393.74" x2="384.65" y2="-16346.72" xlink:href="#linear-gradient-12"/>
    <linearGradient id="linear-gradient-25" x1="415.36" y1="-16373.34" x2="415.36" y2="-16318.3" xlink:href="#linear-gradient-12"/>
    <linearGradient id="linear-gradient-26" x1="371.97" y1="239.9" x2="371.97" y2="271.25" gradientTransform="matrix(1,0,0,1,0,0)" xlink:href="#linear-gradient-12"/>
    <linearGradient id="linear-gradient-27" x1="400.79" y1="236.65" x2="400.79" y2="294.16" xlink:href="#linear-gradient-17"/>
    <linearGradient id="linear-gradient-28" x1="403.47" y1="-16274.81" x2="403.47" y2="-16286.39" gradientTransform="translate(0 -16024.7) scale(1 -1)" xlink:href="#linear-gradient-17"/>
    <linearGradient id="linear-gradient-29" x1="419.39" y1="236.65" x2="419.39" y2="294.16" xlink:href="#linear-gradient-17"/>
    <linearGradient id="linear-gradient-30" x1="406.45" y1="-16264.39" x2="406.45" y2="-16245.87" gradientTransform="translate(0 -16024.7) scale(1 -1)" gradientUnits="userSpaceOnUse">
      <stop offset="0" stop-color="#162559"/>
      <stop offset="1" stop-color="#0b1738"/>
    </linearGradient>
    <linearGradient id="linear-gradient-31" x1="413.01" y1="-16252.78" x2="413.01" y2="-16234.26" xlink:href="#linear-gradient-30"/>
    <linearGradient id="linear-gradient-32" x1="437.32" y1="236.65" x2="437.32" y2="294.16" xlink:href="#linear-gradient-17"/>
    <linearGradient id="linear-gradient-33" x1="388.27" y1="261.65" x2="388.27" y2="308.38" gradientTransform="matrix(1,0,0,1,0,0)" xlink:href="#linear-gradient-20"/>
    <linearGradient id="linear-gradient-34" x1="491.68" y1="-16280.41" x2="491.68" y2="-16386.31" xlink:href="#linear-gradient-12"/>
    <linearGradient id="linear-gradient-35" x1="470.14" y1="-16260.98" x2="470.14" y2="-16187.6" gradientTransform="translate(0 -16024.7) scale(1 -1)" xlink:href="#linear-gradient-17"/>
    <linearGradient id="linear-gradient-36" x1="474.72" y1="-16202.53" x2="474.72" y2="-16183.67" xlink:href="#linear-gradient-30"/>
    <linearGradient id="linear-gradient-37" x1="483.66" y1="-16202.7" x2="483.66" y2="-16183.84" xlink:href="#linear-gradient-30"/>
    <linearGradient id="linear-gradient-38" x1="487.04" y1="186.9" x2="487.04" y2="256.41" xlink:href="#linear-gradient-17"/>
    <linearGradient id="linear-gradient-39" x1="503.79" y1="186.9" x2="503.79" y2="256.41" xlink:href="#linear-gradient-17"/>
    <linearGradient id="linear-gradient-40" x1="483.43" y1="-16309.96" x2="483.97" y2="-16293.18" xlink:href="#linear-gradient-12"/>
    <linearGradient id="linear-gradient-41" x1="457.08" y1="198.65" x2="457.08" y2="227.15" gradientTransform="matrix(1,0,0,1,0,0)" xlink:href="#linear-gradient-12"/>
    <linearGradient id="linear-gradient-42" x1="306.77" y1="248.32" x2="306.77" y2="303.33" gradientTransform="matrix(1,0,0,1,0,0)" xlink:href="#linear-gradient-20"/>
    <linearGradient id="linear-gradient-43" x1="277.39" y1="-16293.76" x2="277.39" y2="-16281.36" xlink:href="#linear-gradient-8"/>
    <linearGradient id="linear-gradient-44" x1="277.39" y1="-16306.82" x2="277.39" y2="-16294.42" xlink:href="#linear-gradient-8"/>
    <linearGradient id="linear-gradient-45" x1="248.11" y1="278.44" x2="248.11" y2="290.84" gradientTransform="translate(584.26) rotate(-180) scale(1 -1)" xlink:href="#linear-gradient-8"/>
    <linearGradient id="linear-gradient-46" x1="248.11" y1="278.44" x2="248.11" y2="290.84" gradientTransform="translate(584.26) rotate(-180) scale(1 -1)" xlink:href="#linear-gradient-8"/>
    <linearGradient id="linear-gradient-47" x1="88.29" y1="-16154.8" x2="164.29" y2="-16142.3" gradientTransform="translate(0 -16024.7) scale(1 -1)" gradientUnits="userSpaceOnUse">
      <stop offset="0" stop-color="#f7d500"/>
      <stop offset="1" stop-color="#ffaf00"/>
    </linearGradient>
    <linearGradient id="linear-gradient-48" x1="88.71" y1="-16157.38" x2="164.71" y2="-16144.88" xlink:href="#linear-gradient-47"/>
    <linearGradient id="linear-gradient-49" x1="89.14" y1="-16159.95" x2="165.14" y2="-16147.45" xlink:href="#linear-gradient-47"/>
    <linearGradient id="linear-gradient-50" x1="89.56" y1="-16162.53" x2="165.56" y2="-16150.03" xlink:href="#linear-gradient-47"/>
    <linearGradient id="linear-gradient-51" x1="89.99" y1="-16165.1" x2="165.99" y2="-16152.6" xlink:href="#linear-gradient-47"/>
    <linearGradient id="linear-gradient-52" x1="210.22" y1="50.15" x2="210.22" y2="113.75" gradientTransform="matrix(1,0,0,1,0,0)" xlink:href="#linear-gradient-20"/>
    <clipPath id="clippath">
      <circle class="cls-4" cx="210.38" cy="76.79" r="19.87"/>
    </clipPath>
    <linearGradient id="linear-gradient-53" x1="210.23" y1="61.4" x2="210.23" y2="91.94" gradientTransform="matrix(1,0,0,1,0,0)" xlink:href="#linear-gradient-14"/>
    <linearGradient id="linear-gradient-54" x1="210.87" y1="61.4" x2="210.87" y2="91.94" gradientTransform="matrix(1,0,0,1,0,0)" xlink:href="#linear-gradient-14"/>
    <linearGradient id="linear-gradient-55" x1="224.59" y1="-16071.7" x2="263.93" y2="-16064.79" xlink:href="#linear-gradient-47"/>
    <linearGradient id="linear-gradient-56" x1="224.93" y1="-16073.61" x2="264.26" y2="-16066.7" xlink:href="#linear-gradient-47"/>
    <linearGradient id="linear-gradient-57" x1="225.26" y1="-16075.52" x2="264.6" y2="-16068.61" xlink:href="#linear-gradient-47"/>
    <linearGradient id="linear-gradient-58" x1="225.6" y1="-16077.43" x2="264.93" y2="-16070.52" xlink:href="#linear-gradient-47"/>
    <linearGradient id="linear-gradient-59" x1="184.14" y1="374.32" x2="184.14" y2="297.27" gradientUnits="userSpaceOnUse">
      <stop offset="0" stop-color="#3943b2"/>
      <stop offset="1" stop-color="#5c97f7"/>
    </linearGradient>
    <linearGradient id="linear-gradient-60" x1="206.33" y1="374.32" x2="206.33" y2="297.27" xlink:href="#linear-gradient-59"/>
    <linearGradient id="linear-gradient-61" x1="162.16" y1="374.32" x2="162.16" y2="297.27" xlink:href="#linear-gradient-59"/>
    <linearGradient id="linear-gradient-62" x1="228.52" y1="374.32" x2="228.52" y2="297.27" xlink:href="#linear-gradient-59"/>
    <linearGradient id="linear-gradient-63" x1="195.37" y1="-16345.2" x2="195.37" y2="-16308.05" gradientTransform="translate(0 -16024.7) scale(1 -1)" gradientUnits="userSpaceOnUse">
      <stop offset="0" stop-color="#dd5e54"/>
      <stop offset="1" stop-color="#e04e3d"/>
    </linearGradient>
    <linearGradient id="linear-gradient-64" x1="443.65" y1="-16203.12" x2="443.65" y2="-16173.28" gradientTransform="translate(0 -16024.7) scale(1 -1)" xlink:href="#linear-gradient-20"/>
    <linearGradient id="linear-gradient-65" x1="429.89" y1="-16193.73" x2="429.89" y2="-16250.87" xlink:href="#linear-gradient-8"/>
    <linearGradient id="linear-gradient-66" x1="421.8" y1="-16140.91" x2="387.13" y2="-16192.91" gradientTransform="translate(0 -16024.7) scale(1 -1)" gradientUnits="userSpaceOnUse">
      <stop offset="0" stop-color="#dfebf2"/>
      <stop offset="1" stop-color="#e8f6ff"/>
    </linearGradient>
    <linearGradient id="linear-gradient-67" x1="431.3" y1="-16144.01" x2="403.8" y2="-16185.26" xlink:href="#linear-gradient-66"/>
    <linearGradient id="linear-gradient-68" x1="171.26" y1="251.9" x2="171.26" y2="273.66" gradientTransform="matrix(1,0,0,1,0,0)" xlink:href="#linear-gradient-20"/>
    <linearGradient id="linear-gradient-69" x1="183.54" y1="251.9" x2="183.54" y2="273.66" gradientTransform="matrix(1,0,0,1,0,0)" xlink:href="#linear-gradient-20"/>
    <linearGradient id="linear-gradient-70" x1="312.16" y1="-16159.91" x2="394.51" y2="-16159.91" gradientTransform="translate(0 -16024.7) scale(1 -1)" gradientUnits="userSpaceOnUse">
      <stop offset="0" stop-color="#b6d9f6"/>
      <stop offset="1" stop-color="#dde8f7"/>
    </linearGradient>
    <linearGradient id="linear-gradient-71" x1="385.27" y1="-16147.06" x2="326.39" y2="-16168.06" xlink:href="#linear-gradient-70"/>
    <linearGradient id="linear-gradient-72" x1="382.97" y1="-16149.56" x2="324.1" y2="-16170.56" xlink:href="#linear-gradient-70"/>
    <linearGradient id="linear-gradient-73" x1="385.57" y1="-16156.82" x2="326.69" y2="-16177.82" xlink:href="#linear-gradient-70"/>
    <linearGradient id="linear-gradient-74" x1="381.21" y1="-16153.56" x2="322.34" y2="-16174.56" xlink:href="#linear-gradient-70"/>
    <linearGradient id="linear-gradient-75" x1="327.65" y1="-16170.77" x2="327.65" y2="-16160.02" gradientTransform="translate(0 -16024.7) scale(1 -1)" xlink:href="#linear-gradient-20"/>
    <linearGradient id="linear-gradient-76" x1="327.65" y1="-16158.75" x2="327.65" y2="-16148" gradientTransform="translate(0 -16024.7) scale(1 -1)" xlink:href="#linear-gradient-20"/>
    <linearGradient id="linear-gradient-77" x1="96.94" y1="-16190.23" x2="38.07" y2="-16211.23" xlink:href="#linear-gradient-70"/>
    <linearGradient id="linear-gradient-78" x1="94.65" y1="-16192.73" x2="35.77" y2="-16213.73" xlink:href="#linear-gradient-70"/>
    <linearGradient id="linear-gradient-79" x1="97.24" y1="-16199.99" x2="38.36" y2="-16220.99" xlink:href="#linear-gradient-70"/>
    <linearGradient id="linear-gradient-80" x1="92.89" y1="-16196.73" x2="34.01" y2="-16217.73" xlink:href="#linear-gradient-70"/>
    <linearGradient id="linear-gradient-81" x1="40.64" y1="172.48" x2="40.64" y2="187.42" gradientTransform="matrix(1,0,0,1,0,0)" xlink:href="#linear-gradient-20"/>
    <linearGradient id="linear-gradient-82" x1="40.64" y1="172.48" x2="40.64" y2="187.42" gradientTransform="matrix(1,0,0,1,0,0)" xlink:href="#linear-gradient-20"/>
    <linearGradient id="linear-gradient-83" x1="218.35" y1="-16154.5" x2="261.23" y2="-16111.63" xlink:href="#linear-gradient-66"/>
    <linearGradient id="linear-gradient-84" x1="171.89" y1="56.03" x2="171.89" y2="71.43" gradientUnits="userSpaceOnUse">
      <stop offset="0" stop-color="#dd7c6f"/>
      <stop offset="1" stop-color="#db6355"/>
    </linearGradient>
    <linearGradient id="linear-gradient-85" x1="503.79" y1="108.65" x2="503.79" y2="144.34" gradientUnits="userSpaceOnUse">
      <stop offset="0" stop-color="#dd7c6f"/>
      <stop offset=".92" stop-color="#db6557"/>
      <stop offset="1" stop-color="#db6355"/>
    </linearGradient>
  </defs>
  <g class="cls-107">
    <g id="OBJECTS">
      <g>
        <g>
          <path class="cls-13" d="M282.67,0C142.07,0,28.1,113.98,28.1,254.57c0,41.35,9.86,80.41,27.36,114.93h454.42c17.5-34.52,27.36-73.58,27.36-114.93C537.24,113.98,423.26,0,282.67,0Z"/>
          <circle class="cls-53" cx="111.47" cy="20.46" r="19.11" transform="translate(18.18 84.81) rotate(-45)"/>
          <circle class="cls-59" cx="472.69" cy="45.83" r="4"/>
          <circle class="cls-87" cx="413.04" cy="63.11" r="4"/>
          <circle class="cls-100" cx="567.47" cy="303.36" r="11.2"/>
          <circle class="cls-83" cx="524.33" cy="173.98" r="18.33" transform="translate(80.23 502.57) rotate(-54.85)"/>
          <path class="cls-83" d="M61.1,344.45c0,8.24-6.68,14.93-14.93,14.93s-14.93-6.68-14.93-14.93,6.68-14.93,14.93-14.93,14.93,6.68,14.93,14.93Z"/>
          <circle class="cls-30" cx="24.33" cy="222.19" r="24.33"/>
          <circle class="cls-83" cx="107.18" cy="225.13" r="14.82" transform="translate(-78 58.15) rotate(-22.5)"/>
          <g>
            <line class="cls-3" x1="57.1" y1="165.74" x2="154.11" y2="165.74"/>
            <line class="cls-3" x1="497.2" y1="268.78" x2="594.2" y2="268.78"/>
            <line class="cls-3" x1="334.55" y1="34.98" x2="431.55" y2="34.98"/>
          </g>
          <g>
            <path class="cls-87" d="M69.3,305.49h-3.71v-3.71c0-.54-.44-.98-.98-.98s-.98.44-.98.98v3.71h-3.71c-.54,0-.98.44-.98.98s.44.98.98.98h3.71v3.71c0,.54.44.98.98.98s.98-.44.98-.98v-3.71h3.71c.54,0,.98-.44.98-.98s-.44-.98-.98-.98Z"/>
            <path class="cls-20" d="M500.99,67.11h-5.64v-5.64c0-.82-.67-1.49-1.49-1.49s-1.49.67-1.49,1.49v5.64h-5.64c-.82,0-1.49.67-1.49,1.49s.67,1.49,1.49,1.49h5.64v5.64c0,.82.67,1.49,1.49,1.49s1.49-.67,1.49-1.49v-5.64h5.64c.82,0,1.49-.67,1.49-1.49s-.67-1.49-1.49-1.49Z"/>
            <path class="cls-56" d="M541.92,343.47h-3.71v-3.71c0-.54-.44-.98-.98-.98s-.98.44-.98.98v3.71h-3.71c-.54,0-.98.44-.98.98s.44.98.98.98h3.71v3.71c0,.54.44.98.98.98s.98-.44.98-.98v-3.71h3.71c.54,0,.98-.44.98-.98s-.44-.98-.98-.98Z"/>
          </g>
        </g>
        <g>
          <path class="cls-87" d="M400.31,88.5v-10.03c0-.98-.8-1.78-1.78-1.78h-2.58c-.76,0-1.42-.51-1.59-1.25-.89-3.9-2.42-7.55-4.47-10.84-.41-.66-.33-1.51.22-2.05l1.82-1.82c.69-.69.69-1.82,0-2.51l-7.09-7.09c-.69-.69-1.82-.69-2.51,0l-1.81,1.81c-.55.55-1.4.63-2.05.22-3.29-2.05-6.95-3.58-10.85-4.47-.74-.17-1.25-.84-1.25-1.59v-2.57c0-.98-.8-1.78-1.78-1.78h-10.03c-.98,0-1.78.8-1.78,1.78v2.57c0,.76-.51,1.42-1.25,1.59-3.9.89-7.55,2.42-10.85,4.47-.66.41-1.51.33-2.05-.22l-1.81-1.81c-.69-.69-1.82-.69-2.51,0l-7.09,7.09c-.69.69-.69,1.82,0,2.51l1.81,1.81c.55.55.63,1.4.22,2.05-2.05,3.29-3.58,6.95-4.47,10.85-.17.74-.84,1.25-1.59,1.25h-2.58c-.98,0-1.78.8-1.78,1.78v10.03c0,.98.8,1.78,1.78,1.78h2.58c.76,0,1.42.51,1.59,1.25.9,3.9,2.42,7.55,4.47,10.84.41.66.33,1.51-.22,2.05l-1.82,1.82c-.69.69-.69,1.82,0,2.51l7.09,7.09c.69.69,1.82.69,2.51,0l1.82-1.82c.55-.55,1.4-.63,2.05-.22,3.29,2.05,6.95,3.57,10.84,4.47.74.17,1.25.84,1.25,1.59v2.59c0,.98.8,1.78,1.78,1.78h10.03c.98,0,1.78-.8,1.78-1.78v-2.59c0-.76.51-1.42,1.25-1.59,3.89-.89,7.55-2.41,10.84-4.47.66-.41,1.5-.33,2.05.22l1.82,1.82c.69.69,1.82.69,2.51,0l7.09-7.09c.69-.69.69-1.82,0-2.51l-1.82-1.82c-.55-.55-.63-1.4-.22-2.05,2.05-3.29,3.57-6.95,4.47-10.84.17-.74.84-1.25,1.59-1.25h2.58c.98,0,1.78-.8,1.78-1.78ZM359.55,107c-12.98,0-23.5-10.53-23.5-23.52s10.51-23.5,23.5-23.5,23.5,10.53,23.5,23.5-10.51,23.52-23.5,23.52Z"/>
          <path class="cls-87" d="M328.1,54.76v-5.7c0-.56-.45-1.01-1.01-1.01h-1.47c-.43,0-.81-.29-.91-.71-.51-2.21-1.37-4.29-2.54-6.16-.23-.37-.19-.86.12-1.17l1.03-1.03c.39-.39.39-1.03,0-1.43l-4.03-4.03c-.39-.39-1.03-.39-1.43,0l-1.03,1.03c-.31.31-.79.36-1.17.12-1.87-1.17-3.95-2.03-6.17-2.54-.42-.1-.71-.48-.71-.91v-1.46c0-.56-.45-1.01-1.01-1.01h-5.7c-.56,0-1.01.45-1.01,1.01v1.46c0,.43-.29.81-.71.91-2.22.51-4.29,1.37-6.17,2.54-.37.23-.86.19-1.17-.12l-1.03-1.03c-.39-.39-1.03-.39-1.43,0l-4.03,4.03c-.39.39-.39,1.03,0,1.43l1.03,1.03c.31.31.36.79.12,1.17-1.17,1.87-2.03,3.95-2.54,6.17-.1.42-.48.71-.91.71h-1.47c-.56,0-1.01.45-1.01,1.01v5.7c0,.56.45,1.01,1.01,1.01h1.47c.43,0,.81.29.91.71.51,2.21,1.37,4.29,2.54,6.16.23.37.19.86-.12,1.17l-1.03,1.03c-.39.39-.39,1.03,0,1.43l4.03,4.03c.39.39,1.03.39,1.43,0l1.03-1.03c.31-.31.79-.36,1.17-.12,1.87,1.17,3.95,2.03,6.16,2.54.42.1.71.48.71.91v1.47c0,.56.45,1.01,1.01,1.01h5.7c.56,0,1.01-.45,1.01-1.01v-1.47c0-.43.29-.81.71-.91,2.21-.51,4.29-1.37,6.16-2.54.37-.23.86-.19,1.17.12l1.03,1.03c.39.39,1.03.39,1.43,0l4.03-4.03c.39-.39.39-1.03,0-1.43l-1.03-1.03c-.31-.31-.36-.79-.12-1.17,1.17-1.87,2.03-3.95,2.54-6.16.1-.42.48-.71.91-.71h1.47c.56,0,1.01-.45,1.01-1.01ZM304.93,63.76c-6.54,0-11.84-5.31-11.84-11.85s5.3-11.84,11.84-11.84,11.84,5.31,11.84,11.84-5.3,11.85-11.84,11.85Z"/>
        </g>
        <g>
          <rect class="cls-78" x="123.57" y="83.48" width="342.86" height="235.81" rx="20.74" ry="20.74"/>
          <path class="cls-87" d="M458.02,105.12v174.95c0,3.21-2.6,5.81-5.81,5.81H137.8c-3.21,0-5.81-2.6-5.81-5.81V105.12c0-7.68,6.22-13.9,13.9-13.9h298.23c7.68,0,13.9,6.22,13.9,13.9Z"/>
          <polygon class="cls-64" points="327.71 369.6 262.29 369.6 269.16 329.73 270.96 319.29 319.04 319.29 320.84 329.73 327.71 369.6"/>
          <polygon class="cls-66" points="320.84 329.73 269.16 329.73 270.96 319.29 319.04 319.29 320.84 329.73"/>
          <rect class="cls-27" x="240.61" y="361.03" width="108.77" height="8.57"/>
          <rect class="cls-60" x="193.54" y="228.3" width="202.91" height="6.05"/>
        </g>
        <g>
          <path class="cls-18" d="M89.46,355.98l-.87,5.87s4.92,1.52,6.88.54l1.57-5.66"/>
          <path class="cls-18" d="M125.64,353.9l.46,7.86s4.42,1.55,8.09-1.04l.15-6.47"/>
          <path class="cls-72" d="M126.06,361.03s-1.89,3.13-.38,8.08h21.23s.75-3.68-3.26-4.49c-4.02-.8-9.45-3.9-9.45-3.9,0,0-.92.43-2.85.72-1.79.27-4.51-.11-5.28-.41Z"/>
          <path class="cls-72" d="M88.59,361.86s-.5,1.02-1.24,3.28c-.77,2.37-.06,3.97-.06,3.97h12.14s1.03-3.03,0-4.34c-.47-.6-1.6-1.09-2.4-1.57-.94-.57-1.53-1.08-1.53-1.08,0,0-3.91.49-6.91-.26Z"/>
          <path class="cls-8" d="M115.64,249.81v25.97l5.96-4.21c.64,7.39,1.71,16.5,2.84,29.01-2.8,6.88-1.05,27.25-.47,35.24.58,8.11,1.68,21.93,1.68,21.93,5.48.97,8.69-.22,8.69-.22,0,0,.51-11.23.81-15.75.3-4.52,1.94-31.03,3.24-38.2.57-3.16,1.11-23.42,1.44-38.11.13-5.68-1-16.81-1-16.81l-23.19,1.16Z"/>
          <path class="cls-38" d="M107.05,246.9s-4.1,9.14-4.09,19.19c.01,8.18-1.91,29.61-1.91,29.61,0,0-4.01,10.84-6.27,21.53s-5.88,40.45-5.88,40.45c0,0,5.53,1.41,8.06.48,0,0,7.88-23.08,10.88-31.82s6.54-23.78,7.28-27.64c1.06-5.5,7.57-33.22,7.57-33.22l-.53-15.91-15.11-2.67Z"/>
          <path class="cls-18" d="M131.01,190.98c-1.68-1.4-1.94-2.3-1.94-2.3-.18-.72-.28-1.87-.33-3.03-.08-1.51-.09-3.05-.08-3.74v-.37l1.06-.83-11.1-5.04c2.75,7.37.45,13.13.43,13.18h0s-.73,1.82-1.86,2.54c-1.68,1.07-3.09,1.4-4.56,1.99,0,0,13.16,9.45,22.88-.61,0,0-3.57-1.01-4.5-1.78Z"/>
          <path class="cls-84" d="M123.1,180.53c.18.28,1.04,5.11,5.79,7.01-.08-1.51-.18-3.22-.17-3.91l-5.61-3.1Z"/>
          <path class="cls-52" d="M136.46,162.84s1.79-.08,2.38,1.96c1.03,3.59-2.88,7.11-2.88,7.11l.5-9.07Z"/>
          <path class="cls-18" d="M120.89,177.59c1.68,5.35,8.7,9.12,11.67,8.06,3.75-1.33,5.23-10.81,4.89-12.18-.99-4.06-.98-6.18-.87-7.95.19-3.1-2.76-7.48-9.68-6.71-6.88.76-12.99,6.64-6.02,18.77Z"/>
          <path class="cls-26" d="M111.96,164.19c-.41-.39-.75-.86-.97-1.45-1.63-4.34,2.96-8.15,6.48-6.26.9.48,1.54,1.14,2.01,1.85,1.7.38,1.16,2.15,1.16,2.15l-.25.03c.33,1.36.24,2.48.24,2.48l-2.97,2.81s-.99.08-2.23-.11l.22.51c-4.81.56-4.52-1.86-3.68-2.01Z"/>
          <path class="cls-95" d="M114.1,165.75s.18-5.43,6.04-6.63l-1.9,3.15-4.14,3.48Z"/>
          <path class="cls-42" d="M113.33,173.95c.76,3.05,2.93,3.48,3.46,5,1.03,2.97,1.83,4.28,3.18,4.42.18-1.94-.18-7.55-.18-7.55-.29-.9-.19-1.82.05-2.4.44-1.01,2.74-.36,2.74-.36,1.46.2,1.61-1.56,2.05-2.59.88-2.01,1-4.2,1-4.2-.53-3.96,3.01-8.25.51-8.63-5.93-.92-15.15,6.9-12.8,16.31Z"/>
          <path class="cls-18" d="M136.63,218.32s9.22,21.65,14.85,21.08c3.77-.38,7.14-4.11,9.97-7.36,2.87-3.3,5.17-6.12,5.17-6.12l-11.14,2.19-3.17-6.82-2.06-5.02-1.59-3.89-12.02,5.94Z"/>
          <path class="cls-9" d="M151.44,217.36s-1.98,3.27-9.77,5.88c-1.16.39-2.46.76-3.89,1.11,0,0-.29-3.28-.92-5.6-.19-.72-.4-1.5-.62-2.33-.58-2.16-1.22-4.61-1.8-6.85-1.18-4.58,3.49-13.51,3.11-16.12,4.93,2.03,13.89,23.91,13.89,23.91Z"/>
          <path class="cls-58" d="M141.67,223.24c-1.16.39-2.46.76-3.89,1.11,0,0-.29-3.28-.92-5.6-.19-.72-.4-1.5-.62-2.33l5.03-1.66s-.17,4.13.4,8.48Z"/>
          <path class="cls-10" d="M138.93,249.66c-15.97,5.04-26.94-.36-31.88-2.76.01-.19,4.99-11.84,4.95-18.46-.13-21.59-5.87-28.68-5.97-29.7-.14-1.57,8.83-6.37,8.83-6.37,0,0,3.73,3.05,7.72,4.2,4.34,1.26,9,.44,9.52-5.14,0,0,2.35.64,5.46,2.02,1.64,4.66,3.68,14.79,3.72,21.31-.11,1.15-4.72,13.72-2.34,34.9Z"/>
          <rect class="cls-51" x="86.08" y="236.92" width="39.87" height="27.75" rx="1.66" ry="1.66" transform="translate(-82.27 54.11) rotate(-20.84)"/>
          <path class="cls-18" d="M116.46,260.34c-.17-.48-1.6-1.83-2.01-2.37-.42-.54-1.74-1.45-2.49-1.87s-2.37-2.42-2.37-2.42h0c-.3-1.54-.68-3.39-1.19-5.53-1.24-5.2-2.2-12.47-2.74-17.23,1.24-3.61,4.22-13.47,4.22-13.47l-10.59-4.26s-3.56,13.09-3.8,15.11c-.03.26-.06.53-.09.79-.45,3.37,2.5,12.93,6.09,20.31,1.39,2.86,2.72,5.51,3.71,7.45h0c.19,1.49-.02,4.61.76,5.77.7,1.04,1.46,2.2,2.16,2.49.66.27,1.18.2,1.76-.06.92.01,1.46-.26,1.63-.68,1.05-.12,1.14-.22,1.61-.91,1.19-.02,1.71-.61,1.42-1.29-.22-.51-1.54-2.61-1.54-2.61,0,0,1.58,1.23,2.28,1.33.71.1,1.35-.08,1.18-.56Z"/>
          <path class="cls-19" d="M96.64,220.12c1.8,1.25,10.48,3.62,12.88,2.97.42-1.03,2.88-7.48,4.17-12.78,1.96-8.06,1.16-17.93,1.16-17.93,0,0-10.77,3.49-14.19,15.4-.91,3.18-2.58,7.79-4.02,12.35Z"/>
          <path class="cls-43" d="M123.54,157.73s-2.94,4.71-1.37,8.39c1.2.5,2.58,3.28,2.58,6.16,8.1.57,13-4.37,12.71-7.76-.77-9.58-13.92-6.79-13.92-6.79Z"/>
          <path class="cls-18" d="M122.57,173.05s-.73-2.59-2.65-1.72c-2.08.94-.6,4.05.08,5.2.68,1.15,2.05.85,2.25-.01"/>
          <path class="cls-39" d="M148.48,231.3h24.1c.54,0,1-.39,1.09-.92l6.14-35.64c.12-.68-.41-1.3-1.09-1.3h-24.1c-.54,0-1,.39-1.09.92l-6.14,35.64c-.12.68.41,1.3,1.09,1.3Z"/>
          <path class="cls-18" d="M178.99,200.09s.83,1.66.83,3.11-1.1,4.21-2.19,4.75c-1.09.54-3.3.48-3.8.32-.5-.16-.63-.63-.63-.63,0,0-1.34-.09-1.58-.22-.76-.43-.36-1.1-.36-1.1,0,0-1.03.02-1.41-.24-.38-.25-.55-1.06.05-1.58.42-.37,1.34-.64,1.34-.64,0,0,.03-.64.66-1.16.3-.25,1.96-.7,3.46-.86,1.16-.12,3.05-.14,3.63-1.76Z"/>
        </g>
        <g>
          <g>
            <rect class="cls-87" x="373.71" y="309.65" width="68.25" height="6.25"/>
            <rect class="cls-12" x="426.57" y="309.65" width="15.39" height="6.25"/>
            <line class="cls-2" x1="387.38" y1="315.9" x2="387.38" y2="369.13"/>
            <line class="cls-2" x1="438.4" y1="315.9" x2="438.4" y2="369.13"/>
            <line class="cls-2" x1="438.4" y1="356.78" x2="387.38" y2="356.78"/>
            <line class="cls-5" x1="430.56" y1="356.78" x2="379.54" y2="356.78"/>
            <line class="cls-5" x1="379.54" y1="315.9" x2="379.54" y2="369.13"/>
            <line class="cls-5" x1="430.56" y1="315.9" x2="430.56" y2="369.13"/>
          </g>
          <g>
            <path class="cls-18" d="M402.07,356.51l-1.47,5.35s-4.92,1.52-6.88.54l.67-6.21"/>
            <path class="cls-72" d="M393.88,360.95s-.29,1.18-.77,2.51c-.78.9-1.26,1.48-1.53,1.95-.97,1.67.11,3.7.11,3.7h11.23s1.03-3.03,0-4.34c-.47-.6-2.21-3.31-2.21-3.31,0,0-3,.29-6.84-.5Z"/>
            <path class="cls-67" d="M354.15,356.78l-.9,4.6s2.81,1.21,6.98,1.06l1.56-4.94-7.65-.73Z"/>
            <path class="cls-72" d="M340.88,369.13h19.86s2.16-3.54-.16-7.76c0,0-3.63.31-7.14-.92,0,0-2.42,1.56-5.37,3.08-3.09,1.6-7.73,2.98-7.18,5.6Z"/>
            <path class="cls-80" d="M413.95,309.65h-19.34c-4.48.94-11.66,5.26-17.66,5.67-.99,7.11-3.42,13.68-5.84,19.66-2.36,5.82-7.38,18.22-9.28,23.92-1.26-.05-4.47-.3-7.95-1.75,2.32-12.91,7.52-41.26,8.94-46.84,2.03-7.97,6.99-11.1,12.28-12.3,4.97-1.12,6.42-1.43,11.09-2.47l12.6-2.87,14.83-3.63s.31,1.92.58,4.54c1.77,7.61,1.55,13.11-.25,16.07Z"/>
            <path class="cls-40" d="M432.61,309.65h-6.04s-1.96,4.42-13.24,5.63c-.67,4.35-1.42,7.12-3.63,15.36-1.34,4.99-8.19,29.07-8.19,29.07-4.06.71-7.77-.81-7.77-.81,0,0,1.92-37.21,2.51-42.75.22-2.14,1.36-9.81,1.78-11.71,1.17-5.28,5.2-7.45,5.65-7.7.03-.01,2.32-.68,4.66-1.2l12.6-2.87,13.86-4.53s1.28,2.82,1.55,5.44c1.67,7.18-.03,15.78-3.73,16.07Z"/>
            <path class="cls-67" d="M398.31,244.8l-13.31,13.22s-4.1-2.29-10.18-5.62c-6.08-3.33-10.97-5-10.97-5l-1.59,3.2s14.01,13.34,21.41,15.9c.05.02.11.04.16.06.24.08.47.15.7.2h0c.37.08.77.15,1.22.19,6.38.58,18.93-12.82,18.93-12.82l-6.36-9.32Z"/>
            <path class="cls-81" d="M385.99,271h-19.97c-.46,0-.86-.3-.98-.74l-8.06-28.71c-.18-.65.31-1.29.98-1.29h19.97c.46,0,.86.3.98.74l8.06,28.71c.18.65-.31,1.29-.98,1.29Z"/>
            <path class="cls-65" d="M411.77,251.53l-6.59,5.56-3.42,2.89-2.32,1.96c-6.2-5.13-9.64-9.42-9.64-9.42,8.93-9.62,13.61-13.2,13.68-13.25,1.49-1.16,8.29,12.26,8.29,12.26Z"/>
            <path class="cls-22" d="M405.18,257.09l-3.42,2.89c.82-1.93,2.08-9.79,2.08-9.79l1.02,1,.32,5.9Z"/>
            <path class="cls-92" d="M436.54,240.95c-.14,3.49-2.54,30.69-2.26,38.51.17,4.61,1.82,11.19,1.82,11.93,0,.51-.67,1.05-.93,1.2-.96.55-2.84.94-5.12,1.22h0c-4.49.55-10.55.65-14.2.65-4.91,0-12.27-.78-13.2-2.02-.85-1.13-.09-2.78.34-5.05,3.14-16.82-.02-44.6.51-48.12,1.96-1.3,11.01-4.2,11.15-4.24,1.31-.08,1.57-.72,3.1-.68,1.33.04,4.27.22,6.49.51,0,0,8.1,1.98,12.32,6.1Z"/>
            <g>
              <path class="cls-86" d="M403.93,216.65s.62,7.48,3.1,7.99c2.48.5,1.87-2.68,1.87-2.68l-.35-3.55-4.63-1.76Z"/>
              <path class="cls-18" d="M416.27,240.94c-4.89-.2-3.19-4.5-1.64-5.92.06-.09.11-.26.14-.49.15-1.15-.03-3.8-.12-5.21-.03-.42-.05-.73-.05-.86l2.88-2.02,5.99-4.25s.27,6.55.75,12.66c.75,2.02-2.97,6.3-7.95,6.09Z"/>
              <path class="cls-84" d="M420.06,228.3s-1.57,5.06-5.29,6.23c.15-1.15-.03-3.8-.12-5.21l5.41-1.02Z"/>
              <path class="cls-18" d="M406.15,216.25s-.78,16.05,5,17.13c0,0,4.62.62,8.46-4.54,1.11-1.49,2.5-1.82,2.96-3.62.74-2.92,1.79-8.29.45-11.54-1.9-4.62-16.69-8.68-16.87,2.56Z"/>
              <path class="cls-31" d="M423.09,212.19c1.52-5.96-6.89-11.59-17.76-3.27-1.13-.78-3.21-1.51-4.21-.81-1.21.84-1.44,3.9-.7,6,1.58,4.49,7.4,5.51,11.9,4.36,3.13-.8,4.78-2.59,5.87-2.46-.99,4.38.99,8.09,2.54,7.83.19.36,1.17-1.21,1.23-.69.12,1.14,1.15,3.05,2.31.84,1.74-3.31,3.32-11.65-1.18-11.79Z"/>
              <path class="cls-18" d="M421.69,227.22c2.19.52,4.55-6.21,1.72-6.54-2.15-.25-2.98,3.17-2.98,3.17,0,0-.52,2.95,1.26,3.37Z"/>
            </g>
            <path class="cls-18" d="M447.53,269.88s0-.08-.02-.13c-.38-2.52-.91-4.88-1.07-5.53-.02-.11-.03-.17-.03-.17-1.23-6.1-3.72-11.98-3.72-11.98l-10.08,5.15s2.01,8.38,4.13,13.98c0,0-8.15,6.78-13.34,10.74-2.55,1.95-4.47,3.4-5.77,4.37,0,0-4.59,1.8-7.1,3.15-.97.52-5.35,7.6-5.22,7.93.12.33.66.62,1.37.3.27-.12.72-.57,1.15-1.15,0,0-.46.78-.38,1.04.07.25.47.4,1.02.18.51-.2.92-.74,1.37-1.46-.06.18-.1.32-.12.36-.06.22.41.67,1.33.24.66-.31,1.73-2.48,2.02-2.82.11-.13.49-.26.98-.36l-1.18,3.8s.11.42,1.17.16c.94-.24,2.02-2.84,2.54-4.25,3.47-.29,4.56-3.97,4.56-3.97,3.84-2.31,10.02-4.38,17.47-7.6,3.07-1.32,6.12-3.49,7.48-4.32.06-.04.98-.59,1.04-.63.4-.21.63-.79.72-1.61h0c.16-1.4-.03-3.45-.32-5.42Z"/>
            <path class="cls-48" d="M428.41,250.8c1.08,4.47,4.91,13.6,4.91,13.6,1.72.05,5.12-.6,7.71-1.65,3.75-1.52,5.2-3.38,5.2-3.38,0,0-2.38-6.24-4.25-10.82-1.29-3.15-2.98-6.15-3.81-6.9-3.51-3.16-6.18-3.97-8.46-4.92l-1.31,14.07Z"/>
            <path class="cls-87" d="M424.77,299.67h-16.93v-1.66h16.93c.46,0,.83.37.83.83h0c0,.46-.37.83-.83.83Z"/>
            <path class="cls-87" d="M415.69,298.09l-8.65-31.13c-.26-.92-1.09-1.56-2.05-1.56h-41c-.29,0-.55.12-.74.3l-.99.78.75.51,8.62,31.02c.14.49.58.83,1.09.83h42.4c.4,0,.68-.38.58-.76Z"/>
            <path class="cls-11" d="M414.08,299.67h-42.4c-.51,0-.95-.34-1.09-.83l-8.68-31.24c-.19-.69.33-1.38,1.05-1.38h41c.96,0,1.79.64,2.05,1.56l8.65,31.13c.11.38-.18.76-.58.76Z"/>
            <path class="cls-67" d="M362.03,246.77s-.05-.02-.07-.03c.27-.3-.07-1.27-1.21-1.71-1.35-.52-1.69-.62-1.69-.62l-1.49-.73-.44-1.55s-1.39,2.41-1.36,3.07c.03.66,1.31,3.75,2.46,4.35,1.15.6,2.87,1.26,3.43,1.26.46,0,.61-.48.19-.99.44.11.83.2.98.2.51,0,.4-.94-.48-1.54.3.07.54.12.66.12.6,0,.36-1.29-.99-1.81Z"/>
          </g>
        </g>
        <g>
          <path class="cls-70" d="M507.28,363.67l-1.4-5.81c2.39.41,6.28-.75,7.85-.96l-.16,6.77s-2.94,1.82-6.29,0Z"/>
          <g>
            <path class="cls-17" d="M472.69,247.74s0-.03,0-.03c0,0,0,.02,0,.03Z"/>
            <path class="cls-70" d="M476.68,363.67l-.26-4.42c2.39.41,5.15.16,6.72-.04l-.16,4.46s-2.94,1.82-6.29,0Z"/>
            <path class="cls-35" d="M514.29,358.02c-1.64.94-6.42,1.67-8.73.92,0,0-10.27-46.56-11.58-52.29-1.72-7.48-4.71-16.51-6.49-24.67.02,4.23-.35,9.73-.76,14.41v.02c-.47,5.41-.98,9.72-.98,9.72.36,3.42,1.07,19.99-.3,30.52-.89,6.78-.94,22.56-.94,22.56-1.83.42-5.43.77-9.02.11,0,0-5.63-52.02-5.88-56.07-1.03-17.03-.29-54.76-.21-55.5,0,.27,1.96,1.97,7.97,1.63,8.28-.46,23.9-1.64,23.9-1.64,4.58,2.58,5.44,15.83,5.27,22.24-.19,3.02,1.37,23.6,2.36,35.4,3.02,7.1,3.05,19.2,3.64,28.08.93,13.85,1.73,24.56,1.73,24.56Z"/>
          </g>
          <path class="cls-70" d="M464.66,210.38l-3.13,16.11c-3.87-3.14-9.88-7.82-13.94-10.09l-3.17,1.86s3.44,4.71,8.25,9.97c6.29,6.88,9.71,9.71,9.71,9.71h0c.87.83,2.15,1.08,4.05.07,6.15-3.27,9.58-22.95,9.58-22.95l-11.35-4.69Z"/>
          <path class="cls-46" d="M461.03,219.93s2.63,1.79,6.29,2.95c1,.32,2.08.59,3.21.76.57.1,1.15.16,1.74.19.79.03,1.63.03,2.47-.03.27-.03.54-.06.8-.09l2.13-8.68,1.58-6.42-10.82-12.51s-2.83,4.78-7.4,23.84Z"/>
          <g>
            <path class="cls-75" d="M472.6,161.55h2.01s.13.6.19,1.31l2.31,1.35v3.7s.29,3.34-2.22,2.57c-1.48-.46-1.75-3.34-1.73-5.62-1.47-.96-.56-3.31-.56-3.31Z"/>
            <path class="cls-70" d="M491.98,188.95c-.48-1.13-.93-15-.93-15l-6.19,5.2-2.92,2.45c-.32,1.46-.83,3.33-1.26,4.85-.45,1.55-.18,2.91-.18,2.91,0,0,1.25,2.33,4.18,2.1,5.69-.43,7.29-2.51,7.29-2.51Z"/>
            <path class="cls-103" d="M488.7,179.16s-2.48,5.48-8.01,7.29c.44-1.51.95-3.38,1.26-4.84l2.92-2.46h3.83Z"/>
            <path class="cls-70" d="M474.4,167.15s-1.24,13.04,3.01,15.41c2.34,1.3,7.27.8,10.48-2.19,1.4-1.31,2.24-3.11,2.9-4.92,1.07-2.93,2.7-8.37,1.66-11.85-1.48-4.96-16.7-8.03-18.05,3.55Z"/>
            <path class="cls-101" d="M476.01,154.86c2.46-.5,2.73-2.46,5.46-2.18s3.14,1.73,4.42,2.23c1.28.5,2.79.06,4.46,1.05,1.07.64,1.44,1.77,1.57,2.51,5.06.77,4.6,4.25,3.42,8.16-.89,2.93.46,3.83-.63,5.95-.46.9-1.67,2.27-1.91,3.48-.4,2.01-.58,2.74-1.51,3.61-.37-2.1-1.09-3.73-1.74-7.21-.05-.26-.11-.49-.17-.72-1.87-.18-3.09.16-3.51-1.14-.34-1.08-.21-2.55-.34-3.92-4.36.3-5.54-1.48-6.1-1.92-4.7,1.04-6.54.59-7.65-1.05-1.19-1.75-.1-2.87-.12-3.4,0-.02-.01-.03-.01-.04-.35-2.4,1.91-4.91,4.37-5.41Z"/>
          </g>
          <path class="cls-7" d="M469.65,250.15c1.85,2.33,8.97,4.19,14.3,4.19,6.01,0,17.39-2.24,19.06-4.52.18-.25,1.28-1.33-.48-7.93-.43-1.6-1.1-5.57-1.19-6.99-.5-7.89,1.77-18.89,2.58-21.29,2.04-6.03,3.99-10.9,3.17-15.72-.93-1.6-1.43-2.74-2.42-3.83-2.47-2.72-11.03-6.71-12.97-7.04,0,0-1.95,3.66-6.57,4.02-5.66.44-4.57-4.02-4.57-4.02-3.36,1.71-7.58,3.84-10.52,6.82-2.41,2.45-4.23,7.97-2.68,18.29.48,3.21,1.33,15.3,1.69,25.03.25,6.57-.15,12.06.59,13Z"/>
          <path class="cls-70" d="M497.18,208.57s2.83,7.12,5.83,12.86c1.03,1.96,3.03,8.11,3.86,8.66,2.67,1.76,7.24-2.13,9.04-3.88.01-.14-.65-4.24-2.09-9.04-2.2-7.32-5.5-16.39-5.5-16.39l-11.14,7.79Z"/>
          <path class="cls-57" d="M495.48,195.19c1.46-1.9,6.35-4.59,9.57-.6.61.75,4.01,6.52,5.71,11.42,1.76,5.09,3.03,9.12,3.03,9.12,0,0-3.3,1.74-6.74,2.93-2.88.98-6.21,1.73-8.75,1.12,0,0-3.39-8.96-4.21-13.9,0,0-1.24-6.66,1.39-10.09Z"/>
          <path class="cls-70" d="M515.91,226.2s-15.95-6.99-18.26-8.34c-3.46-2.02-5.61-3.4-6.83-4.21h0s-2.73-5.15-3.4-6.44c-.67-1.29-3.25-1.58-5.05-2.66-1.79-1.08-3.05-2.8-3.89-2.51-.84.29.31,2.57,1.17,3.29.86.73,2.8,2.23,2.8,2.23,0,0-.9,1.33-.9,1.84s-.79,1.08-.83,2.01-.5,1.36-.32,2.3c.18.93,1.14,2.68,1.51,3.16.18.23.71.12.89-.19.18-.31.29-.83.32-.98.11.02,1.64,2.18,4.31,2.54.17.02.33.02.48,0,5.64,6.87,10.86,12.01,20.39,17.18,6.85,3.71,8.75-5.4,7.62-9.22Z"/>
          <path class="cls-72" d="M472.44,363.34s3.05-2.46,4.07-2.46c.79,0,1.18.49,1.91.76.51.19.95.22,1.08.22,2.61.03,3.57-.73,3.57-.73,2.45,4.47.98,8.08.98,8.08h-19.92c-.56-4.73,5.83-5.07,8.32-5.88Z"/>
          <path class="cls-72" d="M504.8,362.3s.77-.87,2.27-1.42c1.3-.47,2.87-.78,5.52.25.71.02,1.05-.06,1.05-.06.2.67.58,1.2,1.03,1.67,3.81,4,1.56,6.47,1.56,6.47h-10.94c-5.19-.75-2.99-6.11-.5-6.92Z"/>
          <path class="cls-70" d="M488.15,176.84c2.97,1.62,4.98-5.95,2.05-6.69-2.22-.56-2.73,2.57-2.73,2.57,0,0-1.02,3.2.68,4.12Z"/>
          <path class="cls-63" d="M487.49,281.98c.01,1.62-.04,3.42-.13,5.29l-4.84-16.58c-1.26-1.99-2.38-3.25-2.52-3.41l4.49,1.75c.69,3.68,3,12.95,3,12.95Z"/>
          <path class="cls-36" d="M475.94,229.32h-22.13c-1.16,0-2.24-.63-2.8-1.65l-13.86-25.01c-.46-.83.14-1.84,1.09-1.84h22.13c1.16,0,2.24.63,2.8,1.65l13.86,25.01c.46.83-.14,1.84-1.09,1.84Z"/>
          <path class="cls-70" d="M448.81,217.1c.99-.14.65-1.09-.13-1.53-.32-.18-.82-.35-1.34-.5,0,0,0,0,0,0,2.04.38,1.71-.96.75-1.5-.96-.54-3.5-1-3.5-1l-2.84-1.59-1.27-2.29s-.64,2.95.07,4.12c-.04.54-.08,1.43.03,1.64.05.09.16.2.29.3.08.8.23,1.62.56,1.84.09.06.18.11.27.17.06.49.2.92.49,1.12.97.66,2.37,1.1,2.37,1.1,0,0,1.34.18,3.03.49,1.36.25,1.44-.41,1.02-.91,1.17-.03.92-.96.19-1.47Z"/>
        </g>
        <g>
          <rect class="cls-25" x="263.28" y="254.46" width="86.98" height="43.41" rx="6.65" ry="6.65"/>
          <g>
            <g>
              <circle class="cls-87" cx="277.39" cy="267.92" r="7.51"/>
              <circle class="cls-41" cx="277.39" cy="265.51" r="2.41"/>
              <path class="cls-88" d="M282.41,273.52c-1.33,1.19-3.09,1.91-5.01,1.91s-3.69-.73-5.02-1.92c.08-2.7,2.29-4.87,5.02-4.87,1.39,0,2.64.56,3.55,1.47s1.43,2.07,1.47,3.4Z"/>
            </g>
            <g>
              <path class="cls-87" d="M316.29,265.51h-27.52c-.48,0-.87-.39-.87-.87h0c0-.48.39-.87.87-.87h27.52c.48,0,.87.39.87.87h0c0,.48-.39.87-.87.87Z"/>
              <path class="cls-87" d="M316.29,268.78h-27.52c-.48,0-.87-.39-.87-.87h0c0-.48.39-.87.87-.87h27.52c.48,0,.87.39.87.87h0c0,.48-.39.87-.87.87Z"/>
              <path class="cls-87" d="M301.23,272.06h-12.46c-.48,0-.87-.39-.87-.87h0c0-.48.39-.87.87-.87h12.46c.48,0,.87.39.87.87h0c0,.48-.39.87-.87.87Z"/>
              <path class="cls-87" d="M305.67,272.06h-1.6c-.48,0-.87-.39-.87-.87h0c0-.48.39-.87.87-.87h1.6c.48,0,.87.39.87.87h0c0,.48-.39.87-.87.87Z"/>
            </g>
          </g>
          <g>
            <g>
              <circle class="cls-87" cx="336.15" cy="284.41" r="7.51" transform="translate(-41.3 57.66) rotate(-9.24)"/>
              <path class="cls-55" d="M333.74,282c0,1.33,1.08,2.41,2.41,2.41s2.41-1.08,2.41-2.41-1.08-2.41-2.41-2.41-2.41,1.08-2.41,2.41Z"/>
              <path class="cls-93" d="M331.13,290.01c1.33,1.19,3.09,1.91,5.01,1.91s3.69-.73,5.02-1.92c-.08-2.7-2.29-4.87-5.02-4.87-1.39,0-2.64.56-3.55,1.47-.87.87-1.43,2.07-1.47,3.4Z"/>
            </g>
            <g>
              <path class="cls-87" d="M297.25,282h27.52c.48,0,.87-.39.87-.87h0c0-.48-.39-.87-.87-.87h-27.52c-.48,0-.87.39-.87.87h0c0,.48.39.87.87.87Z"/>
              <path class="cls-87" d="M291.31,282h2.82c.48,0,.87-.39.87-.87h0c0-.48-.39-.87-.87-.87h-2.82c-.48,0-.87.39-.87.87h0c0,.48.39.87.87.87Z"/>
              <path class="cls-87" d="M297.25,285.27h27.52c.48,0,.87-.39.87-.87h0c0-.48-.39-.87-.87-.87h-27.52c-.48,0-.87.39-.87.87h0c0,.48.39.87.87.87Z"/>
              <path class="cls-87" d="M312.31,288.55h12.46c.48,0,.87-.39.87-.87h0c0-.48-.39-.87-.87-.87h-12.46c-.48,0-.87.39-.87.87h0c0,.48.39.87.87.87Z"/>
            </g>
          </g>
        </g>
        <g>
          <path class="cls-87" d="M158.6,139.65h-73.31c-5.52,0-10-4.48-10-10h0c0-5.52,4.48-10,10-10h73.31c5.52,0,10,4.48,10,10h0c0,5.52-4.48,10-10,10Z"/>
          <path class="cls-79" d="M90.25,125.48l1.03,2.08c.08.16.23.27.4.29l2.3.33c.44.06.61.6.3.91l-1.66,1.62c-.13.12-.18.3-.15.47l.39,2.29c.07.44-.38.77-.77.56l-2.06-1.08c-.16-.08-.34-.08-.5,0l-2.06,1.08c-.39.21-.85-.13-.77-.56l.39-2.29c.03-.17-.03-.35-.15-.47l-1.66-1.62c-.32-.31-.14-.85.3-.91l2.3-.33c.17-.03.32-.13.4-.29l1.03-2.08c.2-.4.76-.4.96,0Z"/>
          <path class="cls-76" d="M106.33,125.48l1.03,2.08c.08.16.23.27.4.29l2.3.33c.44.06.61.6.3.91l-1.66,1.62c-.13.12-.18.3-.15.47l.39,2.29c.07.44-.38.77-.77.56l-2.06-1.08c-.16-.08-.34-.08-.5,0l-2.06,1.08c-.39.21-.85-.13-.77-.56l.39-2.29c.03-.17-.03-.35-.15-.47l-1.66-1.62c-.32-.31-.14-.85.3-.91l2.3-.33c.17-.03.32-.13.4-.29l1.03-2.08c.2-.4.76-.4.96,0Z"/>
          <path class="cls-77" d="M122.42,125.48l1.03,2.08c.08.16.23.27.4.29l2.3.33c.44.06.61.6.3.91l-1.66,1.62c-.13.12-.18.3-.15.47l.39,2.29c.07.44-.38.77-.77.56l-2.06-1.08c-.16-.08-.34-.08-.5,0l-2.06,1.08c-.39.21-.85-.13-.77-.56l.39-2.29c.03-.17-.03-.35-.15-.47l-1.66-1.62c-.32-.31-.14-.85.3-.91l2.3-.33c.17-.03.32-.13.4-.29l1.03-2.08c.2-.4.76-.4.96,0Z"/>
          <path class="cls-47" d="M138.5,125.48l1.03,2.08c.08.16.23.27.4.29l2.3.33c.44.06.61.6.3.91l-1.66,1.62c-.13.12-.18.3-.15.47l.39,2.29c.07.44-.38.77-.77.56l-2.06-1.08c-.16-.08-.34-.08-.5,0l-2.06,1.08c-.39.21-.85-.13-.77-.56l.39-2.29c.03-.17-.03-.35-.15-.47l-1.66-1.62c-.32-.31-.14-.85.3-.91l2.3-.33c.17-.03.32-.13.4-.29l1.03-2.08c.2-.4.76-.4.96,0Z"/>
          <path class="cls-85" d="M154.58,125.48l1.03,2.08c.08.16.23.27.4.29l2.3.33c.44.06.61.6.3.91l-1.66,1.62c-.13.12-.18.3-.15.47l.39,2.29c.07.44-.38.77-.77.56l-2.06-1.08c-.16-.08-.34-.08-.5,0l-2.06,1.08c-.39.21-.85-.13-.77-.56l.39-2.29c.03-.17-.03-.35-.15-.47l-1.66-1.62c-.32-.31-.14-.85.3-.91l2.3-.33c.17-.03.32-.13.4-.29l1.03-2.08c.2-.4.76-.4.96,0Z"/>
        </g>
        <g>
          <rect class="cls-54" x="183.78" y="45.83" width="52.89" height="62.98" rx="6.92" ry="6.92"/>
          <circle class="cls-87" cx="210.38" cy="76.79" r="19.87"/>
          <g class="cls-109">
            <g>
              <path class="cls-71" d="M223.17,84.64c-12.66,3.98-22.47,1.31-25.88.09.75-3.02,1.6-5.73,1.66-7.49.14-4.02-1.34-5.29-.6-10.16.62-4.11,2.61-5.95,3.21-6.42.04-.03.07-.05.11-.08.04-.03.07-.04.07-.04.17-.13.3-.22.41-.3.04-.02.08-.05.12-.08.03-.02.04-.03.06-.04,0,0,.01,0,.01,0,1.95-1.31,4.37-2.21,7.32-2.21,2.58,0,3.77,1.6,3.77,1.6,1.52-.42,2.93-.27,4.07.33h0c.07.04.66.3.69.32.04.03.08.06.12.08.1.07.24.17.41.3.46.33,1.54,1.23,2.63,2.7,0,0,0,.01.03.04.18.29,1.36,2.25,1.19,4.93-.19,2.91-1.43,6.29-1.58,8.53-.1,1.41-.55,4.47,2.18,7.92Z"/>
              <path class="cls-21" d="M224.82,91.01l-1.35,10.31h-26.47l-1.35-10.31c3.37-1.86,7.35-2.42,7.91-2.55.03,0,.06,0,.09-.02,2.69-.22,5.21-.54,6.58-.98,1.37.44,3.89.76,6.59.98.28.07,4.39.57,7.99,2.57Z"/>
              <path class="cls-105" d="M216.82,88.44c-.6-.11-1.26-.42-1.79-.84-.52-.43-.91-.98-.98-1.59l-.78-6.84h-6.18l-.78,6.84c-.06.6-.46,1.16-.98,1.59-.52.42-1.18.75-1.79.86,0,0,2.49,6.95,6.67,6.95,3.69,0,6.59-6.98,6.59-6.98Z"/>
              <path class="cls-97" d="M201.8,73.82s-.57-.54-1.33,0c-.75.54.06,3.63.93,4.1.87.47,1.26-.14,1.26-.14l-.86-3.95Z"/>
              <path class="cls-97" d="M218.39,73.82s.57-.54,1.33,0c.75.54-.06,3.63-.93,4.1-.87.47-1.26-.14-1.26-.14l.86-3.95Z"/>
              <path class="cls-105" d="M210.19,60.69s-8.87.62-8.78,9.71c0,0,.31,6.74,1.48,8.78,1.17,2.04,3.43,5.38,7.3,5.5,3.87-.12,6.12-3.46,7.3-5.5,1.17-2.04,1.48-8.78,1.48-8.78.09-9.09-8.78-9.71-8.78-9.71Z"/>
              <path class="cls-23" d="M214.04,83.32s-.37.37-1.06.77c-.34.19-.76.4-1.24.56-.47.16-1.01.25-1.55.26-.27,0-.53-.03-.8-.07-.26-.04-.51-.11-.75-.19-.48-.15-.89-.36-1.24-.56-.69-.4-1.06-.77-1.06-.77,0,0,.46.26,1.17.55.35.15.78.29,1.23.41.23.06.47.1.71.14.23.03.49.05.74.05.99,0,1.97-.31,2.68-.6.71-.29,1.17-.55,1.17-.55Z"/>
              <path class="cls-44" d="M220.08,65.7s-2.13-3.71-2.41-3.8c-.28-.09-.97-.32-1.72-.65-.74-.32-2.35-.93-2.66-.93s-1.47.09-1.61.37c-.01.02-.01.05-.02.1-.72-.44-1.45-.85-1.63-.81-.37.09-4.36,1.3-4.36,1.3,0,0-1.89,1.69-2.54,2.1-.65.42-1.73,3.13-1.73,3.13l-.67,5.34s3.36-.09,6.89-1.48c3.81-1.5,4.44-2.97,4.97-4.55.22.23,2.17,5.34,7.42,6.03,2.17.28.06-6.16.06-6.16Z"/>
            </g>
          </g>
          <path class="cls-87" d="M263.14,39.57h-38.95c-3.9,0-7.3,3.01-7.42,6.9-.12,4.03,3.11,7.34,7.12,7.34h3.25v4.67c0,.55.67.83,1.06.44l5.11-5.11h29.54c3.9,0,7.3-3.01,7.42-6.9.12-4.03-3.11-7.34-7.12-7.34Z"/>
          <g>
            <path class="cls-45" d="M227.19,43.01l.8,1.61c.08.15.22.26.39.29l1.78.26c.43.06.6.59.29.89l-1.29,1.26c-.12.12-.18.29-.15.46l.3,1.77c.07.43-.38.76-.76.55l-1.59-.84c-.15-.08-.34-.08-.49,0l-1.59.84c-.38.2-.83-.12-.76-.55l.3-1.77c.03-.17-.03-.34-.15-.46l-1.29-1.26c-.31-.3-.14-.83.29-.89l1.78-.26c.17-.02.32-.13.4-.29l.8-1.61c.19-.39.75-.39.94,0Z"/>
            <path class="cls-96" d="M238.39,43.01l.8,1.61c.08.15.22.26.4.29l1.78.26c.43.06.6.59.29.89l-1.29,1.26c-.12.12-.18.29-.15.46l.3,1.77c.07.43-.38.76-.76.55l-1.59-.84c-.15-.08-.34-.08-.49,0l-1.59.84c-.38.2-.83-.12-.76-.55l.3-1.77c.03-.17-.03-.34-.15-.46l-1.29-1.26c-.31-.3-.14-.83.29-.89l1.78-.26c.17-.02.32-.13.4-.29l.8-1.61c.19-.39.75-.39.94,0Z"/>
            <path class="cls-16" d="M249.59,43.01l.8,1.61c.08.15.22.26.4.29l1.78.26c.43.06.6.59.29.89l-1.29,1.26c-.12.12-.18.29-.15.46l.3,1.77c.07.43-.38.76-.76.55l-1.59-.84c-.15-.08-.34-.08-.49,0l-1.59.84c-.38.2-.83-.12-.76-.55l.3-1.77c.03-.17-.03-.34-.15-.46l-1.29-1.26c-.31-.3-.14-.83.29-.89l1.78-.26c.17-.02.32-.13.4-.29l.8-1.61c.19-.39.75-.39.94,0Z"/>
            <path class="cls-33" d="M260.79,43.01l.8,1.61c.08.15.22.26.4.29l1.78.26c.43.06.6.59.29.89l-1.29,1.26c-.12.12-.18.29-.15.46l.3,1.77c.07.43-.38.76-.76.55l-1.59-.84c-.15-.08-.34-.08-.49,0l-1.59.84c-.38.2-.83-.12-.76-.55l.3-1.77c.03-.17-.03-.34-.15-.46l-1.29-1.26c-.31-.3-.14-.83.29-.89l1.78-.26c.17-.02.32-.13.39-.29l.8-1.61c.19-.39.75-.39.94,0Z"/>
          </g>
        </g>
        <g>
          <rect class="cls-50" x="177.24" y="306.47" width="13.8" height="63.03"/>
          <rect class="cls-49" x="199.43" y="316.58" width="13.8" height="52.92"/>
          <rect class="cls-82" x="155.26" y="325.21" width="13.8" height="44.29"/>
          <rect class="cls-14" x="221.61" y="298.09" width="13.81" height="71.41"/>
          <path class="cls-34" d="M162.22,319.92c1.89,0,3.43-1.54,3.43-3.43,0-.54-.14-1.05-.36-1.5l17.01-16.41c.53.34,1.16.54,1.83.54.97,0,1.85-.41,2.47-1.07l16.33,9.75c-.03.17-.05.34-.05.51,0,1.89,1.54,3.43,3.43,3.43s3.43-1.54,3.43-3.43c0-.6-.17-1.16-.44-1.66l17.88-21.32c.41.17.85.26,1.32.26,1.89,0,3.43-1.54,3.43-3.43s-1.54-3.43-3.43-3.43-3.43,1.54-3.43,3.43c0,.68.2,1.31.55,1.84l-17.8,21.23c-.45-.22-.96-.36-1.49-.36-.97,0-1.85.41-2.47,1.06l-16.33-9.75c.03-.17.05-.34.05-.51,0-1.89-1.54-3.43-3.43-3.43s-3.43,1.54-3.43,3.43c0,.47.1.91.26,1.32l-17.1,16.49c-.49-.27-1.05-.44-1.65-.44-1.89,0-3.43,1.54-3.43,3.43s1.54,3.43,3.43,3.43Z"/>
        </g>
        <g>
          <path class="cls-94" d="M454.84,157.07h-22.39c-2.51,0-4.55,2.04-4.55,4.55v5.6c0,2.51,2.04,4.55,4.55,4.55h16.17l4.05,4.05c.53.53,1.44.16,1.44-.6v-3.45h.72c2.51,0,4.55-2.04,4.55-4.55v-5.6c0-2.51-2.04-4.55-4.55-4.55Z"/>
          <g>
            <path class="cls-87" d="M437.06,164.39c0,.74-.6,1.35-1.35,1.35s-1.35-.6-1.35-1.35.6-1.35,1.35-1.35,1.35.6,1.35,1.35Z"/>
            <path class="cls-87" d="M442.35,164.39c0,.74-.6,1.35-1.35,1.35s-1.35-.6-1.35-1.35.6-1.35,1.35-1.35,1.35.6,1.35,1.35Z"/>
            <path class="cls-87" d="M447.64,164.39c0,.74-.6,1.35-1.35,1.35s-1.35-.6-1.35-1.35.6-1.35,1.35-1.35,1.35.6,1.35,1.35Z"/>
            <path class="cls-87" d="M452.94,164.39c0,.74-.6,1.35-1.35,1.35s-1.35-.6-1.35-1.35.6-1.35,1.35-1.35,1.35.6,1.35,1.35Z"/>
          </g>
        </g>
        <g>
          <path class="cls-74" d="M416.68,174.01h26.42c2.51,0,4.55,2.04,4.55,4.55v5.6c0,2.51-2.04,4.55-4.55,4.55h-20.2l-4.05,4.05c-.53.53-1.44.16-1.44-.6v-3.45h-.72c-2.51,0-4.55-2.04-4.55-4.55v-5.6c0-2.51,2.04-4.55,4.55-4.55Z"/>
          <g>
            <path class="cls-87" d="M438.5,181.33c0,.74.6,1.35,1.35,1.35s1.35-.6,1.35-1.35-.6-1.35-1.35-1.35-1.35.6-1.35,1.35Z"/>
            <path class="cls-87" d="M433.2,181.33c0,.74.6,1.35,1.35,1.35s1.35-.6,1.35-1.35-.6-1.35-1.35-1.35-1.35.6-1.35,1.35Z"/>
            <path class="cls-87" d="M427.91,181.33c0,.74.6,1.35,1.35,1.35s1.35-.6,1.35-1.35-.6-1.35-1.35-1.35-1.35.6-1.35,1.35Z"/>
            <path class="cls-87" d="M422.61,181.33c0,.74.6,1.35,1.35,1.35s1.35-.6,1.35-1.35-.6-1.35-1.35-1.35-1.35.6-1.35,1.35Z"/>
            <path class="cls-87" d="M417.32,181.33c0,.74.6,1.35,1.35,1.35s1.35-.6,1.35-1.35-.6-1.35-1.35-1.35-1.35.6-1.35,1.35Z"/>
          </g>
        </g>
        <g>
          <g>
            <path class="cls-37" d="M403.1,130.74h4c1.28,0,2.31,1.04,2.31,2.31v16.41c0,1.28-1.04,2.31-2.31,2.31h-4c-1.28,0-2.31-1.04-2.31-2.31v-16.41c0-1.28,1.04-2.31,2.31-2.31Z"/>
            <path class="cls-15" d="M433.31,143.34c-.49,2.84-3.07,3.46-3.07,3.46,0,0,1.7.16,1.28,1.81-.42,1.65-1.86,3.17-3.16,3.17h-10.54c-1.74,0-3.47-.34-5.05-1.05-.1-.05-.2-.09-.3-.13-.65-.28-1.07-.93-1.07-1.64v-15.29c0-.71.18-1.41.51-2.04.73-1.37,1.98-3.93,1.98-5.31,0-1.94-2.95-8.15-.9-9.44,2-1.26,4.61.45,6.33,3.55,1.35,2.45.39,7.75,1.36,8.72h10.21s2.77-.1,2.58,2.46c-.16,2.2-1.36,3.45-1.36,3.45,0,0,1.81-.13,1.74,2.23-.06,2.25-1.81,3.81-1.81,3.81,0,0,1.61.25,1.26,2.23Z"/>
          </g>
          <g>
            <rect class="cls-90" x="168.24" y="260.73" width="6.04" height="14.74" rx="1.62" ry="1.62"/>
            <path class="cls-62" d="M191.03,269.56c-.34,1.99-2.15,2.42-2.15,2.42,0,0,1.19.11.9,1.27-.29,1.16-1.3,2.22-2.21,2.22h-7.39c-1.22,0-2.43-.24-3.54-.74-.07-.03-.14-.06-.21-.09-.46-.19-.75-.65-.75-1.15v-10.71c0-.5.12-.99.36-1.43.51-.96,1.39-2.76,1.39-3.72,0-1.36-2.06-5.71-.63-6.61,1.4-.88,3.23.32,4.43,2.49.95,1.71.27,5.43.95,6.11h7.15s1.94-.07,1.81,1.72c-.11,1.54-.95,2.42-.95,2.42,0,0,1.27-.09,1.22,1.56-.04,1.58-1.27,2.67-1.27,2.67,0,0,1.13.17.89,1.56Z"/>
          </g>
        </g>
        <g>
          <g>
            <rect class="cls-87" x="247.41" y="68.05" width="7.03" height="7.03" rx=".66" ry=".66"/>
            <rect class="cls-87" x="256.8" y="68.05" width="7.03" height="7.03" rx=".66" ry=".66"/>
            <rect class="cls-87" x="266.2" y="68.05" width="7.03" height="7.03" rx=".66" ry=".66"/>
          </g>
          <g>
            <rect class="cls-87" x="61.1" y="277.62" width="7.03" height="7.03" rx=".66" ry=".66"/>
            <rect class="cls-87" x="70.5" y="277.62" width="7.03" height="7.03" rx=".66" ry=".66"/>
            <rect class="cls-87" x="79.9" y="277.62" width="7.03" height="7.03" rx=".66" ry=".66"/>
          </g>
          <g>
            <rect class="cls-87" x="328.26" y="335.72" width="4.52" height="4.52" rx=".43" ry=".43"/>
            <rect class="cls-87" x="334.31" y="335.72" width="4.52" height="4.52" rx=".43" ry=".43"/>
            <rect class="cls-87" x="340.35" y="335.72" width="4.52" height="4.52" rx=".43" ry=".43"/>
          </g>
        </g>
        <g>
          <g>
            <path class="cls-1" d="M312.75,135.21h0c0,5.45,4.42,9.86,9.86,9.86h61.44c5.45,0,9.86-4.42,9.86-9.86h0c0-5.45-4.42-9.86-9.86-9.86h-61.44c-5.45,0-9.86,4.42-9.86,9.86Z"/>
            <path class="cls-32" d="M382.37,131.84h-41.34c-.59,0-1.07-.48-1.07-1.07h0c0-.59.48-1.07,1.07-1.07h41.34c.59,0,1.07.48,1.07,1.07h0c0,.59-.48,1.07-1.07,1.07Z"/>
            <path class="cls-91" d="M366.78,136.3h-25.75c-.59,0-1.07-.48-1.07-1.07h0c0-.59.48-1.07,1.07-1.07h25.75c.59,0,1.07.48,1.07,1.07h0c0,.59-.48,1.07-1.07,1.07Z"/>
            <path class="cls-29" d="M382.37,136.3h-11.03c-.59,0-1.07-.48-1.07-1.07h0c0-.59.48-1.07,1.07-1.07h11.03c.59,0,1.07.48,1.07,1.07h0c0,.59-.48,1.07-1.07,1.07Z"/>
            <path class="cls-99" d="M360.63,140.77h-19.6c-.59,0-1.07-.48-1.07-1.07h0c0-.59.48-1.07,1.07-1.07h19.6c.59,0,1.07.48,1.07,1.07h0c0,.59-.48,1.07-1.07,1.07Z"/>
          </g>
          <g>
            <path class="cls-106" d="M327.65,134.51h0c-2.92,0-5.28,2.36-5.28,5.28v.53c0,.24.2.44.44.44h9.68c.24,0,.44-.2.44-.44v-.53c0-2.92-2.36-5.28-5.28-5.28Z"/>
            <path class="cls-24" d="M329.9,131.35c0,1.24-1.01,2.82-2.25,2.82s-2.25-1.58-2.25-2.82,1.01-2.25,2.25-2.25,2.25,1.01,2.25,2.25Z"/>
          </g>
        </g>
        <g>
          <g>
            <path class="cls-87" d="M25.73,178.38h0c0,5.27,4.27,9.55,9.55,9.55h59.47c5.27,0,9.55-4.27,9.55-9.55h0c0-5.27-4.27-9.55-9.55-9.55h-59.47c-5.27,0-9.55,4.27-9.55,9.55Z"/>
            <path class="cls-61" d="M94.04,175.01h-41.34c-.59,0-1.07-.48-1.07-1.07h0c0-.59.48-1.07,1.07-1.07h41.34c.59,0,1.07.48,1.07,1.07h0c0,.59-.48,1.07-1.07,1.07Z"/>
            <path class="cls-98" d="M78.45,179.47h-25.75c-.59,0-1.07-.48-1.07-1.07h0c0-.59.48-1.07,1.07-1.07h25.75c.59,0,1.07.48,1.07,1.07h0c0,.59-.48,1.07-1.07,1.07Z"/>
            <path class="cls-104" d="M94.04,179.47h-11.03c-.59,0-1.07-.48-1.07-1.07h0c0-.59.48-1.07,1.07-1.07h11.03c.59,0,1.07.48,1.07,1.07h0c0,.59-.48,1.07-1.07,1.07Z"/>
            <path class="cls-102" d="M72.3,183.94h-19.6c-.59,0-1.07-.48-1.07-1.07h0c0-.59.48-1.07,1.07-1.07h19.6c.59,0,1.07.48,1.07,1.07h0c0,.59-.48,1.07-1.07,1.07Z"/>
          </g>
          <g>
            <path class="cls-28" d="M40.64,177.68h0c-2.92,0-5.28,2.36-5.28,5.28v.53c0,.24.2.44.44.44h9.68c.24,0,.44-.2.44-.44v-.53c0-2.92-2.36-5.28-5.28-5.28Z"/>
            <path class="cls-68" d="M42.89,174.52c0,1.24-1.01,2.82-2.25,2.82s-2.25-1.58-2.25-2.82,1.01-2.25,2.25-2.25,2.25,1.01,2.25,2.25Z"/>
          </g>
        </g>
        <g>
          <path class="cls-69" d="M226.38,125.03c-1.74-1.53-3.86-1.1-5.27-.29-1.38.78-2.13,1.99-2.13,1.99,0,0-.75-1.21-2.13-1.99-1.41-.8-3.53-1.24-5.27.29-4.12,3.62,2.05,12.3,7.4,14.22,5.36-1.92,11.53-10.61,7.4-14.22Z"/>
          <path class="cls-87" d="M87.86,192.2c-1.49-1.31-3.31-.94-4.52-.25-1.18.67-1.83,1.71-1.83,1.71,0,0-.65-1.03-1.83-1.71-1.21-.69-3.03-1.06-4.52.25-3.53,3.1,1.76,10.54,6.35,12.19,4.59-1.65,9.88-9.09,6.35-12.19Z"/>
          <path class="cls-89" d="M176.02,61.92c-.97-.85-2.15-.61-2.94-.16-.77.44-1.19,1.11-1.19,1.11,0,0-.42-.67-1.19-1.11-.79-.45-1.97-.69-2.94.16-2.3,2.02,1.14,6.85,4.12,7.92,2.98-1.07,6.42-5.91,4.12-7.92Z"/>
          <path class="cls-73" d="M514.71,116.34c-2.57-2.25-5.69-1.61-7.77-.43-2.03,1.16-3.15,2.93-3.15,2.93,0,0-1.11-1.78-3.15-2.93-2.08-1.18-5.2-1.82-7.77.43-6.07,5.33,3.02,18.13,10.92,20.97,7.89-2.84,16.99-15.63,10.92-20.97Z"/>
        </g>
        <line class="cls-6" x1="35.25" y1="369.61" x2="554.75" y2="369.61"/>
      </g>
    </g>
    <g id="TEXTS">
      <text class="cls-108" transform="translate(213.23 216.65)"><tspan x="0" y="0">360</tspan></text>
    </g>
  </g>
</svg>